<?xml version="1.0" encoding="UTF-8"?>
<svg width="972px" height="217px" viewBox="0 0 972 217" version="1.1" xmlns="http://www.w3.org/2000/svg" xmlns:xlink="http://www.w3.org/1999/xlink">
    <!-- Generator: Sketch 60 (88103) - https://sketch.com -->
    <title>画板</title>
    <desc>Created with Sketch.</desc>
    <defs>
        <polygon id="path-1" points="0 0.574330508 60.4160828 0.574330508 60.4160828 59.9661017 0 59.9661017"></polygon>
        <polygon id="path-3" points="0 0.574330508 60.4160828 0.574330508 60.4160828 59.9661017 0 59.9661017"></polygon>
        <polygon id="path-5" points="0 0.6003 60.4 0.6003 60.4 60 0 60"></polygon>
    </defs>
    <g id="画板" stroke="none" stroke-width="1" fill="none" fill-rule="evenodd">
        <g id="icon2(1)" transform="translate(26.000000, 31.000000)">
            <g id="配置中心">
                <g id="Group">
                    <g id="Group-3">
                        <g id="Fill-1-Clipped">
                            <g>
                                <mask id="mask-2" fill="white">
                                    <use xlink:href="#path-1"></use>
                                </mask>
                                <g id="path-1"></g>
                                <path d="M60.4160828,30.2699576 C60.4160828,46.6706864 46.8919621,59.9666186 30.2074103,59.9666186 C13.5249621,59.9666186 -0.000210344828,46.6706864 -0.000210344828,30.2699576 C-0.000210344828,13.8692288 13.5249621,0.574330508 30.2074103,0.574330508 C46.8919621,0.574330508 60.4160828,13.8692288 60.4160828,30.2699576" id="Fill-1" fill="#57D88A" fill-rule="nonzero" mask="url(#mask-2)"></path>
                            </g>
                        </g>
                    </g>
                    <g id="配置中心" transform="translate(15.000000, 13.000000)" fill="#FFFFFF" fill-rule="nonzero">
                        <path d="M26.4576855,16.8680273 C26.4957129,17.0969434 26.4874414,17.3704395 26.4279297,17.6937793 C26.3730371,18.0171191 26.277002,18.3451855 26.1442285,18.6769043 C26.0116699,19.010127 25.850752,19.3086523 25.6619043,19.573877 C25.4727344,19.8407129 25.2606836,20.0297754 25.0368164,20.1441797 C24.8081152,20.2604102 24.6091699,20.3165918 24.4384766,20.3165918 C24.2674609,20.3165918 24.0801172,20.2802832 23.8713965,20.2022949 C23.6822266,20.1458984 23.44375,20.0927246 23.1600488,20.044707 C22.8732324,19.9983008 22.5865234,19.9901367 22.2914355,20.0165625 C21.9921457,20.0459641 21.6969153,20.107661 21.4108984,20.2005762 C21.1213393,20.2919984 20.8614972,20.4591934 20.6583008,20.684834 C20.2022949,21.1589941 19.9337402,21.7011523 19.859082,22.3095898 C19.7845313,22.9180273 19.8690723,23.496709 20.1161426,24.0470312 C20.3052051,24.4284863 20.2770605,24.8065039 20.0316016,25.1861328 C19.918916,25.3386719 19.7347949,25.494541 19.4911621,25.655459 C19.2440918,25.8178809 18.972207,25.9653711 18.6803418,26.0981445 C18.3886914,26.2324219 18.0785645,26.3350098 17.7536133,26.4131055 C17.4302734,26.4894824 17.1466797,26.5274023 16.897998,26.5274023 C16.7271973,26.5274023 16.5697168,26.461123 16.4156738,26.328457 C16.2648535,26.1941797 16.1619434,26.0515234 16.1022168,25.9007031 L16.0724609,25.9007031 C15.8635254,25.3105273 15.5087109,24.8048926 15.0064063,24.3770312 C14.5039941,23.9492773 13.9219824,23.7354004 13.2555371,23.7354004 C12.6105762,23.7354004 12.0269531,23.9491699 11.5063867,24.3770312 C10.9841016,24.8047852 10.6194043,25.3022559 10.4104688,25.8725586 C10.3159375,26.1012598 10.1733887,26.2670117 9.98271484,26.3716406 C9.79698242,26.4759473 9.58804688,26.5274023 9.3593457,26.5274023 C9.09412109,26.5274023 8.7955957,26.4808887 8.4640918,26.3831348 C8.12470082,26.2856399 7.79187627,26.1665894 7.46764648,26.026709 C7.13603516,25.8840527 6.83589844,25.7183008 6.57056641,25.527627 C6.3053418,25.3385645 6.10639648,25.1478906 5.97373047,24.959043 C5.87930664,24.8245508 5.82613281,24.6688965 5.81625,24.4897168 C5.80636719,24.3090332 5.87769531,24.0571289 6.03023437,23.7337891 C6.2390625,23.2961523 6.31866211,22.7986816 6.27225586,22.236543 C6.22584961,21.676123 5.9837207,21.1589941 5.54608398,20.684834 C5.28075195,20.3995215 4.95913086,20.2155078 4.57939453,20.129248 C4.1996582,20.0429883 3.83990234,20.0099023 3.4984082,20.0297754 C3.09879883,20.0480371 2.69263672,20.1241992 2.27487305,20.2584766 C2.00954102,20.3331348 1.74431641,20.3134766 1.47737305,20.2005762 C1.26854492,20.125918 1.07454102,19.9502832 0.89375,19.6749609 C0.712958984,19.3996387 0.553867187,19.0930566 0.409599609,18.7631641 C0.267951392,18.4323281 0.158554557,18.0885968 0.0829296875,17.736748 C0.00837890625,17.3853711 -0.0116015625,17.0968359 0.0265332031,16.8680273 C0.0829296875,16.4502637 0.271884766,16.1850391 0.595224609,16.0705273 C1.16391602,15.8418262 1.67459961,15.4670312 2.13049805,14.9431348 C2.58639648,14.4208496 2.81359375,13.837334 2.81359375,13.1907617 C2.81359375,12.5275391 2.58639648,11.9472461 2.13049805,11.4532129 C1.67449219,10.9574609 1.16219727,10.5977051 0.593505859,10.3688965 C0.427753906,10.3158301 0.285205078,10.1782227 0.172412109,9.9594043 C0.0580078125,9.74047852 0,9.51671875 0,9.29124023 C0,9.04416992 0.0380273437,8.76734375 0.112685547,8.46387695 C0.187669594,8.16158046 0.287481207,7.86599006 0.411103516,7.58011719 C0.530261604,7.30661016 0.673405282,7.04419207 0.838857422,6.7959375 C1.0012793,6.56057617 1.17712891,6.38311523 1.36436523,6.26871094 C1.5169043,6.17417969 1.66450195,6.13604492 1.8071582,6.15430664 C1.94970703,6.17256836 2.10557617,6.21070312 2.27626953,6.26871094 C2.84496094,6.49741211 3.43857422,6.56712891 4.0552832,6.48258789 C4.67048828,6.39804687 5.21758789,6.12616211 5.69174805,5.671875 C5.91894531,5.44306641 6.08469727,5.16280273 6.18911133,4.83119141 C6.29202148,4.49625 6.36152344,4.1696875 6.38805664,3.84634766 C6.41791992,3.52311523 6.41791992,3.22963867 6.38805664,2.96441406 C6.35991211,2.6974707 6.33499023,2.5084082 6.31683594,2.39572266 C6.27870117,2.28142578 6.24550781,2.14704102 6.21736328,1.99611328 C6.1875,1.84357422 6.20232422,1.7094043 6.25882813,1.59661133 C6.37151367,1.3312793 6.57550781,1.09924805 6.8705957,0.900302734 C7.1684011,0.698276759 7.4882532,0.530836437 7.82396484,0.401220703 C8.14743498,0.273938416 8.4806698,0.173026751 8.82041016,0.0994726563 C9.14203125,0.0330859375 9.39898438,0 9.58804688,0 C9.83350586,0 10.0291211,0.0795996094 10.1717773,0.242021484 C10.3143262,0.404443359 10.4121875,0.571914062 10.4684766,0.742714844 C10.6774121,1.25500977 11.0189063,1.70435547 11.4931738,2.09558594 C11.967334,2.48520508 12.5277539,2.68082031 13.1727148,2.68082031 C13.8375488,2.68082031 14.424502,2.49508789 14.9367969,2.12373047 C15.4490918,1.75226562 15.8089551,1.28304687 16.0177832,0.712744141 C16.0924414,0.560205078 16.2133984,0.402724609 16.3724902,0.243525391 C16.5333008,0.0809960937 16.6974414,0.00150390625 16.8715723,0.00150390625 C17.1351855,0.00150390625 17.4252246,0.0379199219 17.7386816,0.115908203 C18.055575,0.192177795 18.3647289,0.297614482 18.6621875,0.430869141 C18.965072,0.561200374 19.2480244,0.73366968 19.5026562,0.943164062 C19.7597168,1.15209961 19.9619922,1.37929687 20.1144238,1.62625977 C20.2089551,1.77879883 20.237207,1.94455078 20.1989648,2.12362305 C20.1609375,2.30430664 20.1244141,2.43203125 20.0862793,2.50830078 C19.839209,3.06044922 19.7646582,3.63730469 19.8573633,4.24584961 C19.952002,4.85256836 20.2288281,5.38645508 20.6813965,5.84235352 C21.1372949,6.29835937 21.6977148,6.54875977 22.3609375,6.59849609 C23.0258789,6.64490234 23.6428027,6.5371582 24.2113867,6.27021484 C24.3620996,6.17568359 24.5463281,6.1359375 24.7649316,6.15581055 C24.9838574,6.17568359 25.1662598,6.26194336 25.3187988,6.41115234 C25.6022852,6.67637695 25.852793,7.08103516 26.0716113,7.62319336 C26.2903223,8.16535156 26.436416,8.71073242 26.5124707,9.26126953 C26.550498,9.58460937 26.4992578,9.83651367 26.3583203,10.0173047 C26.2140527,10.196377 26.0681738,10.3157227 25.9140234,10.3737305 C25.3269629,10.582666 24.8262695,10.9489746 24.408291,11.4696484 C23.9907422,11.9902148 23.7835254,12.5854395 23.7835254,13.2502734 C23.7835254,13.8969531 23.9591602,14.462207 24.3073145,14.9463574 C24.6587988,15.4288965 25.1182422,15.7770508 25.685,15.9859863 C25.804866,16.0523023 25.9191451,16.1282488 26.026709,16.2130762 C26.2402637,16.3839844 26.3831348,16.6028027 26.4576855,16.8680273 L26.4576855,16.8680273 Z M13.2286816,19.4329395 C14.0808594,19.4329395 14.8899609,19.2704102 15.6458887,18.9488965 C16.4053613,18.6255566 17.0650391,18.179541 17.6255664,17.610957 C18.1858789,17.0389355 18.6269531,16.3806543 18.9485742,15.629668 C19.2701953,14.8785742 19.4310059,14.0761328 19.4310059,13.2222363 C19.4310059,12.3667285 19.2701953,11.5642871 18.9485742,10.8148047 C18.6269531,10.0637109 18.1857715,9.40714844 17.6255664,8.84844727 C17.0650391,8.28802734 16.4069727,7.84544922 15.6458887,7.5237207 C14.8899609,7.20038086 14.080752,7.03795898 13.2286816,7.03795898 C12.3765039,7.03795898 11.5724512,7.20048828 10.8228613,7.52210937 C10.0768164,7.84544922 9.42025391,8.28802734 8.86316406,8.84844727 C8.30446289,9.40714844 7.86177734,10.0654297 7.54015625,10.8148047 C7.21681641,11.5642871 7.05600586,12.3683398 7.05600586,13.2222363 C7.05600586,14.0761328 7.21853516,14.8784668 7.54015625,15.629668 C7.86188477,16.379043 8.30446289,17.0389355 8.86316406,17.610957 C9.42186523,18.1812598 10.0784277,18.6255566 10.8261914,18.9488965 C11.5757813,19.2704102 12.3765039,19.4329395 13.2286816,19.4329395 L13.2286816,19.4329395 Z M31.1222656,31.7087891 C31.1355859,31.7886035 31.1326855,31.8838867 31.1118457,31.9965723 C31.0911604,32.113947 31.0580308,32.2287843 31.0130176,32.3391406 C30.9697361,32.4496586 30.913329,32.5545743 30.8450098,32.6516309 C30.7791602,32.7445508 30.7051465,32.8105078 30.6271582,32.8503613 C30.5475586,32.8908594 30.4781641,32.9105176 30.4187598,32.9105176 C30.3591406,32.9105176 30.2939355,32.8978418 30.2211035,32.8706641 C30.1552539,32.8508984 30.0721094,32.8325293 29.9732813,32.8157715 C29.8732274,32.799782 29.7715577,32.7964616 29.6706738,32.8058887 C29.5684082,32.8157715 29.4661426,32.8371484 29.363877,32.8700195 C29.2630074,32.9019285 29.1724852,32.9601876 29.1016602,33.0387793 C28.9427832,33.2039941 28.8491113,33.3928418 28.8231152,33.6048926 C28.7972266,33.8169434 28.8265527,34.0185742 28.9127051,34.2103223 C28.9785547,34.3432031 28.9687793,34.4750098 28.8832715,34.6071387 C28.8440625,34.6603125 28.7798242,34.714668 28.6949609,34.7706348 C28.6048758,34.8292422 28.5104253,34.8808489 28.4124414,34.925 C28.3108203,34.9718359 28.2027539,35.0075 28.0895313,35.0346777 C27.9768457,35.0612109 27.8780176,35.0744238 27.7914355,35.0744238 C27.7319238,35.0744238 27.6771387,35.0513281 27.6234277,35.0051367 C27.5708984,34.9583008 27.5350195,34.9086719 27.5141797,34.8560352 L27.5037598,34.8560352 C27.4309277,34.6504297 27.3072852,34.4741504 27.1322949,34.3251563 C26.9571973,34.1760547 26.7543848,34.1016113 26.5222461,34.1016113 C26.2974121,34.1016113 26.0941699,34.1760547 25.9127344,34.3251563 C25.7307617,34.4742578 25.6036816,34.6475293 25.5308496,34.8463672 C25.4978711,34.9259668 25.4481348,34.9837598 25.381748,35.0201758 C25.3169727,35.0565918 25.244248,35.0744238 25.164541,35.0744238 C25.0721582,35.0744238 24.9681738,35.0583105 24.8526953,35.0242578 C24.7344535,34.9902576 24.6184909,34.9487808 24.5055078,34.9000781 C24.3953769,34.8535458 24.2906038,34.7952345 24.1930176,34.7261621 C24.1006348,34.6603125 24.0312402,34.5939258 23.9849414,34.5279688 C23.9513707,34.4798481 23.9323187,34.4231023 23.9300488,34.3644727 C23.9266113,34.3015234 23.9514258,34.2138672 24.0045996,34.1011816 C24.0773242,33.9486426 24.1051465,33.7753711 24.0888184,33.579541 C24.0727051,33.384248 23.9882715,33.2041016 23.8359473,33.0388867 C23.7462501,32.941213 23.6286125,32.8735789 23.4990723,32.8452051 C23.3668359,32.8152344 23.2414746,32.8036328 23.1224512,32.8106152 C22.983125,32.8170605 22.8416504,32.8435937 22.6960938,32.8903223 C22.6036035,32.9163184 22.5112207,32.9094434 22.4180859,32.870127 C22.3453613,32.8441309 22.2776855,32.7829004 22.2147363,32.6870801 C22.1497128,32.586076 22.0932966,32.4797837 22.046084,32.3693262 C21.9966764,32.2540876 21.9585776,32.134323 21.9323242,32.0117187 C21.9063281,31.8892578 21.8993457,31.7888184 21.9125586,31.7090039 C21.9323242,31.5635547 21.9980664,31.4710645 22.110752,31.4311035 C22.3089453,31.3515039 22.4868359,31.2208789 22.6456055,31.0383691 C22.8044824,30.8563965 22.8836523,30.6530469 22.8836523,30.4276758 C22.8836523,30.1966113 22.8044824,29.9944434 22.6456055,29.8222461 C22.4867285,29.6495117 22.3081934,29.5241504 22.1102148,29.4443359 C22.0523145,29.4258594 22.0026855,29.3779492 21.9633691,29.3016797 C21.9235156,29.2254102 21.9033203,29.1474219 21.9033203,29.0688965 C21.9033203,28.9827441 21.9165332,28.8863867 21.9425293,28.7805762 C21.9685254,28.6747656 22.0037598,28.5720703 22.0466211,28.4727051 C22.0881934,28.3773145 22.1380371,28.2860059 22.1956152,28.1994238 C22.2522266,28.1173535 22.3135645,28.0555859 22.3787695,28.0157324 C22.4318359,27.9827539 22.4833984,27.969541 22.5330273,27.9758789 C22.5827637,27.9823242 22.6371191,27.9955371 22.696416,28.0157324 C22.8947168,28.0954395 23.1015039,28.1197168 23.3163477,28.0901758 C23.5306543,28.0607422 23.7213281,27.9659961 23.886543,27.8076563 C23.9657129,27.7279492 24.0233984,27.6304102 24.0598145,27.5147168 C24.0956934,27.3980566 24.1199707,27.2841895 24.129209,27.1716113 C24.1396289,27.0590332 24.1396289,26.9567676 24.129209,26.8643848 C24.1225706,26.7981261 24.1142966,26.7320415 24.1043945,26.6661914 C24.0897525,26.6205778 24.0781964,26.5740306 24.0698047,26.5268652 C24.0593848,26.4737988 24.064541,26.4269629 24.0843066,26.3877539 C24.1235156,26.2952637 24.1945215,26.214375 24.2973242,26.1450879 C24.4011226,26.0747037 24.5125912,26.0163565 24.6295801,25.9711719 C24.7422656,25.9268066 24.8583887,25.8916797 24.9767676,25.8660059 C25.0888086,25.8428027 25.178291,25.8313086 25.2441406,25.8313086 C25.3296484,25.8313086 25.3978613,25.8591309 25.4475977,25.9156348 C25.4972266,25.9722461 25.5312793,26.0305762 25.5509375,26.0900879 C25.6237695,26.268623 25.742793,26.4252441 25.9080078,26.5615625 C26.0732227,26.6973438 26.2684082,26.7654492 26.4931348,26.7654492 C26.7247363,26.7654492 26.929375,26.7006738 27.1078027,26.5713379 C27.2863379,26.4418945 27.4116992,26.2783984 27.4845313,26.079668 C27.5105273,26.0266016 27.5527441,25.9716016 27.6081738,25.9162793 C27.6641406,25.859668 27.7213965,25.8319531 27.7819824,25.8319531 C27.8738281,25.8319531 27.9749121,25.8446289 28.0841602,25.8718066 C28.1934082,25.8978027 28.3008301,25.9347559 28.4059961,25.9814844 C28.5128809,26.0277832 28.6104199,26.0871875 28.6988281,26.1600195 C28.788418,26.2328516 28.8588867,26.3119141 28.9119531,26.3980664 C28.9449316,26.4511328 28.954707,26.5089258 28.9413867,26.5713379 C28.9281738,26.6342871 28.915498,26.6787598 28.9021777,26.705293 C28.8161328,26.8976855 28.7901367,27.0986719 28.8224707,27.3108301 C28.8554492,27.5222363 28.9519141,27.7081836 29.1096094,27.867168 C29.2684863,28.0260449 29.4636719,28.1132715 29.6947363,28.1305664 C29.9264453,28.1466797 30.1413965,28.1091895 30.3394824,28.0162695 C30.3920117,27.9831836 30.45625,27.9694336 30.5324121,27.9763086 C30.6086816,27.9831836 30.6722754,28.0133691 30.7254492,28.0652539 C30.8241699,28.1577441 30.9113965,28.2986816 30.987666,28.4876367 C31.0639355,28.6765918 31.1148535,28.8666211 31.1413867,29.0583691 C31.1545996,29.1710547 31.1367676,29.2588184 31.0876758,29.3217676 C31.0374023,29.3841797 30.9865918,29.425752 30.9328809,29.4459473 C30.7283496,29.5187793 30.5538965,29.6463965 30.4082324,29.827832 C30.2627832,30.0091602 30.1905957,30.2165918 30.1905957,30.4481934 C30.1905957,30.6736719 30.2517188,30.8705762 30.372998,31.0392285 C30.4929068,31.2055457 30.6602273,31.3317943 30.8530664,31.4014551 C30.8949609,31.4245508 30.934707,31.4509766 30.9720898,31.4805176 C31.0452675,31.5385942 31.0979013,31.618599 31.1222656,31.7087891 L31.1222656,31.7087891 Z M26.5129004,32.6024316 C26.8098145,32.6024316 27.0916895,32.5459277 27.3550879,32.4338867 C27.6197754,32.3212012 27.8496582,32.1657617 28.0449512,31.9676758 C28.2404169,31.768388 28.3967691,31.5342058 28.5058984,31.2772754 C28.6180469,31.0154883 28.6740137,30.7359766 28.6740137,30.438418 C28.6740137,30.1403223 28.6180469,29.8607031 28.5058984,29.5995605 C28.3938574,29.3377734 28.2401367,29.1090723 28.0449512,28.9144238 C27.8496582,28.7191309 27.6203125,28.564873 27.3550879,28.452832 C27.0916895,28.3401465 26.8098145,28.2835352 26.5129004,28.2835352 C26.2158789,28.2835352 25.9357227,28.3401465 25.6745801,28.4521875 C25.4146191,28.564873 25.1858105,28.7190234 24.9918066,28.9144238 C24.7970508,29.1090723 24.6429004,29.338418 24.530752,29.5995605 C24.4180664,29.8607031 24.3620996,30.1408594 24.3620996,30.438418 C24.3620996,30.7359766 24.4187109,31.0154883 24.530752,31.2772754 C24.6402766,31.534018 24.796623,31.7681369 24.9918066,31.9676758 C25.1864551,32.1664062 25.4151563,32.3212012 25.6757617,32.4338867 C25.9367969,32.5459277 26.2158789,32.6024316 26.5129004,32.6024316 L26.5129004,32.6024316 Z" id="Shape"></path>
                    </g>
                </g>
            </g>
            <g id="Group-10-Copy" transform="translate(86.000000, 0.000000)">
                <g id="Group-3">
                    <g id="Fill-1-Clipped">
                        <g>
                            <mask id="mask-4" fill="white">
                                <use xlink:href="#path-3"></use>
                            </mask>
                            <g id="path-3"></g>
                            <path d="M60.4160828,30.2699576 C60.4160828,46.6706864 46.8919621,59.9666186 30.2074103,59.9666186 C13.5249621,59.9666186 -0.000210344828,46.6706864 -0.000210344828,30.2699576 C-0.000210344828,13.8692288 13.5249621,0.574330508 30.2074103,0.574330508 C46.8919621,0.574330508 60.4160828,13.8692288 60.4160828,30.2699576" id="Fill-1" fill="#80B3F2" fill-rule="nonzero" mask="url(#mask-4)"></path>
                        </g>
                    </g>
                </g>
                <path d="M35.6116897,27.8537966 C37.7172414,26.2274746 39.0781724,23.7078644 39.0781724,20.8760169 C39.0781724,15.9815424 35.0279828,12 30.0491207,12 C25.0702586,12 21.020069,15.9815424 21.020069,20.8760169 C21.020069,23.7078644 22.381,26.2274746 24.4865517,27.8537966 C18.9366034,30.0332542 15,35.363 15,41.5870678 L15,44.5460847 C15,45.3638983 15.6731034,46.0255932 16.5050172,46.0255932 L43.5932241,46.0255932 C44.4251379,46.0255932 45.0982414,45.3638983 45.0982414,44.5460847 L45.0982414,41.5870678 C45.0982414,35.3619661 41.1616379,30.0332542 35.6116897,27.8537966" id="Fill-4" fill="#F4F4F4" fill-rule="nonzero" opacity="0.843247768"></path>
                <path d="M44.5280517,27.3602542 C45.7596207,26.0254915 46.4853103,24.2709661 46.4853103,22.3975424 C46.4853103,18.3177797 43.1092759,15 38.9612759,15 C38.8361207,15 38.720431,15.0299831 38.5973793,15.0361864 C39.2494483,15.9625593 39.7448103,16.9974915 40.0634828,18.1068644 L40.0645345,18.1068644 C40.055069,18.1078983 40.0487586,18.1089322 40.0487586,18.1089322 C40.0487586,18.1089322 42.1153966,23.5224237 38,27.769678 C38.6857241,28.0726102 46.4716379,31.2497797 46.4705862,41.6280508 C46.4758448,41.6280508 46.4800517,41.6280508 46.4853103,41.6280508 L46.4853103,41.6280508 L49.4953448,41.6280508 C50.3272586,41.6280508 51.0003621,40.9663559 51.0003621,40.1485424 L51.0003621,37.8605254 C51.0003621,33.3454915 48.4467759,29.355678 44.5280517,27.3602542" id="Fill-6" fill="#F4F4F4" fill-rule="nonzero" opacity="0.843247768"></path>
                <path d="M21.9856379,27.769678 C17.8702414,23.5224237 19.9368793,18.1089322 19.9368793,18.1089322 C20.2545,16.9974915 20.7509138,15.9615254 21.4029828,15.0361864 C21.2809828,15.0299831 21.1642414,15 21.0390862,15 C16.8900345,15 13.5150517,18.3177797 13.5150517,22.3975424 C13.5150517,24.2699322 14.2407414,26.0254915 15.4723103,27.3602542 C11.5546379,29.355678 9,33.3454915 9,37.8605254 L9,40.1485424 C9,40.9663559 9.67310345,41.6280508 10.5050172,41.6280508 L13.5150517,41.6280508 C13.514,31.2497797 21.2999138,28.0726102 21.9856379,27.769678" id="Fill-8" fill="#F4F4F4" fill-rule="nonzero" opacity="0.843247768"></path>
            </g>
            <g id="落地页" transform="translate(182.000000, 0.000000)">
                <path d="M18.3501,35.6498 L39.3501,35.6498 L42.3501,35.6498 C42.9501,35.6498 43.3501,35.2498 43.3501,34.6498 C43.3501,34.0498 42.9501,33.6498 42.3501,33.6498 L18.3501,33.6498 C17.7501,33.6498 17.3501,34.0498 17.3501,34.6498 C17.3501,35.2498 17.7501,35.6498 18.3501,35.6498" id="Fill-1" fill="#FFA166" fill-rule="nonzero"></path>
                <path d="M18.3501,40.6498 L42.3501,40.6498 C42.9501,40.6498 43.3501,40.2498 43.3501,39.6498 C43.3501,39.0498 42.9501,38.6498 42.3501,38.6498 L18.3501,38.6498 C17.7501,38.6498 17.3501,39.0498 17.3501,39.6498 C17.3501,40.2498 17.7501,40.6498 18.3501,40.6498" id="Fill-3" fill="#FFA166" fill-rule="nonzero"></path>
                <path d="M18.3501,30.6498 L33.3501,30.6498 C33.9501,30.6498 34.3501,30.2498 34.3501,29.6498 C34.3501,29.0498 33.9501,28.6498 33.3501,28.6498 L18.3501,28.6498 C17.7501,28.6498 17.3501,29.0498 17.3501,29.6498 C17.3501,30.2498 17.7501,30.6498 18.3501,30.6498" id="Fill-5" fill="#FFA166" fill-rule="nonzero"></path>
                <path d="M21.3501,17.6498 C20.7981,17.6498 20.3501,18.0978 20.3501,18.6498 C20.3501,19.2028 20.7981,19.6498 21.3501,19.6498 C21.9021,19.6498 22.3501,19.2028 22.3501,18.6498 C22.3501,18.0978 21.9021,17.6498 21.3501,17.6498" id="Fill-7" fill="#FFA166" fill-rule="nonzero"></path>
                <path d="M24.3501,17.6498 C23.7981,17.6498 23.3501,18.0978 23.3501,18.6498 C23.3501,19.2028 23.7981,19.6498 24.3501,19.6498 C24.9021,19.6498 25.3501,19.2028 25.3501,18.6498 C25.3501,18.0978 24.9021,17.6498 24.3501,17.6498" id="Fill-9" fill="#FFA166" fill-rule="nonzero"></path>
                <g id="分组">
                    <g id="Fill-11-Clipped">
                        <g>
                            <mask id="mask-6" fill="white">
                                <use xlink:href="#path-5"></use>
                            </mask>
                            <g id="path-5"></g>
                            <path d="M47.25,22.5663 L13.15,22.5663 L13.15,19.1493 C13.15,16.4503 15.35,14.2503 18.05,14.2503 L42.35,14.2503 C45.05,14.2503 47.15,16.4503 47.25,19.1493 L47.25,22.5663 Z M47.25,41.4503 C47.25,44.1493 45.05,46.3503 42.35,46.3503 L18.05,46.3503 C15.35,46.3503 13.15,44.1493 13.15,41.4503 L13.15,23.7333 L47.25,23.7333 L47.25,41.4503 Z M30.2,0.6003 C13.5,0.6003 0,13.8993 0,30.3003 C0,46.7003 13.5,60.0003 30.2,60.0003 C46.9,60.0003 60.4,46.7003 60.4,30.3003 C60.4,13.8993 46.9,0.6003 30.2,0.6003 L30.2,0.6003 Z" id="Fill-11" fill="#FFA166" fill-rule="nonzero" mask="url(#mask-6)"></path>
                        </g>
                    </g>
                </g>
                <path d="M42.3501,17.6498 L31.3501,17.6498 C30.7501,17.6498 30.3501,18.0498 30.3501,18.6498 C30.3501,19.2498 30.7501,19.6498 31.3501,19.6498 L42.3501,19.6498 C42.9501,19.6498 43.3501,19.2498 43.3501,18.6498 C43.3501,18.0498 42.9501,17.6498 42.3501,17.6498" id="Fill-13" fill="#FFA166" fill-rule="nonzero"></path>
                <path d="M18.3501,17.6498 C17.7981,17.6498 17.3501,18.0978 17.3501,18.6498 C17.3501,19.2028 17.7981,19.6498 18.3501,19.6498 C18.9021,19.6498 19.3501,19.2028 19.3501,18.6498 C19.3501,18.0978 18.9021,17.6498 18.3501,17.6498" id="Fill-15" fill="#FFA166" fill-rule="nonzero"></path>
                <path d="M42.3501,19.6498 L31.3501,19.6498 C30.7501,19.6498 30.3501,19.2498 30.3501,18.6498 C30.3501,18.0498 30.7501,17.6498 31.3501,17.6498 L42.3501,17.6498 C42.9501,17.6498 43.3501,18.0498 43.3501,18.6498 C43.3501,19.2498 42.9501,19.6498 42.3501,19.6498 M24.3501,19.6498 C23.7981,19.6498 23.3501,19.2028 23.3501,18.6498 C23.3501,18.0978 23.7981,17.6498 24.3501,17.6498 C24.9021,17.6498 25.3501,18.0978 25.3501,18.6498 C25.3501,19.2028 24.9021,19.6498 24.3501,19.6498 M21.3501,19.6498 C20.7981,19.6498 20.3501,19.2028 20.3501,18.6498 C20.3501,18.0978 20.7981,17.6498 21.3501,17.6498 C21.9021,17.6498 22.3501,18.0978 22.3501,18.6498 C22.3501,19.2028 21.9021,19.6498 21.3501,19.6498 M18.3501,19.6498 C17.7981,19.6498 17.3501,19.2028 17.3501,18.6498 C17.3501,18.0978 17.7981,17.6498 18.3501,17.6498 C18.9021,17.6498 19.3501,18.0978 19.3501,18.6498 C19.3501,19.2028 18.9021,19.6498 18.3501,19.6498 M42.3501,14.2498 L18.0501,14.2498 C15.3501,14.2498 13.1501,16.4498 13.1501,19.1498 L13.1501,22.5668 L47.2501,22.5668 L47.2501,19.1498 C47.1501,16.4498 45.0501,14.2498 42.3501,14.2498" id="Fill-17" fill="#FFFFFF" fill-rule="nonzero"></path>
                <path d="M18.3501,38.6498 L42.3501,38.6498 C42.9501,38.6498 43.3501,39.0498 43.3501,39.6498 C43.3501,40.2498 42.9501,40.6498 42.3501,40.6498 L18.3501,40.6498 C17.7501,40.6498 17.3501,40.2498 17.3501,39.6498 C17.3501,39.0498 17.7501,38.6498 18.3501,38.6498 L18.3501,38.6498 Z M18.3501,33.6498 L42.3501,33.6498 C42.9501,33.6498 43.3501,34.0498 43.3501,34.6498 C43.3501,35.2498 42.9501,35.6498 42.3501,35.6498 L39.3501,35.6498 L18.3501,35.6498 C17.7501,35.6498 17.3501,35.2498 17.3501,34.6498 C17.3501,34.0498 17.7501,33.6498 18.3501,33.6498 L18.3501,33.6498 Z M18.3501,28.6498 L33.3501,28.6498 C33.9501,28.6498 34.3501,29.0498 34.3501,29.6498 C34.3501,30.2498 33.9501,30.6498 33.3501,30.6498 L18.3501,30.6498 C17.7501,30.6498 17.3501,30.2498 17.3501,29.6498 C17.3501,29.0498 17.7501,28.6498 18.3501,28.6498 L18.3501,28.6498 Z M13.1501,41.4498 C13.1501,44.1498 15.3501,46.3498 18.0501,46.3498 L42.3501,46.3498 C45.0501,46.3498 47.2501,44.1498 47.2501,41.4498 L47.2501,23.7338 L13.1501,23.7338 L13.1501,41.4498 Z" id="Fill-19" fill="#FFFFFF" fill-rule="nonzero"></path>
            </g>
            <g id="复制" transform="translate(16.000000, 83.000000)" fill="#2873FF" fill-rule="nonzero">
                <path d="M12.6308068,0 L5.09168704,0 C4.33863081,0 3.72249389,0.62090206 3.72249389,1.37978236 L3.72249389,2.90616659 L1.36919315,2.90616659 C0.616136919,2.90616659 0,3.52706865 0,4.28594894 L0,11.8833755 C0,12.6422558 0.616136919,13.2631579 1.36919315,13.2631579 L8.90831296,13.2631579 C9.66136919,13.2631579 10.2775061,12.6422558 10.2775061,11.8833755 L10.2775061,10.3569913 L12.6308068,10.3569913 C13.3838631,10.3569913 14,9.73608925 14,8.97720895 L14,1.37978236 C14,0.62090206 13.3838631,0 12.6308068,0 Z M9.42176039,11.3659572 C9.42176039,11.9351174 8.9596577,12.4007939 8.39486553,12.4007939 L1.89119804,12.4007939 C1.32640587,12.4007939 0.864303178,11.9351174 0.864303178,11.3659572 L0.864303178,4.81199097 C0.864303178,4.24283074 1.32640587,3.7771542 1.89119804,3.7771542 L3.73105134,3.7771542 L3.73105134,8.97720895 C3.73105134,9.73608925 4.34718826,10.3569913 5.1002445,10.3569913 L9.42176039,10.3569913 L9.42176039,11.3659572 L9.42176039,11.3659572 Z M13.1442543,8.45979057 C13.1442543,9.02895079 12.6821516,9.49462734 12.1173594,9.49462734 L5.61369193,9.49462734 C5.04889976,9.49462734 4.58679707,9.02895079 4.58679707,8.45979057 L4.58679707,1.90582438 C4.58679707,1.33666416 5.04889976,0.870987612 5.61369193,0.870987612 L12.1173594,0.870987612 C12.6821516,0.870987612 13.1442543,1.33666416 13.1442543,1.90582438 L13.1442543,8.45979057 Z" id="Shape"></path>
                <polygon id="Shape" points="9.2706334 2.94736842 8.42206283 2.94736842 8.42206283 4.55965249 6.63157895 4.55965249 6.63157895 5.40822305 8.42206283 5.40822305 8.42206283 7.36842105 9.2706334 7.36842105 9.2706334 5.40822305 11.0526316 5.40822305 11.0526316 4.55965249 9.2706334 4.55965249"></polygon>
            </g>
            <g id="a/btest" transform="translate(276.000000, 0.000000)" fill-rule="nonzero">
                <ellipse id="Oval-2-Copy" fill="#BC35EF" cx="30" cy="29.8136646" rx="30" ry="29.8136646"></ellipse>
                <g id="分组-2" transform="translate(14.000000, 17.000000)">
                    <path d="M30.4,0 L1.59999998,0 C0.7163444,0 -5.15143483e-14,0.632068588 -5.15143483e-14,1.41176469 L-5.15143483e-14,22.5882353 C-5.15143483e-14,23.3679314 0.716344386,24 1.59999998,24 L30.4,24 C31.2836556,24 32,23.3679314 32,22.5882353 L32,1.41176469 C32,0.632068576 31.2836556,0 30.4,0 L30.4,0 Z" id="路径" fill="#FFFFFF" opacity="0.975446429"></path>
                    <g id="分组" transform="translate(4.000000, 6.000000)" fill="#BC35EF">
                        <path d="M3.9190295,6.5 L7.93107077,10.09009 C8.46004909,10.5634351 8.48495289,11.3545376 7.98669496,11.857067 C7.48843703,12.3595964 6.65569752,12.383255 6.1267192,11.90991 L1.09782422,7.40990998 C0.5463393,6.91642539 0.5463393,6.08357461 1.09782422,5.59009002 L6.1267192,1.09009002 C6.65569752,0.61674499 7.48843703,0.6404036 7.98669496,1.14293301 C8.48495289,1.64546241 8.46004909,2.43656495 7.93107077,2.90990998 L3.9190295,6.5 Z" id="路径-2"></path>
                        <path d="M22.667912,10.09009 C23.1968903,10.5634351 23.2217941,11.3545376 22.7235362,11.857067 C22.2252782,12.3595964 21.3925387,12.383255 20.8635604,11.90991 L15.8346654,7.40990998 C15.2831805,6.91642539 15.2831805,6.08357461 15.8346654,5.59009002 L20.8635604,1.09009002 C21.3925387,0.61674499 22.2252782,0.6404036 22.7235362,1.14293301 C23.2217941,1.64546241 23.1968903,2.43656495 22.667912,2.90990998 L18.6558707,6.5 L22.667912,10.09009 Z" id="路径-2-copy" transform="translate(19.251291, 6.500000) scale(-1, 1) translate(-19.251291, -6.500000) "></path>
                        <path d="M10.6842105,2 C10.6842105,1.30964406 11.2733095,0.75 12,0.75 C12.7266905,0.75 13.3157895,1.30964406 13.3157895,2 L13.3157895,11 C13.3157895,11.6903559 12.7266905,12.25 12,12.25 C11.2733095,12.25 10.6842105,11.6903559 10.6842105,11 L10.6842105,2 Z" id="直线"></path>
                    </g>
                    <path d="M8.38872512,29 C7.56029799,29 6.88872512,28.3284271 6.88872512,27.5 C6.88872512,26.6715729 7.56029799,26 8.38872512,26 L22.3887251,26 C23.2171522,26 23.8887251,26.6715729 23.8887251,27.5 C23.8887251,28.3284271 23.2171522,29 22.3887251,29 L8.38872512,29 Z" id="直线-2" fill="#FFFFFF"></path>
                </g>
            </g>
            <g id="流量预估" transform="translate(362.000000, 0.000000)" fill-rule="nonzero">
                <ellipse id="Oval-2" fill="#FF8585" cx="30" cy="29.8136646" rx="30" ry="29.8136646"></ellipse>
                <path d="M48.6500579,28.5736374 C48.4446006,28.3933627 48.1235734,28.2517183 47.8410696,28.2517183 L41.9726942,28.2517183 L39.8153921,22.1610091 C39.6356169,21.5815547 39.032086,21.2596357 38.415714,21.3755265 L37.18297,21.40128 C36.6308034,21.298266 36.104319,21.6330618 35.9245437,22.2511465 L33.0352999,34.5355788 L28.9518352,16.8171523 L28.9518352,16.7913988 C28.7977422,16.2376979 28.1942113,15.8900254 27.5906803,16.0316697 L25.9855448,16.0316697 C25.3306495,16.0316697 24.9839403,16.5081099 24.9068938,16.7656452 L21.8507159,30.8528244 L21.1701384,28.9599402 C20.9389989,28.2259647 20.1428517,28.2517182 19.8089835,28.2774718 L12.1813798,28.3032253 C11.5264845,28.3032253 11,28.805419 11,29.410627 L11,30.7755639 C11,31.3807717 11.5264845,31.8829655 12.1813798,31.8829655 L18.0240729,31.8829655 L20.181375,37.8706606 C20.3611501,38.4243614 20.964681,38.772034 21.6067353,38.6561432 L22.7367507,38.6303896 C23.3402816,38.7334037 23.9694947,38.334224 24.162111,37.7805233 L27.1540835,25.2514324 L31.2503893,43.1887639 L31.2503893,43.2145175 C31.4044823,43.6909577 31.8539202,44 32.3547224,44 C32.4317689,44 32.5088154,44 32.5858619,43.9742465 L33.8442882,43.9742465 C34.422137,43.9742465 34.7431641,43.3947922 34.8202106,42.8410913 L38.107528,29.1530917 L38.7881055,31.0846062 C38.9678807,31.6383071 39.5457294,31.9859796 40.1877836,31.8700887 L47.8153874,31.8700887 C48.1364145,31.8700887 48.4189183,31.7670747 48.6243756,31.5481697 C48.8555152,31.3421415 48.9967671,31.0459759 48.9967671,30.7626872 L48.9967671,29.3977502 C49.0224492,29.0758311 48.8940384,28.7796655 48.6500579,28.5736374 L48.6500579,28.5736374 Z" id="路径" fill="#FFFFFF"></path>
            </g>
            <g id="创意参考" transform="translate(446.000000, 0.000000)" fill-rule="nonzero">
                <ellipse id="Oval-2" fill="#3AAFFF" cx="30" cy="29.8136646" rx="30" ry="29.8136646"></ellipse>
                <g id="7_11广告创意" transform="translate(13.000000, 12.000000)" fill="#FFFFFF">
                    <path d="M20.7922706,30 L13.2077294,30 C12.5407189,30 12,30.5381193 12,31.2019231 L12,31.2980769 C12,31.9618807 12.5407189,32.5 13.2077294,32.5 L20.7922706,32.5 C21.4592811,32.5 22,31.9618807 22,31.2980769 L22,31.2019231 C22,30.5381193 21.4592811,30 20.7922706,30 L20.7922706,30 Z" id="路径"></path>
                    <path d="M19.0343348,34 L14.9656652,34 C14.432343,34 14,34.5381193 14,35.2019231 L14,35.2980769 C14,35.9618807 14.432343,36.5 14.9656652,36.5 L19.0343348,36.5 C19.567657,36.5 20,35.9618807 20,35.2980769 L20,35.2019231 C20,34.5381193 19.567657,34 19.0343348,34 L19.0343348,34 Z" id="路径"></path>
                    <path d="M17.0275731,7 C19.9423915,7 22.7374276,8.15980816 24.7959407,10.2234702 C26.8544538,12.2871322 28.0072527,15.085059 28,17.999872 C28,22.4513843 25.3169531,26.4640488 21.2032321,28.1649948 C17.089511,29.8659409 12.3561462,28.9198029 9.21238788,25.7681811 C6.06862952,22.6165593 5.13431427,17.8808409 6.84552432,13.7713745 C8.55673437,9.66190804 12.5760803,6.98893341 17.0275731,7 Z M17.0275731,9.35122062 C14.7363371,9.35122062 12.5393426,10.2633173 10.9217696,11.8860392 C9.30419653,13.5087611 8.39911715,15.7086448 8.40636374,17.999872 C8.40636374,21.5003997 10.5165683,24.6557174 13.7516963,25.9927344 C16.9868243,27.3297513 20.7088823,26.5847716 23.1801913,24.1055962 C25.6515003,21.6264208 26.3846513,17.9020102 25.0373656,14.6711418 C23.6900799,11.4402734 20.5280787,9.34016173 17.0275731,9.35122062 Z" id="合并形状"></path>
                    <path d="M17.5923874,3.46125 C17.5923874,3.9075 17.1023703,4.29 16.5263198,4.29 C15.9502692,4.29 15.4602521,3.91500001 15.4602521,3.46125 L15.4602521,0.836250012 C15.4602521,0.374999981 15.9390474,0 16.5263198,0 C17.1135921,0 17.5923874,0.374999981 17.5923874,0.828749997 L17.5923874,3.46125 Z" id="路径"></path>
                    <path d="M10.2520901,5.5975 C10.4727848,5.97249998 10.2520901,6.56124999 9.7396295,6.85 C9.22716888,7.13875001 8.617453,7.05625 8.40798004,6.67 L7.09877411,4.37499999 C6.8780794,4.00000001 7.09877411,3.41874998 7.61123473,3.12249999 C8.12369536,2.82625001 8.73341123,2.91624999 8.9428842,3.30249999 L10.2520901,5.5975 Z" id="路径"></path>
                    <path d="M5.69485121,9.94196311 C6.07274443,10.1714452 6.16721777,10.7986962 5.87623996,11.311206 C5.58526215,11.8237159 5.00708551,12.0761462 4.61785547,11.8351901 L2.32782239,10.49272 C1.94992917,10.263238 1.84789799,9.64746112 2.14643364,9.12347706 C2.44496929,8.59949301 3.01558809,8.35853686 3.40481813,8.59949305 L5.69485121,9.94196311 Z" id="路径"></path>
                    <path d="M3.47661787,16.160927 C3.92631083,16.160927 4.307983,16.6619628 4.307983,17.2547915 C4.307983,17.8476201 3.93008977,18.3486559 3.47661787,18.3486559 L0.831365129,18.3486559 C0.381672166,18.3486559 0,17.8590942 0,17.2547915 C0,16.6504887 0.377893226,16.160927 0.831365129,16.160927 L3.47661787,16.160927 Z" id="路径"></path>
                    <path d="M4.61785547,22.6705681 C4.99574869,22.441086 5.58526219,22.6705681 5.87623996,23.1945521 C6.16721773,23.7185362 6.08408125,24.3419624 5.69485121,24.5637951 L3.40481813,25.9062651 C3.02692491,26.1357472 2.44496929,25.9062651 2.14643364,25.3822811 C1.84789799,24.858297 1.93859235,24.2348708 2.32782239,24.0130381 L4.61785547,22.6705681 Z" id="路径"></path>
                    <path d="M28.3051488,24.5637951 C27.9272556,24.334313 27.8327822,23.707062 28.12376,23.1945521 C28.4147378,22.6820422 28.9929145,22.4296119 29.3821445,22.6705681 L31.6721776,24.0130381 C32.0500708,24.2425202 32.152102,24.858297 31.8535664,25.3822811 C31.5550307,25.9062651 30.9844119,26.1472213 30.5951819,25.9062651 L28.3051488,24.5637951 Z" id="路径"></path>
                    <path d="M30.5233821,18.3486559 C30.0736892,18.3486559 29.692017,17.8476201 29.692017,17.2547915 C29.692017,16.6619628 30.0699102,16.160927 30.5233821,16.160927 L33.1686349,16.160927 C33.6183278,16.160927 34,16.6504887 34,17.2547915 C34,17.8590942 33.6221068,18.3486559 33.1686349,18.3486559 L30.5233821,18.3486559 Z" id="路径"></path>
                    <path d="M29.3821445,11.8351901 C29.0042513,12.0646722 28.4147378,11.8351901 28.12376,11.311206 C27.8327823,10.787222 27.9159187,10.1637958 28.3051488,9.94196311 L30.5951819,8.59949305 C30.9730751,8.37001098 31.5550307,8.59949305 31.8535664,9.12347706 C32.152102,9.64746108 32.0614077,10.2708873 31.6721776,10.49272 L29.3821445,11.8351901 Z" id="路径"></path>
                    <path d="M25.1799717,6.77893536 C24.9570146,7.16140544 24.3372697,7.25702299 23.8346717,6.962521 C23.3320737,6.66801901 23.0788852,6.07901508 23.3169579,5.68507087 L24.6395843,3.35965263 C24.8625413,2.97718254 25.4709495,2.87391562 25.9848843,3.17606698 C26.4988191,3.47821835 26.7406708,4.05957291 26.502598,4.45351712 L25.1799717,6.77893536 Z" id="路径"></path>
                </g>
            </g>
            <g id="商品库" transform="translate(530.000000, 0.000000)" fill-rule="nonzero">
                <ellipse id="Oval-2" fill="#FFB657" cx="30" cy="29.8136646" rx="30" ry="29.8136646"></ellipse>
                <g id="shangpin" transform="translate(14.000000, 12.000000)">
                    <path d="M6.28659785,33.949757 C4.00557829,33.949757 3.05585993,32.3320939 2.8713158,31.4767929 C2.77042051,30.9158159 0.5194767,18.4457645 0.0533062464,15.0240286 C-0.116625748,13.7737543 0.120341775,12.7756395 0.755432693,12.0571968 C1.35933449,11.37579 2.31206552,11 3.43838883,11 C3.69872997,11 3.9055344,11.0201112 4.01820385,11.0344321 L27.9826737,11.0344321 C28.0952995,11.0199889 28.3021039,11 28.562314,11 C29.6888047,11 30.6413684,11.37579 31.2444188,12.0576571 C31.8805649,12.7756395 32.1165209,13.7737543 31.9465889,15.0240286 C31.4813936,18.445261 29.230457,30.91578 29.135376,31.4451301 C28.9449593,32.3320939 27.9952847,33.949757 25.7142214,33.949757 L6.28659785,33.949757 Z" id="路径" fill="#FFFFFF"></path>
                    <path d="M6.84283546,17.0987084 C7.22752559,17.4789436 7.76821231,17.7002026 8.3121664,17.7002026 C8.85616414,17.7002026 9.39685086,17.4789004 9.78149733,17.0987084 C10.1661875,16.718466 10.3900273,16.1840737 10.3900273,15.6463655 C10.3900273,15.1086574 10.1661802,14.574258 9.78149733,14.1940227 C9.39685086,13.8137803 8.85616414,13.5925285 8.3121664,13.5925285 C7.76821231,13.5925285 7.22751834,13.8137875 6.84283546,14.1940227 C6.45818896,14.574258 6.23413084,15.1086502 6.23413084,15.6463655 C6.23413084,16.1840737 6.45818899,16.7184731 6.84283546,17.0987084 Z" id="路径" fill="#FFB657"></path>
                    <path d="M22.2193219,17.0987084 C22.6039684,17.4789436 23.1446551,17.7002026 23.6886529,17.7002026 C24.232607,17.7002026 24.7733009,17.4789004 25.1579838,17.0987084 C25.5426303,16.718466 25.7665138,16.1840737 25.7665138,15.6463655 C25.7665138,15.1086574 25.5425866,14.574258 25.1579838,14.1940227 C24.7732937,13.8137803 24.232607,13.5925285 23.6886529,13.5925285 C23.1446479,13.5925285 22.6039684,13.8137875 22.2193219,14.1940227 C21.8346391,14.574258 21.610792,15.1086502 21.610792,15.6463655 C21.610792,16.1840737 21.8346391,16.7184731 22.2193219,17.0987084 Z" id="路径" fill="#FFB657"></path>
                    <path d="M24.8665481,10.1127411 C24.3169399,10.1127411 23.8722219,9.67266143 23.8722219,9.12986796 C23.8722219,5.17965948 20.3404064,1.96573916 16.0000021,1.96573916 C11.6593869,1.96573916 8.12863372,5.17965948 8.12863372,9.12986796 C8.12863372,9.67266143 7.68387212,10.1127411 7.13426386,10.1127411 C6.58461189,10.1127411 6.13985758,9.67266143 6.13985758,9.12986796 C6.13985758,4.09554705 10.5629792,0 16.0000021,0 C21.4369013,0 25.8609107,4.09554705 25.8609107,9.12986796 C25.8609107,9.67266863 25.4162438,10.1127411 24.8665481,10.1127411 L24.8665481,10.1127411 Z" id="路径" fill="#FFFFFF"></path>
                </g>
            </g>
            <g id="权重配置" transform="translate(609.000000, 0.000000)">
                <ellipse id="Oval-2" fill="#82C1FF" fill-rule="nonzero" cx="30" cy="29.8136646" rx="30" ry="29.8136646"></ellipse>
                <g id="分组-4" transform="translate(15.000000, 17.000000)" stroke="#FFFFFF" stroke-width="3">
                    <line x1="0" y1="4.18965517" x2="29.7900608" y2="4.18965517" id="直线-3" stroke-linecap="round"></line>
                    <line x1="0" y1="22.8103448" x2="29.7900608" y2="22.8103448" id="直线-3-copy-2" stroke-linecap="round"></line>
                    <line x1="0" y1="13.5" x2="29.7900608" y2="13.5" id="直线-3-copy" stroke-linecap="round"></line>
                    <circle id="椭圆形" fill="#82C1FF" fill-rule="nonzero" cx="21.4137931" cy="3.72413793" r="3.72413793"></circle>
                    <circle id="椭圆形-copy-2" fill="#82C1FF" fill-rule="nonzero" cx="21.4137931" cy="23.2758621" r="3.72413793"></circle>
                    <circle id="椭圆形-copy" fill="#82C1FF" fill-rule="nonzero" cx="8.37931034" cy="13.0344828" r="3.72413793"></circle>
                </g>
            </g>
            <g id="蜂鸟" transform="translate(688.000000, 0.000000)" fill="#5392FF" fill-rule="nonzero">
                <path d="M30,60 C13.4314575,60 0,46.5685425 0,30 C0,13.4314575 13.4314575,0 30,0 C46.5685425,0 60,13.4314575 60,30 C60,46.5685425 46.5685425,60 30,60 Z M37.6344357,46.875 C42.7026896,46.875 46.5802892,45.5808311 46.5802892,45.5808311 C39.8509663,41.9897798 38.6071578,37.559123 38.6071577,37.559123 C49.235342,30.7941491 46.5802892,13.4939985 46.5802892,13.4939985 C42.0435774,21.0290564 35.3886703,21.5264023 33.6957087,21.5264023 C33.4352531,21.5264023 33.2943945,21.5130328 33.2943945,21.5130328 C31.8007611,21.2643599 30.6340263,18.841804 30.6340263,18.841804 C28.4733076,14.1624742 25.3186052,13.4939985 25.3186053,13.4939985 C24.4115366,13.2560681 23.4786615,13.1321245 22.5412978,13.125 C16.5428452,13.125 14.690421,18.841804 14.690421,18.841804 L9.375,18.841804 L14.690421,24.1896094 C17.4384937,43.2919704 29.1908895,46.875 37.6344357,46.875 Z" id="Combined-Shape"></path>
            </g>
            <g id="自动规则" transform="translate(767.000000, 0.000000)" fill-rule="nonzero">
                <path d="M30,60 C13.4314575,60 0,46.5685425 0,30 C0,13.4314575 13.4314575,0 30,0 C46.5685425,0 60,13.4314575 60,30 C60,46.5685425 46.5685425,60 30,60 Z" id="Combined-Shape-path" fill="#FD6F1C"></path>
                <g id="分组-5" transform="translate(14.000000, 18.000000)" fill="#FFFFFF">
                    <path d="M5.5,11 C2.46243388,11 0,8.53756612 0,5.5 C0,2.46243388 2.46243388,0 5.5,0 C8.53756612,0 11,2.46243388 11,5.5 C11,8.53756612 8.53756612,11 5.5,11 Z M5.5,8 C6.88071187,8 8,6.88071187 8,5.5 C8,4.11928813 6.88071187,3 5.5,3 C4.11928813,3 3,4.11928813 3,5.5 C3,6.88071187 4.11928813,8 5.5,8 Z" id="椭圆形"></path>
                    <path d="M5.5,25 C2.46243388,25 0,22.5375661 0,19.5 C0,16.4624339 2.46243388,14 5.5,14 C8.53756612,14 11,16.4624339 11,19.5 C11,22.5375661 8.53756612,25 5.5,25 Z M5.5,22 C6.88071187,22 8,20.8807119 8,19.5 C8,18.1192881 6.88071187,17 5.5,17 C4.11928813,17 3,18.1192881 3,19.5 C3,20.8807119 4.11928813,22 5.5,22 Z" id="椭圆形-copy-3"></path>
                    <path d="M15,4 C14.1715729,4 13.5,3.32842712 13.5,2.5 C13.5,1.67157288 14.1715729,1 15,1 L31.1982112,1 C32.0266383,1 32.6982112,1.67157288 32.6982112,2.5 C32.6982112,3.32842712 32.0266383,4 31.1982112,4 L15,4 Z" id="直线-4"></path>
                    <path d="M15,18 C14.1715729,18 13.5,17.3284271 13.5,16.5 C13.5,15.6715729 14.1715729,15 15,15 L31.1982112,15 C32.0266383,15 32.6982112,15.6715729 32.6982112,16.5 C32.6982112,17.3284271 32.0266383,18 31.1982112,18 L15,18 Z" id="直线-4-copy-2"></path>
                    <path d="M15,10 C14.1715729,10 13.5,9.32842712 13.5,8.5 C13.5,7.67157288 14.1715729,7 15,7 L31.1982112,7 C32.0266383,7 32.6982112,7.67157288 32.6982112,8.5 C32.6982112,9.32842712 32.0266383,10 31.1982112,10 L15,10 Z" id="直线-4-copy"></path>
                    <path d="M15,24 C14.1715729,24 13.5,23.3284271 13.5,22.5 C13.5,21.6715729 14.1715729,21 15,21 L31.1982112,21 C32.0266383,21 32.6982112,21.6715729 32.6982112,22.5 C32.6982112,23.3284271 32.0266383,24 31.1982112,24 L15,24 Z" id="直线-4-copy-3"></path>
                </g>
            </g>
            <g id="消息push" transform="translate(849.000000, 0.000000)" fill-rule="nonzero">
                <path d="M60,30 C60,46.568 46.569,60 30,60 C13.432,60 0,46.568 0,30 C0,13.431 13.432,0 30,0 C46.569,0 60,13.431 60,30" id="Fill-1" fill="#FFB657"></path>
                <g id="编组" transform="translate(11.000000, 11.000000)">
                    <rect id="矩形" fill="#000000" opacity="0" x="0" y="0" width="38" height="38"></rect>
                    <path d="M21.2983871,5.20967741 L9.23185482,5.20967741 C4.80745968,5.20967741 1.1875,8.82963709 1.1875,13.2540323 L1.1875,25.8951613 L5.20967741,25.8951613 L5.20967741,17.7016129 C5.20967741,13.9092742 9.3125,9.80645163 13.1048387,9.8064516 L28.9979839,9.8064516 L27.2741935,7.91028227 C25.7802419,6.18649195 23.5967742,5.20967741 21.2983871,5.20967741 Z" id="路径" fill="#FFFFFF"></path>
                    <path d="M28.9871795,11.6111111 C33.3636752,11.6111111 36.9444444,15.2310708 36.9444444,19.6554659 L36.9444444,33.4457885 L15.3461539,33.4457885 C10.9696581,33.4457885 7.38888889,29.8258288 7.38888889,25.4014337 L7.38888889,19.6554659 C7.38888889,15.2310708 10.9696581,11.6111111 15.3461539,11.6111111 L28.9871795,11.6111111 Z M14.7777778,20.0555556 C13.6118433,20.0555556 12.6666667,21.0007322 12.6666667,22.1666667 C12.6666667,23.3326011 13.6118433,24.2777778 14.7777778,24.2777778 C15.9437122,24.2777778 16.8888889,23.3326011 16.8888889,22.1666667 C16.8888889,21.0007322 15.9437122,20.0555556 14.7777778,20.0555556 Z M22.1666667,20.0555556 C21.0007322,20.0555556 20.0555556,21.0007322 20.0555556,22.1666667 C20.0555556,23.3326011 21.0007322,24.2777778 22.1666667,24.2777778 C23.3326011,24.2777778 24.2777778,23.3326011 24.2777778,22.1666667 C24.2777778,21.0007322 23.3326011,20.0555556 22.1666667,20.0555556 Z M29.5555556,20.0555556 C28.3896211,20.0555556 27.4444444,21.0007322 27.4444444,22.1666667 C27.4444444,23.3326011 28.3896211,24.2777778 29.5555556,24.2777778 C30.72149,24.2777778 31.6666667,23.3326011 31.6666667,22.1666667 C31.6666667,21.0007322 30.72149,20.0555556 29.5555556,20.0555556 Z" id="形状结合" fill="#FFFFFF"></path>
                </g>
            </g>
        </g>
    </g>
</svg>