<?xml version="1.0" encoding="UTF-8"?>
<svg width="14px" height="14px" viewBox="0 0 14 14" version="1.1" xmlns="http://www.w3.org/2000/svg" xmlns:xlink="http://www.w3.org/1999/xlink">
    <!-- Generator: Sketch 48 (47235) - http://www.bohemiancoding.com/sketch -->
    <title>Shape Copy 2</title>
    <desc>Created with Sketch.</desc>
    <defs></defs>
    <g id="ICON" stroke="none" stroke-width="1" fill="none" fill-rule="evenodd">
        <g id="icon" transform="translate(-81.000000, -759.000000)" fill="#FFFFFF">
            <path d="M88,773 C84.1335938,773 81,769.866406 81,766 C81,762.133594 84.1335938,759 88,759 C91.8664062,759 95,762.133594 95,766 C95,769.866406 91.8664062,773 88,773 L88,773 Z M88.4375,762.0625 C88.4375,761.820508 88.2419922,761.625 88,761.625 L88,761.625 C87.7580078,761.625 87.5625,761.820508 87.5625,762.0625 L87.5625,762.0625 C87.5625,762.304492 87.7580078,762.5 88,762.5 L88,762.5 C88.2419922,762.5 88.4375,762.304492 88.4375,762.0625 L88.4375,762.0625 L88.4375,762.0625 Z M88.4375,763.8125 C88.4375,763.570508 88.2419922,763.375 88,763.375 L88,763.375 C87.7580078,763.375 87.5625,763.570508 87.5625,763.8125 L87.5625,769.9375 C87.5625,770.179492 87.7580078,770.375 88,770.375 L88,770.375 C88.2419922,770.375 88.4375,770.179492 88.4375,769.9375 L88.4375,763.8125 L88.4375,763.8125 Z" id="Shape-Copy-2" transform="translate(88.000000, 766.000000) scale(1, -1) translate(-88.000000, -766.000000) "></path>
        </g>
    </g>
</svg>