<?xml version="1.0" encoding="UTF-8"?>
<svg width="579px" height="818px" viewBox="0 0 579 818" version="1.1" xmlns="http://www.w3.org/2000/svg" xmlns:xlink="http://www.w3.org/1999/xlink">
    <!-- Generator: Sketch 46.2 (44496) - http://www.bohemiancoding.com/sketch -->
    <title>icon</title>
    <desc>Created with Sketch.</desc>
    <defs>
        <circle id="path-1" cx="30" cy="30" r="30"></circle>
        <filter x="-18.3%" y="-11.7%" width="136.7%" height="136.7%" filterUnits="objectBoundingBox" id="filter-2">
            <feOffset dx="0" dy="4" in="SourceAlpha" result="shadowOffsetOuter1"></feOffset>
            <feGaussianBlur stdDeviation="3" in="shadowOffsetOuter1" result="shadowBlurOuter1"></feGaussianBlur>
            <feColorMatrix values="0 0 0 0 0   0 0 0 0 0   0 0 0 0 0  0 0 0 0.05 0" type="matrix" in="shadowBlurOuter1"></feColorMatrix>
        </filter>
        <polygon id="path-3" points="0.0002 0.978 26.0002 0.978 26.0002 26.9775 0.0002 26.9775"></polygon>
        <circle id="path-5" cx="30" cy="30" r="30"></circle>
        <filter x="-18.3%" y="-11.7%" width="136.7%" height="136.7%" filterUnits="objectBoundingBox" id="filter-6">
            <feOffset dx="0" dy="4" in="SourceAlpha" result="shadowOffsetOuter1"></feOffset>
            <feGaussianBlur stdDeviation="3" in="shadowOffsetOuter1" result="shadowBlurOuter1"></feGaussianBlur>
            <feColorMatrix values="0 0 0 0 0   0 0 0 0 0   0 0 0 0 0  0 0 0 0.05 0" type="matrix" in="shadowBlurOuter1"></feColorMatrix>
        </filter>
        <path d="M0,0 L36,0 L36,0 C37.1045695,-2.02906125e-16 38,0.8954305 38,2 L38,40 L38,40 C38,41.1045695 37.1045695,42 36,42 L0,42 L0,0 Z" id="path-7"></path>
        <filter x="-28.9%" y="-16.7%" width="157.9%" height="152.4%" filterUnits="objectBoundingBox" id="filter-8">
            <feOffset dx="0" dy="4" in="SourceAlpha" result="shadowOffsetOuter1"></feOffset>
            <feGaussianBlur stdDeviation="3" in="shadowOffsetOuter1" result="shadowBlurOuter1"></feGaussianBlur>
            <feComposite in="shadowBlurOuter1" in2="SourceAlpha" operator="out" result="shadowBlurOuter1"></feComposite>
            <feColorMatrix values="0 0 0 0 0   0 0 0 0 0   0 0 0 0 0  0 0 0 0.05 0" type="matrix" in="shadowBlurOuter1"></feColorMatrix>
        </filter>
        <polygon id="path-9" points="0.0002 0.978 26.0002 0.978 26.0002 26.9775 0.0002 26.9775"></polygon>
        <polygon id="path-11" points="0 18.75 0 0 8.24985 0 16.4997 0 16.4997 18.75"></polygon>
        <polygon id="path-13" points="4.4422125 0 21 0 21 18.75 -2.71050543e-20 18.75 -2.71050543e-20 0 4.4422125 0 -7.5e-05 0 -7.5e-05 3.75 8.884425 3.75 8.884425 0"></polygon>
        <polygon id="path-15" points="17.87475 0.495 17.87475 15.75 8.9763 15.75 0.07785 15.75 0.07785 0.495"></polygon>
        <polygon id="path-17" points="0.0001125 0.550125 14.6251125 0.550125 14.6251125 15.1748438 0.0001125 15.1748438"></polygon>
        <polygon id="path-19" points="0.0002 0.145 26.0002 0.145 26.0002 26.1445 0.0002 26.1445 0.0002 0.145"></polygon>
        <polygon id="path-21" points="25.015 -3.55271368e-15 25.015 25 12.51525 25 0.0155 25 0.0155 -1.97215226e-30"></polygon>
        <polygon id="path-23" points="6.6610671e-16 26.1445 6.6610671e-16 0.145 25.9998 0.145 25.9998 26.1445"></polygon>
    </defs>
    <g id="ICON" stroke="none" stroke-width="1" fill="none" fill-rule="evenodd">
        <g id="icon">
            <text id="图标" font-family="PingFangSC-Regular, PingFang SC" font-size="20" font-weight="normal" line-spacing="20" fill="#333333">
                <tspan x="75" y="55">图标</tspan>
            </text>
            <rect id="Rectangle-5" fill="#333333" x="75" y="69" width="250" height="1"></rect>
            <text id="业务图标" font-family="PingFangSC-Light, PingFang SC" font-size="16" font-weight="300" line-spacing="16" fill="#333333">
                <tspan x="75" y="141">业务图标</tspan>
            </text>
            <g id="现金账户_大" transform="translate(75.000000, 154.000000)">
                <g id="Oval-2">
                    <use fill="black" fill-opacity="1" filter="url(#filter-2)" xlink:href="#path-1"></use>
                    <use fill="#FFFFFF" fill-rule="evenodd" xlink:href="#path-1"></use>
                </g>
                <g id="icon/现金账户" transform="translate(14.000000, 14.000000)" stroke-width="1" fill-rule="evenodd">
                    <g id="Page-1" transform="translate(2.000000, 1.000000)">
                        <path d="M28.0988,16.5222 C28.0988,23.4252 22.5018,29.0222 15.5988,29.0222 C8.6958,29.0222 3.0988,23.4252 3.0988,16.5222 C3.0988,9.6192 8.6958,4.0222 15.5988,4.0222 C22.5018,4.0222 28.0988,9.6192 28.0988,16.5222" id="Fill-1" fill="#FFF1B8"></path>
                        <g id="Group-5" transform="translate(0.000000, 0.022200)">
                            <mask id="mask-4" fill="white">
                                <use xlink:href="#path-3"></use>
                            </mask>
                            <g id="Clip-4"></g>
                            <path d="M13.0002,0.9775 C5.8202,0.9775 0.0002,6.7975 0.0002,13.9775 C0.0002,21.1575 5.8202,26.9775 13.0002,26.9775 C20.1802,26.9775 26.0002,21.1575 26.0002,13.9775 C26.0002,6.7975 20.1802,0.9775 13.0002,0.9775 M13.0002,2.9775 C19.0652,2.9775 24.0002,7.9125 24.0002,13.9775 C24.0002,20.0425 19.0652,24.9775 13.0002,24.9775 C6.9352,24.9775 2.0002,20.0425 2.0002,13.9775 C2.0002,7.9125 6.9352,2.9775 13.0002,2.9775" id="Fill-3" fill="#FAAD14" mask="url(#mask-4)"></path>
                        </g>
                        <path d="M8.0241,12.8943 L17.9761,12.8943" id="Stroke-6" stroke="#FAAD14" stroke-width="2" stroke-linecap="round"></path>
                        <path d="M8.0241,17.3171 L17.9761,17.3171" id="Stroke-8" stroke="#FAAD14" stroke-width="2" stroke-linecap="round"></path>
                        <path d="M13.0002,12.8943 L13.0002,21.7403" id="Stroke-10" stroke="#FAAD14" stroke-width="2" stroke-linecap="round"></path>
                        <polyline id="Stroke-12" stroke="#FAAD14" stroke-width="2" stroke-linecap="round" points="9.2736 7.3659 13.0006 12.8939 16.7266 7.3659"></polyline>
                    </g>
                </g>
            </g>
            <g id="今日消耗_大" transform="translate(159.000000, 154.000000)">
                <g id="Oval-2">
                    <use fill="black" fill-opacity="1" filter="url(#filter-6)" xlink:href="#path-5"></use>
                    <use fill="#FFFFFF" fill-rule="evenodd" xlink:href="#path-5"></use>
                </g>
                <g id="icon/今日消耗" transform="translate(14.000000, 14.000000)" stroke-width="1" fill-rule="evenodd">
                    <g id="Page-1" transform="translate(2.000000, 3.000000)">
                        <path d="M26,26 L6,26 C4.896,26 4,24.9048889 4,23.5555556 L4,6.44444444 C4,5.09511111 4.896,4 6,4 L26,4 C27.104,4 28,5.09511111 28,6.44444444 L28,23.5555556 C28,24.9048889 27.104,26 26,26" id="Fill-1" fill="#50E394" opacity="0.341995018"></path>
                        <path d="M2.0003,0 C0.8953,0 0.0003,0.896 0.0003,2 L0.0003,22.0010986 C0.0003,23.1060986 0.8953,24.0010986 2.0003,24.0010986 L23.2173,24.0010986 C24.3213,24.0010986 25.0275879,23.1060986 25.0275879,22.0010986 L25.0275879,2 C25.0275879,0.896 24.3213,0 23.2173,0 L2.0003,0 Z M2.0003,21.9771729 L23.0355225,21.9771729 L23.0355225,2 L2.0003,2 L2.0003,21.9771729 Z" id="Fill-3" fill="#50E394"></path>
                        <path d="M0,5.9561 L24,5.9561" id="Stroke-5" stroke="#50E394" stroke-width="2"></path>
                        <path d="M2,12 L11,12" id="Stroke-7" stroke="#50E394" stroke-width="2" stroke-linecap="round"></path>
                        <path d="M2,17 L11,17" id="Stroke-7-Copy" stroke="#50E394" stroke-width="2" stroke-linecap="round"></path>
                    </g>
                </g>
            </g>
            <text id="系统图标" font-family="PingFangSC-Light, PingFang SC" font-size="16" font-weight="300" line-spacing="16" fill="#333333">
                <tspan x="75" y="704">系统图标</tspan>
            </text>
            <g id="收菜单" transform="translate(233.000000, 717.000000)">
                <g id="Rectangle-3">
                    <use fill="black" fill-opacity="1" filter="url(#filter-8)" xlink:href="#path-7"></use>
                    <use fill="#FFFFFF" fill-rule="evenodd" xlink:href="#path-7"></use>
                    <path stroke="#E8E8E8" stroke-width="1" d="M0.5,0.5 L0.5,41.5 L36,41.5 C36.8284271,41.5 37.5,40.8284271 37.5,40 L37.5,2 C37.5,1.17157288 36.8284271,0.5 36,0.5 L0.5,0.5 Z"></path>
                </g>
                <path d="M12.5599378,25.80991 L25.4400622,25.80991 C25.7495834,25.80991 26,26.0603266 26,26.3698478 C26,26.679369 25.7495834,26.9297856 25.4400622,26.9297856 L12.5599378,26.9297856 C12.2504166,26.9297856 12,26.679369 12,26.3698478 C12,26.0603266 12.2504166,25.80991 12.5599378,25.80991 Z M25.4089546,21.9992223 L16.6194867,21.9992223 C16.3099656,21.9992223 16.0595489,21.7488057 16.0595489,21.4392845 C16.0595489,21.1297634 16.3099656,20.8793467 16.6194867,20.8793467 L25.4089546,20.8793467 C25.7184757,20.8793467 25.9688923,21.1297634 25.9688923,21.4392845 C25.9688923,21.7488057 25.7169203,21.9992223 25.4089546,21.9992223 Z M25.4400622,16.1198756 L12.6065993,16.1198756 C12.2970781,16.1198756 12.0466615,15.8694589 12.0466615,15.5599378 C12.0466615,15.2504166 12.2970781,15 12.6065993,15 L25.4400622,15 C25.7495834,15 26,15.2504166 26,15.5599378 C26,15.8694589 25.748028,16.1198756 25.4400622,16.1198756 Z M14.088879,19.3675147 C14.1977558,19.2601933 14.3392956,19.2073103 14.4808355,19.2073103 C14.6254861,19.2073103 14.7701367,19.2633041 14.8805688,19.3752916 C15.096767,19.596156 15.0952116,19.9507832 14.8743473,20.1669814 L13.3905122,21.6259305 L14.8479058,22.9993334 C15.0734363,23.2108655 15.084324,23.5654927 14.8712365,23.7910232 C14.6597045,24.0165537 14.3050772,24.025886 14.0795467,23.814354 L12.199089,22.0412176 C12.0886568,21.937007 12.0248861,21.7923564 12.0233307,21.6399289 C12.0217754,21.4875014 12.0824353,21.3412954 12.1913121,21.233974 L14.088879,19.3675147 Z" id="Shape" fill-opacity="0.65" fill="#000000" fill-rule="evenodd" transform="translate(19.000000, 20.964893) scale(1, -1) translate(-19.000000, -20.964893) "></path>
            </g>
            <g id="icon/修改" transform="translate(81.000000, 731.000000)" fill="#2873FF">
                <path d="M13.3758773,1 L0.624122693,1 C0.280218352,1 0,0.775510204 0,0.5 C0,0.224489796 0.280218352,0 0.624122693,0 L13.3758773,0 C13.7197816,0 14,0.224489796 14,0.5 C14,0.775510204 13.7197816,1 13.3758773,1 L13.3758773,1 Z M3.77021055,3.12061347 C3.85391214,3.12061347 3.94125292,3.13880946 4.02859371,3.17338186 L4.03405251,3.17338186 L7.5859111,4.84195477 L7.62230309,4.86015077 L13.6633741,10.9048609 C13.8708084,11.1104757 13.9836236,11.3852352 13.9836236,11.6763712 C13.9836236,11.9675071 13.8689888,12.2422667 13.6633741,12.4478815 L12.4442423,13.6670133 C12.2368079,13.872628 11.9620483,13.9854432 11.6709124,13.9854432 C11.3797764,13.9854432 11.1050169,13.8708084 10.8994021,13.6651937 L4.88198596,7.65141669 L4.85469197,7.62412269 L4.83831557,7.5895503 L3.17702106,4.0577073 C3.07876267,3.84845334 3.09331947,3.61918378 3.21705225,3.42448661 C3.33896543,3.23706785 3.55003899,3.12061347 3.77021055,3.12061347 L3.77021055,3.12061347 Z M10.9448921,11.9493112 L11.6690928,12.6735118 L12.668053,11.6745516 L11.9438524,10.9503509 L10.9448921,11.9493112 L10.9448921,11.9493112 Z M5.00389914,5.01117754 L5.89004419,6.89628282 L10.0623863,11.0668053 L11.0613465,10.0678451 L6.88900442,5.89732259 L5.00389914,5.01117754 L5.00389914,5.01117754 Z" id="Shape" transform="translate(7.000000, 6.992722) scale(1, -1) translate(-7.000000, -6.992722) "></path>
            </g>
            <g id="icon/修改密码" transform="translate(119.000000, 731.000000)" fill="#2873FF">
                <path d="M12.1609915,10.5888581 C11.8914691,11.2559259 11.5090843,11.852244 11.0256287,12.3592829 C10.5438575,12.8713753 9.97786067,13.2756588 9.34616773,13.5603417 C8.6925761,13.8517627 8.00024064,14 7.28937553,14 C6.57682589,14 5.88449043,13.8517627 5.23089881,13.5586572 C4.59920587,13.2756588 4.03489351,12.8713753 3.55143785,12.3592829 C3.06461316,11.845506 2.68222837,11.2491878 2.41607508,10.5888581 C2.1398147,9.90494525 2,9.17723499 2,8.42594152 L2,1.08651185 C2,0.48682469 2.46324149,1.13686838e-13 3.0342919,1.13686838e-13 L11.5410901,1.13686838e-13 C12.1121405,1.13686838e-13 12.575382,0.48682469 12.5736975,1.08651185 L12.5736975,7.5634701 L12.5770665,7.86162917 L12.5770665,8.42594152 C12.5770665,9.17386596 12.4372518,9.90157622 12.1609915,10.5888581 L12.1609915,10.5888581 Z M5.64528938,12.5765852 L5.6486584,12.5765852 L5.66887258,12.5850078 C6.17928047,12.8174708 6.72337865,12.9353868 7.28769101,12.9353868 C7.84863434,12.9353868 8.39441704,12.8174708 8.90819396,12.5883768 C9.40681025,12.3643364 9.85826014,12.0409096 10.250752,11.6298881 C10.6449284,11.213813 10.9531946,10.7303574 11.1704969,10.1929972 C11.3962219,9.63373842 11.5107689,9.04078932 11.5107689,8.42594152 L11.5107689,7.96438455 L3.06461316,7.96438455 L3.06461316,7.96438455 L3.06461316,8.42762604 C3.06461316,9.03573577 3.17916015,9.63036939 3.40488509,10.1929972 C3.62387198,10.7354109 3.93382264,11.217182 4.32463001,11.6282036 C4.71206834,12.0358561 5.15509566,12.3559138 5.64528938,12.5765852 L5.64528938,12.5765852 Z M11.5141379,6.89977139 L11.5141379,1.08651185 C11.5141379,1.07640476 11.5124534,1.06966671 11.5107689,1.06461316 L3.06798219,1.06461316 C3.06629768,1.06966671 3.06461316,1.07640476 3.06461316,1.08651185 L3.06461316,6.89977139 L11.5141379,6.89977139 L11.5141379,6.89977139 Z M6.79581278,4.50270726 L6.79581278,3.10624474 C6.79581278,2.83335339 7.01816869,2.61099747 7.29106004,2.61099747 C7.56395139,2.61099747 7.7863073,2.83335339 7.7863073,3.10624474 L7.7863073,4.50607628 C8.04909157,4.67452773 8.20575141,4.95921068 8.20575141,5.2742149 C8.20575141,5.77956925 7.79472988,6.19059078 7.28937553,6.19059078 C6.78402118,6.19059078 6.37299964,5.77956925 6.37299964,5.2742149 C6.37299964,4.96257971 6.53471303,4.66947419 6.79581278,4.50270726 L6.79581278,4.50270726 Z" id="Shape" transform="translate(7.288533, 7.000000) scale(1, -1) translate(-7.288533, -7.000000) "></path>
            </g>
            <g id="icon/明细" transform="translate(157.000000, 731.000000)" fill="#2873FF">
                <path d="M14,7.17071009 C13.9953473,7.25756065 13.8619696,7.68716074 13.6758613,8.13382076 C13.4851003,8.59443891 13.1625125,9.26132713 12.7158524,9.81810125 C12.1311621,10.5501274 11.4099922,11.1348178 10.5725047,11.5535615 C9.54425612,12.0700122 8.34075551,12.3305639 6.99767365,12.3305639 C5.65614268,12.3305639 4.45264207,12.0684613 3.42439349,11.5520106 C2.59310956,11.1363687 1.87193974,10.5532292 1.28104575,9.81810125 C0.834385732,9.25977623 0.513348842,8.592888 0.322587792,8.13226986 C0.136479451,7.68560984 0.00465270854,7.25600975 0,7.16915919 L0,7.16915919 L0,7.16605738 L0,7.16295558 L0,7.16295558 C0.00465270854,7.07610502 0.138030353,6.64650493 0.324138695,6.19829401 C0.516450648,5.73767586 0.837487537,5.07078764 1.28259665,4.51556442 C1.86728703,3.78353827 2.58845685,3.1988479 3.42594439,2.78010413 C4.46039659,2.26210258 5.66234629,2 6.99922455,2 C8.33765371,2 9.53960341,2.26210258 10.5725047,2.78010413 C11.4068904,3.197297 12.1280603,3.78198737 12.7158524,4.51401352 C13.1625125,5.07078764 13.4851003,5.73767586 13.6758613,6.19829401 C13.8619696,6.64495403 13.9953473,7.07455412 14,7.16140467 L14,7.16140467 L14,7.16450648 C14,7.16760829 14,7.16915919 14,7.17071009 L14,7.17071009 Z M12.8492301,7.16760829 C12.7608286,6.89775119 12.4180791,5.9237842 11.8504487,5.2165725 L11.8426941,5.20881799 C11.3603634,4.60396588 10.7632658,4.12163509 10.0700122,3.77268195 C9.19375208,3.33377645 8.15774898,3.11044644 6.99302094,3.11044644 C5.826742,3.11044644 4.7922898,3.33377645 3.91602969,3.77268195 C3.22432702,4.11853329 2.62878033,4.60241498 2.14334773,5.21036889 C1.57261549,5.9206824 1.22831505,6.89775119 1.13991359,7.16915919 C1.22831505,7.43901628 1.57261549,8.41453418 2.14334773,9.12794948 C2.63033123,9.7359034 3.22742882,10.2182342 3.91758059,10.5640855 C4.7953916,11.002991 5.8313947,11.2247701 6.99767365,11.2247701 C8.1686053,11.2247701 9.20305749,11.002991 10.073114,10.5640855 C10.7648167,10.2182342 11.3603634,9.7343525 11.8457959,9.12639858 C12.4165282,8.41298327 12.7608286,7.43746538 12.8492301,7.16760829 Z M6.99767365,9.86773014 C5.51501052,9.86773014 4.30995901,8.66112773 4.30995901,7.18001551 C4.30995901,5.69890329 5.51656143,4.49230088 6.99767365,4.49230088 C8.47878586,4.49230088 9.68538828,5.69890329 9.68538828,7.18001551 C9.68538828,8.66112773 8.48033677,9.86773014 6.99767365,9.86773014 Z M8.57959455,7.18001551 C8.57959455,6.75816993 8.41519885,6.36113881 8.1158746,6.06181456 C7.81655035,5.76249031 7.41951922,5.59809461 6.99767365,5.59809461 C6.57582807,5.59809461 6.17879694,5.76249031 5.87947269,6.06181456 C5.58014844,6.36113881 5.41575274,6.75816993 5.41575274,7.18001551 C5.41575274,7.60186108 5.58014844,7.99889221 5.87947269,8.29821646 C6.17879694,8.59754071 6.57582807,8.76193641 6.99767365,8.76193641 C7.41951922,8.76193641 7.81655035,8.59754071 8.1158746,8.29821646 C8.41519885,7.99889221 8.57959455,7.60186108 8.57959455,7.18001551 Z" id="Shape" transform="translate(7.000000, 7.165282) scale(1, -1) translate(-7.000000, -7.165282) "></path>
            </g>
            <g id="icon/删除" transform="translate(195.000000, 732.000000)" fill="#F56C6C">
                <path d="M7.66330267,6.52826155 L12.832355,11.6932565 C13.1447703,12.0056718 13.1447703,12.5108107 12.832355,12.8211973 C12.5199398,13.1336126 12.0148008,13.1336126 11.7044142,12.8211973 L6.53333322,7.65823099 L1.36225222,12.823226 C1.04983696,13.1356412 0.544698019,13.1356412 0.234311438,12.823226 C-0.0781038128,12.5108107 -0.0781038128,12.0056718 0.234311438,11.6952852 L5.40336377,6.53029022 L0.234311438,1.36326655 C-0.0781038128,1.0508513 -0.0781038128,0.545712354 0.234311438,0.235325774 C0.390519064,0.079118148 0.595414781,0.00202867046 0.798281827,0.00202867046 C1.00317754,0.00202867046 1.20604459,0.079118148 1.36225222,0.235325774 L6.53333322,5.40032077 L11.7044142,0.233297103 C11.8606219,0.0770894775 12.0634889,-1.13686838e-13 12.2683846,-1.13686838e-13 C12.4732803,-1.13686838e-13 12.6761474,0.0770894775 12.832355,0.233297103 C13.1447703,0.545712354 13.1447703,1.0508513 12.832355,1.36123788 L7.66330267,6.52826155 Z" id="Shape" transform="translate(6.533333, 6.528769) scale(1, -1) translate(-6.533333, -6.528769) "></path>
            </g>
        </g>
        <g id="icon/概览" opacity="0.649999976" transform="translate(413.000000, 428.000000)" fill="#FFFFFF">
            <path d="M11.7535909,16.1590909 L16.3636364,16.1590909 L16.3636364,12.7374545 L11.7535909,12.7374545 L11.7535909,16.1590909 Z M11.2688182,17.7954545 C10.6339091,17.7954545 10.1172273,17.2816364 10.1172273,16.65 L10.1172273,12.2465455 C10.1172273,11.6151136 10.6339091,11.1010909 11.2688182,11.1010909 L16.8486136,11.1010909 C17.4835227,11.1010909 18,11.6151136 18,12.2465455 L18,16.6502045 C18,17.2816364 17.4835227,17.7954545 16.8488182,17.7954545 L11.2688182,17.7954545 Z M1.63636364,16.1590909 L6.24640909,16.1590909 L6.24640909,12.7374545 L1.63636364,12.7374545 L1.63636364,16.1590909 Z M6.73138636,17.7954545 L1.15138636,17.7954545 C0.516477273,17.7954545 0,17.2816364 0,16.65 L0,12.2465455 C0,11.6151136 0.516477273,11.1010909 1.15138636,11.1010909 L6.73118182,11.1010909 C7.36609091,11.1010909 7.88277273,11.6151136 7.88277273,12.2465455 L7.88277273,16.6502045 C7.88277273,17.2816364 7.36629545,17.7954545 6.73138636,17.7954545 L6.73138636,17.7954545 Z M11.7535909,7.30779545 L16.3636364,7.30779545 L16.3636364,3.88615909 L11.7535909,3.88615909 L11.7535909,7.30779545 Z M16.8488182,8.94415909 L11.2688182,8.94415909 C10.6339091,8.94415909 10.1172273,8.43034091 10.1172273,7.79870455 L10.1172273,3.39504545 C10.1172273,2.76361364 10.6337045,2.25 11.2682045,2.25 L16.8486136,2.25 C17.4835227,2.25 18,2.76381818 18,3.39545455 L18,7.79890909 C18,8.43054545 17.4835227,8.94415909 16.8488182,8.94415909 L16.8488182,8.94415909 Z M1.63636364,7.30779545 L6.24640909,7.30779545 L6.24640909,3.88615909 L1.63636364,3.88615909 L1.63636364,7.30779545 Z M6.73138636,8.94415909 L1.15138636,8.94415909 C0.516477273,8.94415909 0,8.43034091 0,7.79870455 L0,3.39504545 C0,2.76361364 0.516272727,2.25 1.15097727,2.25 L6.73118182,2.25 C7.36609091,2.25 7.88277273,2.76381818 7.88277273,3.39545455 L7.88277273,7.79890909 C7.88277273,8.43054545 7.36629545,8.94415909 6.73138636,8.94415909 L6.73138636,8.94415909 Z" id="view-thumb"></path>
        </g>
        <g id="icon/概览" transform="translate(413.000000, 640.000000)" fill="#FFFFFF">
            <path d="M11.7535909,16.1590909 L16.3636364,16.1590909 L16.3636364,12.7374545 L11.7535909,12.7374545 L11.7535909,16.1590909 Z M11.2688182,17.7954545 C10.6339091,17.7954545 10.1172273,17.2816364 10.1172273,16.65 L10.1172273,12.2465455 C10.1172273,11.6151136 10.6339091,11.1010909 11.2688182,11.1010909 L16.8486136,11.1010909 C17.4835227,11.1010909 18,11.6151136 18,12.2465455 L18,16.6502045 C18,17.2816364 17.4835227,17.7954545 16.8488182,17.7954545 L11.2688182,17.7954545 Z M1.63636364,16.1590909 L6.24640909,16.1590909 L6.24640909,12.7374545 L1.63636364,12.7374545 L1.63636364,16.1590909 Z M6.73138636,17.7954545 L1.15138636,17.7954545 C0.516477273,17.7954545 0,17.2816364 0,16.65 L0,12.2465455 C0,11.6151136 0.516477273,11.1010909 1.15138636,11.1010909 L6.73118182,11.1010909 C7.36609091,11.1010909 7.88277273,11.6151136 7.88277273,12.2465455 L7.88277273,16.6502045 C7.88277273,17.2816364 7.36629545,17.7954545 6.73138636,17.7954545 L6.73138636,17.7954545 Z M11.7535909,7.30779545 L16.3636364,7.30779545 L16.3636364,3.88615909 L11.7535909,3.88615909 L11.7535909,7.30779545 Z M16.8488182,8.94415909 L11.2688182,8.94415909 C10.6339091,8.94415909 10.1172273,8.43034091 10.1172273,7.79870455 L10.1172273,3.39504545 C10.1172273,2.76361364 10.6337045,2.25 11.2682045,2.25 L16.8486136,2.25 C17.4835227,2.25 18,2.76381818 18,3.39545455 L18,7.79890909 C18,8.43054545 17.4835227,8.94415909 16.8488182,8.94415909 L16.8488182,8.94415909 Z M1.63636364,7.30779545 L6.24640909,7.30779545 L6.24640909,3.88615909 L1.63636364,3.88615909 L1.63636364,7.30779545 Z M6.73138636,8.94415909 L1.15138636,8.94415909 C0.516477273,8.94415909 0,8.43034091 0,7.79870455 L0,3.39504545 C0,2.76361364 0.516272727,2.25 1.15097727,2.25 L6.73118182,2.25 C7.36609091,2.25 7.88277273,2.76381818 7.88277273,3.39545455 L7.88277273,7.79890909 C7.88277273,8.43054545 7.36629545,8.94415909 6.73138636,8.94415909 L6.73138636,8.94415909 Z" id="view-thumb"></path>
        </g>
        <g id="icon/广告管理" transform="translate(413.000000, 482.000000)" fill="#FFFFFF">
            <path d="M6.69052174,12.6521739 L11.309087,12.6521739 C11.7412826,12.6521739 12.0916957,12.3017609 12.0916957,11.8695652 C12.0916957,11.4373696 11.7412826,11.0869565 11.309087,11.0869565 L6.69052174,11.0869565 C6.25832609,11.0869565 5.90791304,11.4373696 5.90791304,11.8695652 C5.90791304,12.3017609 6.25832609,12.6521739 6.69052174,12.6521739 L6.69052174,12.6521739 Z M16.1894348,8.73913043 L1.80586957,8.73913043 L3.84906522,16.173913 L8.99980435,16.173913 L14.1116087,16.173913 L16.1894348,8.73913043 Z M18,5.72843478 L18,7.86065217 L18,7.86221739 L18,7.8626087 L18,7.86378261 C18,7.86397826 17.9998043,7.86397826 17.9998043,7.86397826 C17.999413,7.94126087 17.9880652,8.01580435 17.9669348,8.08623913 L15.462,17.1646957 C15.3682826,17.5039565 15.0595435,17.7391304 14.7075652,17.7391304 L3.25056522,17.7391304 C2.89721739,17.7391304 2.58769565,17.5023913 2.49515217,17.1613696 L0.0320869565,8.08291304 C0.0205434783,8.04436957 0.0119347826,8.00445652 0.00665217391,7.96376087 C0.00136956522,7.92326087 0,7.88276087 0,7.84284783 L0,5.72843478 C0,5.29623913 0.350413043,4.94582609 0.782608696,4.94582609 C1.21480435,4.94582609 1.56521739,5.29623913 1.56521739,5.72843478 L1.56521739,7.17391304 L16.4347826,7.17391304 L16.4347826,5.72843478 C16.4347826,5.29623913 16.7851957,4.94582609 17.2173913,4.94582609 C17.649587,4.94582609 18,5.29623913 18,5.72843478 L18,5.72843478 Z M5.14702174,2.86956522 L12.852587,2.86956522 C13.2307826,2.86956522 13.5373696,2.56297826 13.5373696,2.18478261 C13.5373696,1.80658696 13.2307826,1.5 12.852587,1.5 L5.14702174,1.5 C4.76882609,1.5 4.46223913,1.80658696 4.46223913,2.18478261 C4.46223913,2.56297826 4.76882609,2.86956522 5.14702174,2.86956522 L5.14702174,2.86956522 Z M3.08054348,4.82608696 C3.08054348,4.3938913 3.43115217,4.04347826 3.86315217,4.04347826 L14.1364565,4.04347826 C14.5686522,4.04347826 14.9190652,4.3938913 14.9190652,4.82608696 C14.9190652,5.25828261 14.5686522,5.60869565 14.1364565,5.60869565 L3.86315217,5.60869565 C3.43115217,5.60869565 3.08054348,5.25828261 3.08054348,4.82608696 L3.08054348,4.82608696 Z" id="archive"></path>
        </g>
        <g id="icon/报表" transform="translate(413.000000, 533.000000)" fill="#FFFFFF">
            <path d="M2.83108696,10.742087 C3.24176087,13.940413 6.12234783,16.4261739 9.60358696,16.4261739 C13.365587,16.4261739 16.4261739,13.3653913 16.4261739,9.6033913 C16.4261739,6.18534783 13.8952174,3.25741304 10.7422826,2.83363043 L10.7422826,9.95517391 C10.7422826,10.3897174 10.389913,10.742087 9.95536957,10.742087 L2.83108696,10.742087 Z M9.60358696,18 C4.97386957,18 1.20717391,14.391 1.20717391,9.95517391 C1.20717391,9.52063043 1.55954348,9.16826087 1.99408696,9.16826087 L9.16845652,9.16826087 L9.16845652,1.9938913 C9.16845652,1.55934783 9.52082609,1.20697826 9.95536957,1.20697826 C14.3160652,1.20697826 18,5.05213043 18,9.6033913 C18,14.2333043 14.2333043,18 9.60358696,18 L9.60358696,18 Z M1.4223913,5.89480435 L5.895,5.89480435 L5.895,1.4223913 C3.57378261,1.73034783 1.73034783,3.57358696 1.4223913,5.89480435 L1.4223913,5.89480435 Z M6.5835,7.27180435 L0.6885,7.27180435 C0.308152174,7.27180435 0,6.96365217 0,6.58330435 C0,2.95317391 2.95336957,0 6.5835,0 C6.96384783,0 7.272,0.308152174 7.272,0.6885 L7.272,6.58330435 C7.272,6.96365217 6.96384783,7.27180435 6.5835,7.27180435 L6.5835,7.27180435 Z" id="graph-pie"></path>
        </g>
        <g id="icon/工具箱" transform="translate(413.000000, 587.000000)" fill="#FFFFFF">
            <path d="M1.56521739,16.3369565 L1.56521739,12.2282609 L7.04347826,12.2282609 L7.04347826,12.4217609 C7.04347826,12.7459565 7.35730435,13.0108696 7.68130435,13.0108696 L10.3186957,13.0108696 C10.6426957,13.0108696 10.9565217,12.7459565 10.9565217,12.4217609 L10.9565217,12.2282609 L16.4320435,12.2282609 L16.430087,16.3369565 L1.56521739,16.3369565 Z M8.2173913,11.8369565 L9.7826087,11.8369565 L9.7826087,11.4456522 L8.2173913,11.4456522 L8.2173913,11.8369565 Z M16.4343913,6.94565217 L16.4324348,11.0543478 L10.9565217,11.0543478 L10.9565217,10.7704565 C10.9565217,10.4464565 10.6426957,10.2717391 10.3186957,10.2717391 L7.68130435,10.2717391 C7.35730435,10.2717391 7.04347826,10.4464565 7.04347826,10.7704565 L7.04347826,11.0543478 L1.56521739,11.0543478 L1.56521739,6.94565217 L16.4343913,6.94565217 Z M6.45652174,5.38043478 L11.5434783,5.38043478 L11.5434783,3.81521739 L6.45652174,3.81521739 L6.45652174,5.38043478 Z M17.7708913,5.56473913 C17.6241522,5.41780435 17.4249783,5.38043478 17.2173913,5.38043478 L13.1086957,5.38043478 L13.1086957,3.0326087 C13.1086957,2.60041304 12.7201304,2.25 12.2879348,2.25 L5.71206522,2.25 C5.27986957,2.25 4.89130435,2.60041304 4.89130435,3.0326087 L4.89130435,5.38043478 L0.782608696,5.38043478 C0.350413043,5.38043478 0,5.64065217 0,6.07284783 L0,17.1195652 C0,17.5517609 0.350413043,17.9021739 0.782608696,17.9021739 L17.2123043,17.9021739 C17.6443043,17.9021739 17.9947174,17.5519565 17.994913,17.1199565 L18,6.09573913 C18,5.88815217 17.9176304,5.71147826 17.7708913,5.56473913 L17.7708913,5.56473913 Z" id="briefcase"></path>
        </g>
        <path d="M430.162791,463.075176 L422.755814,463.075176 L422.755814,469.79232 C422.755814,470.222823 422.381395,470.57112 421.918605,470.57112 L421.918605,470.57112 C421.455814,470.57112 421.081395,470.222823 421.081395,469.79232 L421.081395,463.075176 L413.837209,463.075176 C413.374419,463.075176 413,462.726879 413,462.296376 L413,462.296376 C413,461.865873 413.374419,461.517577 413.837209,461.517577 L421.081395,461.517577 L421.081395,454.778799 C421.081395,454.348296 421.455814,454 421.918605,454 L421.918605,454 C422.381395,454 422.755814,454.348296 422.755814,454.778799 L422.755814,461.517577 L430.162791,461.517577 C430.625581,461.517577 431,461.865873 431,462.296376 L431,462.296376 C431,462.726879 430.625581,463.075176 430.162791,463.075176 L430.162791,463.075176 Z" id="Shape" fill="#FFFFFF" transform="translate(422.000000, 462.285560) scale(1, -1) translate(-422.000000, -462.285560) "></path>
        <g id="icon/新建广告导航" transform="translate(524.000000, 160.000000)" fill="#E8E8E8">
            <g id="导航条">
                <rect id="Rectangle" transform="translate(2.500000, 50.000000) scale(-1, 1) translate(-2.500000, -50.000000) " x="2" y="7" width="1" height="86"></rect>
                <rect id="Rectangle-Copy" transform="translate(2.500000, 193.500000) scale(-1, 1) translate(-2.500000, -193.500000) " x="2" y="102" width="1" height="183"></rect>
                <circle id="Oval" cx="2.5" cy="2.5" r="2.5"></circle>
                <circle id="Oval-Copy" cx="2.5" cy="97.5" r="2.5"></circle>
                <circle id="Oval-Copy-2" cx="2.5" cy="289.5" r="2.5"></circle>
            </g>
        </g>
        <g id="icon/菜单栏/新建广告" transform="translate(293.000000, 380.000000)" fill="#FFFFFF">
            <path d="M17.1627907,9.07517577 L9.75581395,9.07517577 L9.75581395,15.7923202 C9.75581395,16.2228231 9.38139535,16.5711195 8.91860465,16.5711195 L8.91860465,16.5711195 C8.45581395,16.5711195 8.08139535,16.2228231 8.08139535,15.7923202 L8.08139535,9.07517577 L0.837209302,9.07517577 C0.374418605,9.07517577 0,8.72687939 0,8.29637642 L0,8.29637642 C0,7.86587345 0.374418605,7.51757707 0.837209302,7.51757707 L8.08139535,7.51757707 L8.08139535,0.778799351 C8.08139535,0.348296376 8.45581395,0 8.91860465,0 L8.91860465,0 C9.38139535,0 9.75581395,0.348296376 9.75581395,0.778799351 L9.75581395,7.51757707 L17.1627907,7.51757707 C17.6255814,7.51757707 18,7.86587345 18,8.29637642 L18,8.29637642 C18,8.72687939 17.6255814,9.07517577 17.1627907,9.07517577 L17.1627907,9.07517577 Z" id="Shape" transform="translate(9.000000, 8.285560) scale(1, -1) translate(-9.000000, -8.285560) "></path>
        </g>
        <g id="icon/概览" transform="translate(93.000000, 378.000000)" fill="#FFFFFF">
            <path d="M11.7535909,16.1590909 L16.3636364,16.1590909 L16.3636364,12.7374545 L11.7535909,12.7374545 L11.7535909,16.1590909 Z M11.2688182,17.7954545 C10.6339091,17.7954545 10.1172273,17.2816364 10.1172273,16.65 L10.1172273,12.2465455 C10.1172273,11.6151136 10.6339091,11.1010909 11.2688182,11.1010909 L16.8486136,11.1010909 C17.4835227,11.1010909 18,11.6151136 18,12.2465455 L18,16.6502045 C18,17.2816364 17.4835227,17.7954545 16.8488182,17.7954545 L11.2688182,17.7954545 Z M1.63636364,16.1590909 L6.24640909,16.1590909 L6.24640909,12.7374545 L1.63636364,12.7374545 L1.63636364,16.1590909 Z M6.73138636,17.7954545 L1.15138636,17.7954545 C0.516477273,17.7954545 0,17.2816364 0,16.65 L0,12.2465455 C0,11.6151136 0.516477273,11.1010909 1.15138636,11.1010909 L6.73118182,11.1010909 C7.36609091,11.1010909 7.88277273,11.6151136 7.88277273,12.2465455 L7.88277273,16.6502045 C7.88277273,17.2816364 7.36629545,17.7954545 6.73138636,17.7954545 L6.73138636,17.7954545 Z M11.7535909,7.30779545 L16.3636364,7.30779545 L16.3636364,3.88615909 L11.7535909,3.88615909 L11.7535909,7.30779545 Z M16.8488182,8.94415909 L11.2688182,8.94415909 C10.6339091,8.94415909 10.1172273,8.43034091 10.1172273,7.79870455 L10.1172273,3.39504545 C10.1172273,2.76361364 10.6337045,2.25 11.2682045,2.25 L16.8486136,2.25 C17.4835227,2.25 18,2.76381818 18,3.39545455 L18,7.79890909 C18,8.43054545 17.4835227,8.94415909 16.8488182,8.94415909 L16.8488182,8.94415909 Z M1.63636364,7.30779545 L6.24640909,7.30779545 L6.24640909,3.88615909 L1.63636364,3.88615909 L1.63636364,7.30779545 Z M6.73138636,8.94415909 L1.15138636,8.94415909 C0.516477273,8.94415909 0,8.43034091 0,7.79870455 L0,3.39504545 C0,2.76361364 0.516272727,2.25 1.15097727,2.25 L6.73118182,2.25 C7.36609091,2.25 7.88277273,2.76381818 7.88277273,3.39545455 L7.88277273,7.79890909 C7.88277273,8.43054545 7.36629545,8.94415909 6.73138636,8.94415909 L6.73138636,8.94415909 Z" id="view-thumb"></path>
        </g>
        <g id="icon/广告管理" transform="translate(143.000000, 378.000000)" fill="#FFFFFF">
            <path d="M6.69052174,12.6521739 L11.309087,12.6521739 C11.7412826,12.6521739 12.0916957,12.3017609 12.0916957,11.8695652 C12.0916957,11.4373696 11.7412826,11.0869565 11.309087,11.0869565 L6.69052174,11.0869565 C6.25832609,11.0869565 5.90791304,11.4373696 5.90791304,11.8695652 C5.90791304,12.3017609 6.25832609,12.6521739 6.69052174,12.6521739 L6.69052174,12.6521739 Z M16.1894348,8.73913043 L1.80586957,8.73913043 L3.84906522,16.173913 L8.99980435,16.173913 L14.1116087,16.173913 L16.1894348,8.73913043 Z M18,5.72843478 L18,7.86065217 L18,7.86221739 L18,7.8626087 L18,7.86378261 C18,7.86397826 17.9998043,7.86397826 17.9998043,7.86397826 C17.999413,7.94126087 17.9880652,8.01580435 17.9669348,8.08623913 L15.462,17.1646957 C15.3682826,17.5039565 15.0595435,17.7391304 14.7075652,17.7391304 L3.25056522,17.7391304 C2.89721739,17.7391304 2.58769565,17.5023913 2.49515217,17.1613696 L0.0320869565,8.08291304 C0.0205434783,8.04436957 0.0119347826,8.00445652 0.00665217391,7.96376087 C0.00136956522,7.92326087 0,7.88276087 0,7.84284783 L0,5.72843478 C0,5.29623913 0.350413043,4.94582609 0.782608696,4.94582609 C1.21480435,4.94582609 1.56521739,5.29623913 1.56521739,5.72843478 L1.56521739,7.17391304 L16.4347826,7.17391304 L16.4347826,5.72843478 C16.4347826,5.29623913 16.7851957,4.94582609 17.2173913,4.94582609 C17.649587,4.94582609 18,5.29623913 18,5.72843478 L18,5.72843478 Z M5.14702174,2.86956522 L12.852587,2.86956522 C13.2307826,2.86956522 13.5373696,2.56297826 13.5373696,2.18478261 C13.5373696,1.80658696 13.2307826,1.5 12.852587,1.5 L5.14702174,1.5 C4.76882609,1.5 4.46223913,1.80658696 4.46223913,2.18478261 C4.46223913,2.56297826 4.76882609,2.86956522 5.14702174,2.86956522 L5.14702174,2.86956522 Z M3.08054348,4.82608696 C3.08054348,4.3938913 3.43115217,4.04347826 3.86315217,4.04347826 L14.1364565,4.04347826 C14.5686522,4.04347826 14.9190652,4.3938913 14.9190652,4.82608696 C14.9190652,5.25828261 14.5686522,5.60869565 14.1364565,5.60869565 L3.86315217,5.60869565 C3.43115217,5.60869565 3.08054348,5.25828261 3.08054348,4.82608696 L3.08054348,4.82608696 Z" id="archive"></path>
        </g>
        <g id="icon/报表" transform="translate(193.000000, 378.000000)" fill="#FFFFFF">
            <path d="M2.83108696,10.742087 C3.24176087,13.940413 6.12234783,16.4261739 9.60358696,16.4261739 C13.365587,16.4261739 16.4261739,13.3653913 16.4261739,9.6033913 C16.4261739,6.18534783 13.8952174,3.25741304 10.7422826,2.83363043 L10.7422826,9.95517391 C10.7422826,10.3897174 10.389913,10.742087 9.95536957,10.742087 L2.83108696,10.742087 Z M9.60358696,18 C4.97386957,18 1.20717391,14.391 1.20717391,9.95517391 C1.20717391,9.52063043 1.55954348,9.16826087 1.99408696,9.16826087 L9.16845652,9.16826087 L9.16845652,1.9938913 C9.16845652,1.55934783 9.52082609,1.20697826 9.95536957,1.20697826 C14.3160652,1.20697826 18,5.05213043 18,9.6033913 C18,14.2333043 14.2333043,18 9.60358696,18 L9.60358696,18 Z M1.4223913,5.89480435 L5.895,5.89480435 L5.895,1.4223913 C3.57378261,1.73034783 1.73034783,3.57358696 1.4223913,5.89480435 L1.4223913,5.89480435 Z M6.5835,7.27180435 L0.6885,7.27180435 C0.308152174,7.27180435 0,6.96365217 0,6.58330435 C0,2.95317391 2.95336957,0 6.5835,0 C6.96384783,0 7.272,0.308152174 7.272,0.6885 L7.272,6.58330435 C7.272,6.96365217 6.96384783,7.27180435 6.5835,7.27180435 L6.5835,7.27180435 Z" id="graph-pie"></path>
        </g>
        <g id="icon/工具箱" transform="translate(243.000000, 378.000000)" fill="#FFFFFF">
            <path d="M1.56521739,16.3369565 L1.56521739,12.2282609 L7.04347826,12.2282609 L7.04347826,12.4217609 C7.04347826,12.7459565 7.35730435,13.0108696 7.68130435,13.0108696 L10.3186957,13.0108696 C10.6426957,13.0108696 10.9565217,12.7459565 10.9565217,12.4217609 L10.9565217,12.2282609 L16.4320435,12.2282609 L16.430087,16.3369565 L1.56521739,16.3369565 Z M8.2173913,11.8369565 L9.7826087,11.8369565 L9.7826087,11.4456522 L8.2173913,11.4456522 L8.2173913,11.8369565 Z M16.4343913,6.94565217 L16.4324348,11.0543478 L10.9565217,11.0543478 L10.9565217,10.7704565 C10.9565217,10.4464565 10.6426957,10.2717391 10.3186957,10.2717391 L7.68130435,10.2717391 C7.35730435,10.2717391 7.04347826,10.4464565 7.04347826,10.7704565 L7.04347826,11.0543478 L1.56521739,11.0543478 L1.56521739,6.94565217 L16.4343913,6.94565217 Z M6.45652174,5.38043478 L11.5434783,5.38043478 L11.5434783,3.81521739 L6.45652174,3.81521739 L6.45652174,5.38043478 Z M17.7708913,5.56473913 C17.6241522,5.41780435 17.4249783,5.38043478 17.2173913,5.38043478 L13.1086957,5.38043478 L13.1086957,3.0326087 C13.1086957,2.60041304 12.7201304,2.25 12.2879348,2.25 L5.71206522,2.25 C5.27986957,2.25 4.89130435,2.60041304 4.89130435,3.0326087 L4.89130435,5.38043478 L0.782608696,5.38043478 C0.350413043,5.38043478 0,5.64065217 0,6.07284783 L0,17.1195652 C0,17.5517609 0.350413043,17.9021739 0.782608696,17.9021739 L17.2123043,17.9021739 C17.6443043,17.9021739 17.9947174,17.5519565 17.994913,17.1199565 L18,6.09573913 C18,5.88815217 17.9176304,5.71147826 17.7708913,5.56473913 L17.7708913,5.56473913 Z" id="briefcase"></path>
        </g>
        <g id="账号管理" transform="translate(75.000000, 268.000000)">
            <ellipse id="Oval-2" fill="#FAAD14" cx="30" cy="29.8136646" rx="30" ry="29.8136646"></ellipse>
            <g id="icon/现金账户" transform="translate(14.000000, 14.000000)" stroke-width="1">
                <g id="Page-1" transform="translate(2.000000, 1.000000)">
                    <path d="M28.0988,16.5222 C28.0988,23.4252 22.5018,29.0222 15.5988,29.0222 C8.6958,29.0222 3.0988,23.4252 3.0988,16.5222 C3.0988,9.6192 8.6958,4.0222 15.5988,4.0222 C22.5018,4.0222 28.0988,9.6192 28.0988,16.5222" id="Fill-1" fill="#FFF1B8"></path>
                    <g id="Group-5" transform="translate(0.000000, 0.022200)">
                        <mask id="mask-10" fill="white">
                            <use xlink:href="#path-9"></use>
                        </mask>
                        <g id="Clip-4"></g>
                        <path d="M13.0002,0.9775 C5.8202,0.9775 0.0002,6.7975 0.0002,13.9775 C0.0002,21.1575 5.8202,26.9775 13.0002,26.9775 C20.1802,26.9775 26.0002,21.1575 26.0002,13.9775 C26.0002,6.7975 20.1802,0.9775 13.0002,0.9775 M13.0002,2.9775 C19.0652,2.9775 24.0002,7.9125 24.0002,13.9775 C24.0002,20.0425 19.0652,24.9775 13.0002,24.9775 C6.9352,24.9775 2.0002,20.0425 2.0002,13.9775 C2.0002,7.9125 6.9352,2.9775 13.0002,2.9775" id="Fill-3" fill="#FAAD14" mask="url(#mask-10)"></path>
                    </g>
                    <path d="M8.0241,12.8943 L17.9761,12.8943" id="Stroke-6" stroke="#FAAD14" stroke-width="2" stroke-linecap="round"></path>
                    <path d="M8.0241,17.3171 L17.9761,17.3171" id="Stroke-8" stroke="#FAAD14" stroke-width="2" stroke-linecap="round"></path>
                    <path d="M13.0002,12.8943 L13.0002,21.7403" id="Stroke-10" stroke="#FAAD14" stroke-width="2" stroke-linecap="round"></path>
                    <polyline id="Stroke-12" stroke="#FAAD14" stroke-width="2" stroke-linecap="round" points="9.2736 7.3659 13.0006 12.8939 16.7266 7.3659"></polyline>
                </g>
            </g>
        </g>
        <g id="客户管理" transform="translate(159.000000, 268.000000)">
            <circle id="Oval-2" fill="#10CFDD" fill-rule="evenodd" cx="30" cy="30" r="30"></circle>
            <text id="c" font-family="MicrosoftYaHei-Bold, Microsoft YaHei" font-size="56" font-weight="bold" fill-opacity="0.85" fill="#FFFFFF">
                <tspan x="16" y="45">c</tspan>
            </text>
        </g>
        <g id="icon/财务信息" transform="translate(75.000000, 439.000000)" fill-opacity="0.65" fill="#000000">
            <g id="Page-1">
                <path d="M13,0 C5.82,0 0,5.82 0,13 C0,20.18 5.82,26 13,26 C20.18,26 26,20.18 26,13 C26,5.82 20.18,0 13,0 M13,2 C19.065,2 24,6.935 24,13 C24,19.065 19.065,24 13,24 C6.935,24 2,19.065 2,13 C2,6.935 6.935,2 13,2" id="Fill-1"></path>
                <path d="M17.9761,15.3174 L14.0001,15.3174 L14.0001,12.8944 L17.9761,12.8944 C18.5281,12.8944 18.9761,12.4474 18.9761,11.8944 C18.9761,11.3414 18.5281,10.8944 17.9761,10.8944 L14.8801,10.8944 L17.5561,6.9234 C17.8641,6.4654 17.7441,5.8444 17.2861,5.5364 C16.8281,5.2284 16.2061,5.3474 15.8971,5.8064 L13.0001,10.1054 L10.1021,5.8064 C9.7931,5.3474 9.1721,5.2284 8.7141,5.5364 C8.2561,5.8444 8.1361,6.4654 8.4441,6.9234 L11.1201,10.8944 L8.0241,10.8944 C7.4721,10.8944 7.0241,11.3414 7.0241,11.8944 C7.0241,12.4474 7.4721,12.8944 8.0241,12.8944 L12.0001,12.8944 L12.0001,15.3174 L8.0241,15.3174 C7.4721,15.3174 7.0241,15.7644 7.0241,16.3174 C7.0241,16.8704 7.4721,17.3174 8.0241,17.3174 L12.0001,17.3174 L12.0001,20.7404 C12.0001,21.2934 12.4481,21.7404 13.0001,21.7404 C13.5521,21.7404 14.0001,21.2934 14.0001,20.7404 L14.0001,17.3174 L17.9761,17.3174 C18.5281,17.3174 18.9761,16.8704 18.9761,16.3174 C18.9761,15.7644 18.5281,15.3174 17.9761,15.3174" id="Fill-3"></path>
            </g>
        </g>
        <g id="icon/帮助信息" transform="translate(125.000000, 439.000000)" fill-opacity="0.65" fill="#000000">
            <path d="M13,24 C14.485,24 15.925,23.71 17.28,23.1375 C18.59,22.5825 19.765,21.79 20.7775,20.78 C21.7875,19.77 22.5825,18.5925 23.135,17.2825 C23.71,15.925 24,14.485 24,13 C24,11.515 23.71,10.075 23.1375,8.72 C22.5825,7.41 21.79,6.235 20.78,5.2225 C19.77,4.2125 18.5925,3.4175 17.2825,2.865 C15.925,2.29 14.485,2 13,2 C11.515,2 10.075,2.29 8.72,2.8625 C7.41,3.4175 6.235,4.21 5.2225,5.22 C4.2125,6.23 3.4175,7.4075 2.865,8.7175 C2.29,10.075 2,11.515 2,13 C2,14.485 2.29,15.925 2.8625,17.28 C3.4175,18.59 4.21,19.765 5.22,20.7775 C6.23,21.7875 7.4075,22.5825 8.7175,23.135 C10.075,23.71 11.515,24 13,24 L13,24 Z M13,26 C5.81953125,26 0,20.1804687 0,13 C0,5.81953125 5.81953125,0 13,0 C20.1804687,0 26,5.81953125 26,13 C26,20.1804687 20.1804687,26 13,26 L13,26 L13,26 Z M13,10 C12.4475,10 12,10.4385301 12,10.9799555 L12,20.0200445 C12,20.5614699 12.4475,21 13,21 C13.5525,21 14,20.5614699 14,20.0200445 L14,10.9799555 C14,10.4385301 13.5525,10 13,10 L13,10 Z M12,7 C12,7.55228475 12.4477153,8 13,8 C13.5522847,8 14,7.55228475 14,7 C14,6.44771525 13.5522847,6 13,6 C12.4477153,6 12,6.44771525 12,7 L12,7 Z" id="Shape" transform="translate(13.000000, 13.000000) scale(1, -1) translate(-13.000000, -13.000000) "></path>
        </g>
        <g id="icon/计划" transform="translate(75.000000, 508.000000)">
            <g id="Page-1" transform="translate(3.000000, 1.500000)">
                <path d="M18,6.97995 L18,18.8817 C18,19.6377 17.3025,20.2497 16.44225,20.2497 L4.83,20.2497 C3.96975,20.2497 3.273,19.6377 3.273,18.8817 L3.273,4.36845 C3.273,3.61245 3.96975,2.9997 4.83,2.9997 L13.521,2.9997 C13.93875,2.9997 14.33925,3.14745 14.63175,3.4092 L17.55375,6.02145 C17.8395,6.2772 18,6.6207 18,6.97995" id="Fill-1" fill="#CCE5FF"></path>
                <g id="Group-5">
                    <mask id="mask-12" fill="white">
                        <use xlink:href="#path-11"></use>
                    </mask>
                    <g id="Clip-4"></g>
                    <path d="M11.4822,0 L1.74495,0 C0.7812,0 -0.0003,0.666 -0.0003,1.4865 L-0.0003,17.2635 C-0.0003,18.084 0.7812,18.75 1.74495,18.75 L14.7552,18.75 C15.71895,18.75 16.4997,18.084 16.4997,17.2635 L16.4997,4.326 C16.4997,3.936 16.32045,3.56175 15.99945,3.2835 L12.72645,0.44475 C12.3987,0.1605 11.9502,0 11.4822,0 M11.4822,1.5 C11.6007,1.5 11.69895,1.539 11.74395,1.578 L14.9997,4.40325 L14.9997,17.18475 C14.9607,17.21175 14.8797,17.25 14.7552,17.25 L1.74495,17.25 C1.62045,17.25 1.53945,17.21175 1.4997,17.18475 L1.4997,1.56525 C1.53945,1.53825 1.62045,1.5 1.74495,1.5 L11.4822,1.5" id="Fill-3" fill="#2873FF" mask="url(#mask-12)"></path>
                </g>
                <path d="M3.8181,7.596675 L10.3641,7.596675" id="Stroke-6" stroke="#2873FF" stroke-width="2" stroke-linecap="round"></path>
                <path d="M3.8181,10.972425 L12.8181,10.972425" id="Stroke-8" stroke="#2873FF" stroke-width="2" stroke-linecap="round"></path>
                <path d="M3.8181,14.34885 L10.3641,14.34885" id="Stroke-10" stroke="#2873FF" stroke-width="2" stroke-linecap="round"></path>
                <path d="M10.3638,0.84375 L10.3638,3.3765 C10.3638,4.30875 11.09655,5.06475 12.0003,5.06475 L15.27255,5.06475" id="Stroke-12" stroke="#2873FF" stroke-width="2"></path>
            </g>
        </g>
        <g id="icon/组" transform="translate(123.000000, 508.000000)">
            <g id="Page-1" transform="translate(1.500000, 2.250000)">
                <path d="M19.519425,4.0386 L10.782675,4.0386 L10.266675,2.61435 C10.041675,1.99335 9.497175,1.5861 8.891925,1.5861 L4.711425,1.5861 C3.893925,1.5861 3.230925,2.3181 3.230925,3.2211 L3.230925,4.0386 L3.230925,5.6736 L3.230925,17.1156 C3.230925,18.0186 3.893925,18.74985 4.711425,18.74985 L19.519425,18.74985 C20.336925,18.74985 20.999925,18.0186 20.999925,17.1156 L20.999925,5.6736 C20.999925,4.7706 20.336925,4.0386 19.519425,4.0386" id="Fill-1" fill="#CCE5FF"></path>
                <path d="M17.88465,2.596425 L0.00015,2.596425 L0.00015,15.749925 C0.00015,16.578675 0.6714,17.249925 1.50015,17.249925 L17.88465,17.249925 C18.71265,17.249925 19.38465,16.578675 19.38465,15.749925 L19.38465,4.096425 C19.38465,3.268425 18.71265,2.596425 17.88465,2.596425 L17.88465,2.596425 Z M1.50015,15.749925 L17.88465,15.749925 L17.88465,4.096425 L1.50015,4.096425 L1.50015,15.749925 Z" id="Fill-3" fill="#2873FF"></path>
                <g id="Group-7">
                    <mask id="mask-14" fill="white">
                        <use xlink:href="#path-13"></use>
                    </mask>
                    <g id="Clip-6"></g>
                    <path d="M6.175425,0 L1.615425,0 C0.722925,0 -7.5e-05,0.672 -7.5e-05,1.5 L-7.5e-05,3.75 L8.884425,3.75 L7.675425,0.94275 C7.430175,0.3735 6.836175,0 6.175425,0 M6.175425,1.5 C6.252675,1.5 6.294675,1.5345 6.297675,1.53675 L6.605175,2.25 L1.499925,2.25 L1.499925,1.53375 C1.516425,1.52025 1.552425,1.5 1.615425,1.5 L6.175425,1.5" id="Fill-5" fill="#2873FF"></path>
                </g>
            </g>
        </g>
        <g id="icon/素材" transform="translate(171.000000, 508.000000)">
            <g id="Page-1" transform="translate(1.500000, 2.250000)">
                <g id="Group-3" transform="translate(3.000000, 3.000000)">
                    <mask id="mask-16" fill="white">
                        <use xlink:href="#path-15"></use>
                    </mask>
                    <g id="Clip-2"></g>
                    <path d="M16.39185,15.75 L1.5606,15.75 C0.7416,15.75 0.07785,15.018 0.07785,14.115 L0.07785,9.4845 L0.07785,2.13 C0.07785,1.227 0.7416,0.495 1.5606,0.495 L16.39185,0.495 C17.21085,0.495 17.87535,1.227 17.87535,2.13 L17.87535,14.115 C17.87535,15.018 17.21085,15.75 16.39185,15.75" id="Fill-1" fill="#CCE5FF" mask="url(#mask-16)"></path>
                </g>
                <path d="M17.663325,0 L1.605825,0 C0.718575,0 7.5e-05,0.828 7.5e-05,1.848 L7.5e-05,10.1655 L7.5e-05,15.402 C7.5e-05,16.422 0.718575,17.25 1.605825,17.25 L17.663325,17.25 C18.550575,17.25 19.269075,16.422 19.269075,15.402 L19.269075,1.848 C19.269075,0.828 18.550575,0 17.663325,0 M17.641575,1.5 C17.682075,1.5315 17.769075,1.65075 17.769075,1.848 L17.769075,15.402 C17.769075,15.61575 17.667075,15.738 17.663325,15.75 L1.637325,15.756 C1.602075,15.738 1.500075,15.61575 1.500075,15.402 L1.500075,10.1655 L1.500075,1.848 C1.500075,1.63425 1.602075,1.512 1.605825,1.5 L17.641575,1.5" id="Fill-4" fill="#2873FF"></path>
                <polyline id="Stroke-6" stroke="#2873FF" stroke-width="2" points="0.80295 12.66135 4.8177 7.0416 10.43745 12.66135 14.4522 9.44985 18.4662 12.66135"></polyline>
                <path d="M16.057875,5.435325 C16.057875,6.322575 15.338625,7.041825 14.452125,7.041825 C13.564875,7.041825 12.846375,6.322575 12.846375,5.435325 C12.846375,4.548075 13.564875,3.829575 14.452125,3.829575 C15.338625,3.829575 16.057875,4.548075 16.057875,5.435325" id="Fill-8" fill="#2873FF"></path>
            </g>
        </g>
        <g id="icon/现金账户" transform="translate(252.000000, 181.000000)">
            <g id="Page-1" transform="translate(1.125000, 0.562500)">
                <path d="M15.805575,9.2937375 C15.805575,13.176675 12.6572625,16.3249875 8.774325,16.3249875 C4.8913875,16.3249875 1.743075,13.176675 1.743075,9.2937375 C1.743075,5.4108 4.8913875,2.2624875 8.774325,2.2624875 C12.6572625,2.2624875 15.805575,5.4108 15.805575,9.2937375" id="Fill-1" fill="#FFF1B8"></path>
                <g id="Group-5" transform="translate(0.000000, 0.012488)">
                    <mask id="mask-18" fill="white">
                        <use xlink:href="#path-17"></use>
                    </mask>
                    <g id="Clip-4"></g>
                    <path d="M7.3126125,0.54984375 C3.2738625,0.54984375 0.0001125,3.82359375 0.0001125,7.86234375 C0.0001125,11.9010937 3.2738625,15.1748437 7.3126125,15.1748437 C11.3513625,15.1748437 14.6251125,11.9010937 14.6251125,7.86234375 C14.6251125,3.82359375 11.3513625,0.54984375 7.3126125,0.54984375 M7.3126125,1.67484375 C10.724175,1.67484375 13.5001125,4.45078125 13.5001125,7.86234375 C13.5001125,11.2739063 10.724175,14.0498438 7.3126125,14.0498438 C3.90105,14.0498438 1.1251125,11.2739063 1.1251125,7.86234375 C1.1251125,4.45078125 3.90105,1.67484375 7.3126125,1.67484375" id="Fill-3" fill="#FAAD14" mask="url(#mask-18)"></path>
                </g>
                <path d="M4.51355625,7.25304375 L10.1115563,7.25304375" id="Stroke-6" stroke="#FAAD14" stroke-width="2" stroke-linecap="round"></path>
                <path d="M4.51355625,9.74086875 L10.1115563,9.74086875" id="Stroke-8" stroke="#FAAD14" stroke-width="2" stroke-linecap="round"></path>
                <path d="M7.3126125,7.25304375 L7.3126125,12.2289187" id="Stroke-10" stroke="#FAAD14" stroke-width="2" stroke-linecap="round"></path>
                <polyline id="Stroke-12" stroke="#FAAD14" stroke-width="2" stroke-linecap="round" points="5.2164 4.14331875 7.3128375 7.25281875 9.4087125 4.14331875"></polyline>
            </g>
        </g>
        <g id="icon/今日消耗" transform="translate(301.000000, 181.000000)">
            <g id="Page-1" transform="translate(1.125000, 1.687500)">
                <path d="M14.625,14.625 L3.375,14.625 C2.754,14.625 2.25,14.009 2.25,13.25 L2.25,3.625 C2.25,2.866 2.754,2.25 3.375,2.25 L14.625,2.25 C15.246,2.25 15.75,2.866 15.75,3.625 L15.75,13.25 C15.75,14.009 15.246,14.625 14.625,14.625" id="Fill-1" fill="#50E394" opacity="0.341995018"></path>
                <path d="M1.12516875,0 C0.50360625,0 0.00016875,0.504 0.00016875,1.125 L0.00016875,12.375618 C0.00016875,12.9971805 0.50360625,13.500618 1.12516875,13.500618 L13.0597313,13.500618 C13.6807313,13.500618 14.0780182,12.9971805 14.0780182,12.375618 L14.0780182,1.125 C14.0780182,0.504 13.6807312,0 13.0597312,0 L1.12516875,0 Z M1.12516875,12.3621597 L12.9574814,12.3621597 L12.9574814,1.125 L1.12516875,1.125 L1.12516875,12.3621597 Z" id="Fill-3" fill="#50E394"></path>
                <path d="M0,3.35030625 L13.5,3.35030625" id="Stroke-5" stroke="#50E394" stroke-width="2"></path>
                <path d="M1.125,6.75 L6.1875,6.75" id="Stroke-7" stroke="#50E394" stroke-width="2" stroke-linecap="round"></path>
                <path d="M1.125,9.5625 L6.1875,9.5625" id="Stroke-7-Copy" stroke="#50E394" stroke-width="2" stroke-linecap="round"></path>
            </g>
        </g>
        <g id="icon/已有计划" transform="translate(371.000000, 174.000000)">
            <g id="Page-1" transform="translate(2.000000, 1.000000)">
                <path d="M28.0988,16.3555 C28.0988,23.2585 22.5018,28.8555 15.5988,28.8555 C8.6958,28.8555 3.0988,23.2585 3.0988,16.3555 C3.0988,9.4525 8.6958,3.8555 15.5988,3.8555 C22.5018,3.8555 28.0988,9.4525 28.0988,16.3555" id="Fill-1" fill="#CCE5FF"></path>
                <g id="Group-5" transform="translate(0.000000, 0.855500)">
                    <mask id="mask-20" fill="white">
                        <use xlink:href="#path-19"></use>
                    </mask>
                    <g id="Clip-4"></g>
                    <path d="M13.0002,0.1445 C5.8202,0.1445 0.0002,5.9645 0.0002,13.1445 C0.0002,20.3245 5.8202,26.1445 13.0002,26.1445 C20.1802,26.1445 26.0002,20.3245 26.0002,13.1445 C26.0002,5.9645 20.1802,0.1445 13.0002,0.1445 M13.0002,2.1445 C19.0652,2.1445 24.0002,7.0795 24.0002,13.1445 C24.0002,19.2095 19.0652,24.1445 13.0002,24.1445 C6.9352,24.1445 2.0002,19.2095 2.0002,13.1445 C2.0002,7.0795 6.9352,2.1445 13.0002,2.1445" id="Fill-3" fill="#2873FF" mask="url(#mask-20)"></path>
                </g>
                <path d="M13.0988,5.8555 L13.0988,14.8555" id="Stroke-6" stroke="#2873FF" stroke-width="2" stroke-linecap="round"></path>
                <path d="M13.0988,14.8555 L20.0988,14.8555" id="Stroke-8" stroke="#2873FF" stroke-width="2" stroke-linecap="round"></path>
            </g>
        </g>
        <g id="icon/新建计划" transform="translate(427.000000, 174.000000)">
            <g id="Page-1" transform="translate(2.000000, 1.000000)">
                <g id="Group-3" transform="translate(3.000000, 3.855500)">
                    <mask id="mask-22" fill="white">
                        <use xlink:href="#path-21"></use>
                    </mask>
                    <g id="Clip-2"></g>
                    <path d="M25.0155,12.5 C25.0155,19.403 19.4185,25 12.5155,25 C5.6125,25 0.0155,19.403 0.0155,12.5 C0.0155,5.597 5.6125,0 12.5155,0 C19.4185,0 25.0155,5.597 25.0155,12.5" id="Fill-1" fill="#CCE5FF" mask="url(#mask-22)"></path>
                </g>
                <g id="Group-6" transform="translate(0.000000, 0.855500)">
                    <mask id="mask-24" fill="white">
                        <use xlink:href="#path-23"></use>
                    </mask>
                    <g id="Clip-5"></g>
                    <path d="M12.9998,0.1445 C5.8198,0.1445 -0.0002,5.9645 -0.0002,13.1445 C-0.0002,20.3245 5.8198,26.1445 12.9998,26.1445 C20.1798,26.1445 25.9998,20.3245 25.9998,13.1445 C25.9998,5.9645 20.1798,0.1445 12.9998,0.1445 M12.9998,2.1445 C19.0648,2.1445 23.9998,7.0795 23.9998,13.1445 C23.9998,19.2095 19.0648,24.1445 12.9998,24.1445 C6.9348,24.1445 1.9998,19.2095 1.9998,13.1445 C1.9998,7.0795 6.9348,2.1445 12.9998,2.1445" id="Fill-4" fill="#2873FF" mask="url(#mask-24)"></path>
                </g>
                <path d="M8.0155,13.8555 L18.0155,13.8555" id="Stroke-7" stroke="#2873FF" stroke-width="2" stroke-linecap="round"></path>
                <path d="M13.0155,8.8555 L13.0155,18.8555" id="Stroke-9" stroke="#2873FF" stroke-width="2" stroke-linecap="round"></path>
            </g>
        </g>
    </g>
</svg>