<?xml version="1.0" encoding="UTF-8"?>
<svg width="532px" height="912px" viewBox="0 0 532 912" version="1.1" xmlns="http://www.w3.org/2000/svg" xmlns:xlink="http://www.w3.org/1999/xlink">
    <!-- Generator: Sketch 51.3 (57544) - http://www.bohemiancoding.com/sketch -->
    <title>icon copy</title>
    <desc>Created with Sketch.</desc>
    <defs>
        <circle id="path-1" cx="362" cy="398" r="30"></circle>
        <filter x="-18.3%" y="-11.7%" width="136.7%" height="136.7%" filterUnits="objectBoundingBox" id="filter-2">
            <feOffset dx="0" dy="4" in="SourceAlpha" result="shadowOffsetOuter1"></feOffset>
            <feGaussianBlur stdDeviation="3" in="shadowOffsetOuter1" result="shadowBlurOuter1"></feGaussianBlur>
            <feColorMatrix values="0 0 0 0 0   0 0 0 0 0   0 0 0 0 0  0 0 0 0.05 0" type="matrix" in="shadowBlurOuter1"></feColorMatrix>
        </filter>
        <polygon id="path-3" points="0.0002 0.978 26.0002 0.978 26.0002 26.9775 0.0002 26.9775"></polygon>
        <polygon id="path-5" points="0 0.0002 59.9999 0.0002 59.9999 60 0 60"></polygon>
        <path d="M0,0 L36,0 C37.1045695,-2.02906125e-16 38,0.8954305 38,2 L38,40 C38,41.1045695 37.1045695,42 36,42 L0,42 L0,0 Z" id="path-7"></path>
        <filter x="-28.9%" y="-16.7%" width="157.9%" height="152.4%" filterUnits="objectBoundingBox" id="filter-8">
            <feOffset dx="0" dy="4" in="SourceAlpha" result="shadowOffsetOuter1"></feOffset>
            <feGaussianBlur stdDeviation="3" in="shadowOffsetOuter1" result="shadowBlurOuter1"></feGaussianBlur>
            <feComposite in="shadowBlurOuter1" in2="SourceAlpha" operator="out" result="shadowBlurOuter1"></feComposite>
            <feColorMatrix values="0 0 0 0 0   0 0 0 0 0   0 0 0 0 0  0 0 0 0.05 0" type="matrix" in="shadowBlurOuter1"></feColorMatrix>
        </filter>
        <path d="M86.1,11.21 C86.1,11.22 86.09,11.22 86.08,11.22 C82.16,14.32 78.68,17.95 75.78,22.02 C75.749,22.06 75.72,22.09 75.7,22.13 C68.19,31.52 62.059,42.61 56.25,53.13 C43.21,76.72 30.91,99 8,99 C3.58,99 0,102.58 0,107 C0,111.42 3.58,115 8,115 C38.36,115 54.22,89.66 67.65,65.57 C73.47,88.211 94.06,105 118.499,105 C142.94,105 163.53,88.211 169.35,65.57 C182.78,89.66 198.64,115 229,115 C233.42,115 237,111.42 237,107 C237,102.58 233.42,99 229,99 C206.09,99 193.79,76.72 180.75,53.13 C174.94,42.61 168.809,31.52 161.3,22.13 C161.28,22.09 161.249,22.06 161.22,22.02 C158.32,17.95 154.84,14.32 150.92,11.22 C150.91,11.22 150.9,11.22 150.9,11.21 C141.97,4.19 130.72,2.27373675e-13 118.499,2.27373675e-13 C106.28,2.27373675e-13 95.03,4.19 86.1,11.21 M82,52.499 C82,44.57 84.54,37.22 88.86,31.22 C90.96,28.3 93.479,25.71 96.33,23.52 C102.479,18.8 110.17,16 118.499,16 C126.83,16 134.519,18.8 140.67,23.52 C143.519,25.71 146.039,28.3 148.14,31.22 C152.46,37.22 155,44.57 155,52.499 C155,72.63 138.631,89 118.499,89 C98.37,89 82,72.63 82,52.499" id="path-9"></path>
        <path d="M229,2.27373675e-13 C198.64,2.27373675e-13 182.78,25.34 169.35,49.43 C163.53,26.79 142.94,10 118.499,10 C94.06,10 73.47,26.79 67.65,49.43 C54.22,25.34 38.36,2.27373675e-13 8,2.27373675e-13 C3.58,2.27373675e-13 0,3.58 0,8 C0,12.42 3.58,16 8,16 C30.91,16 43.21,38.28 56.25,61.869 C62.059,72.39 68.19,83.48 75.7,92.87 C75.72,92.91 75.749,92.94 75.78,92.98 C78.68,97.05 82.16,100.68 86.08,103.78 C86.09,103.78 86.1,103.78 86.1,103.79 C95.03,110.81 106.28,115 118.499,115 C130.72,115 141.97,110.81 150.9,103.79 C150.9,103.78 150.91,103.78 150.92,103.78 C154.84,100.68 158.32,97.05 161.22,92.98 C161.249,92.94 161.28,92.91 161.3,92.87 C168.809,83.48 174.94,72.39 180.75,61.869 C193.79,38.28 206.09,16 229,16 C233.42,16 237,12.42 237,8 C237,3.58 233.42,2.27373675e-13 229,2.27373675e-13 Z M96.33,91.48 C93.479,89.29 90.96,86.7 88.86,83.78 C84.54,77.78 82,70.43 82,62.499 C82,42.37 98.37,26 118.499,26 C138.631,26 155,42.37 155,62.499 C155,70.43 152.46,77.78 148.14,83.78 C146.039,86.7 143.519,89.29 140.67,91.48 C134.519,96.2 126.83,99 118.499,99 C110.17,99 102.479,96.2 96.33,91.48 Z" id="path-11"></path>
        <circle id="path-13" cx="30" cy="30" r="30"></circle>
        <filter x="-18.3%" y="-11.7%" width="136.7%" height="136.7%" filterUnits="objectBoundingBox" id="filter-14">
            <feOffset dx="0" dy="4" in="SourceAlpha" result="shadowOffsetOuter1"></feOffset>
            <feGaussianBlur stdDeviation="3" in="shadowOffsetOuter1" result="shadowBlurOuter1"></feGaussianBlur>
            <feColorMatrix values="0 0 0 0 0   0 0 0 0 0   0 0 0 0 0  0 0 0 0.05 0" type="matrix" in="shadowBlurOuter1"></feColorMatrix>
        </filter>
        <polygon id="path-15" points="0.0002 0.978 26.0002 0.978 26.0002 26.9775 0.0002 26.9775"></polygon>
        <circle id="path-17" cx="30" cy="30" r="30"></circle>
        <filter x="-18.3%" y="-11.7%" width="136.7%" height="136.7%" filterUnits="objectBoundingBox" id="filter-18">
            <feOffset dx="0" dy="4" in="SourceAlpha" result="shadowOffsetOuter1"></feOffset>
            <feGaussianBlur stdDeviation="3" in="shadowOffsetOuter1" result="shadowBlurOuter1"></feGaussianBlur>
            <feColorMatrix values="0 0 0 0 0   0 0 0 0 0   0 0 0 0 0  0 0 0 0.05 0" type="matrix" in="shadowBlurOuter1"></feColorMatrix>
        </filter>
        <path d="M0,0 L36,0 C37.1045695,-2.02906125e-16 38,0.8954305 38,2 L38,40 C38,41.1045695 37.1045695,42 36,42 L0,42 L0,0 Z" id="path-19"></path>
        <filter x="-28.9%" y="-16.7%" width="157.9%" height="152.4%" filterUnits="objectBoundingBox" id="filter-20">
            <feOffset dx="0" dy="4" in="SourceAlpha" result="shadowOffsetOuter1"></feOffset>
            <feGaussianBlur stdDeviation="3" in="shadowOffsetOuter1" result="shadowBlurOuter1"></feGaussianBlur>
            <feComposite in="shadowBlurOuter1" in2="SourceAlpha" operator="out" result="shadowBlurOuter1"></feComposite>
            <feColorMatrix values="0 0 0 0 0   0 0 0 0 0   0 0 0 0 0  0 0 0 0.05 0" type="matrix" in="shadowBlurOuter1"></feColorMatrix>
        </filter>
        <circle id="path-21" cx="30" cy="30" r="30"></circle>
        <filter x="-18.3%" y="-11.7%" width="136.7%" height="136.7%" filterUnits="objectBoundingBox" id="filter-22">
            <feOffset dx="0" dy="4" in="SourceAlpha" result="shadowOffsetOuter1"></feOffset>
            <feGaussianBlur stdDeviation="3" in="shadowOffsetOuter1" result="shadowBlurOuter1"></feGaussianBlur>
            <feColorMatrix values="0 0 0 0 0   0 0 0 0 0   0 0 0 0 0  0 0 0 0.05 0" type="matrix" in="shadowBlurOuter1"></feColorMatrix>
        </filter>
        <polygon id="path-23" points="0 18.75 0 0 8.24985 0 16.4997 0 16.4997 18.75"></polygon>
        <polygon id="path-25" points="4.4422125 0 21 0 21 18.75 -2.71050543e-20 18.75 -2.71050543e-20 0 4.4422125 0 -7.5e-05 0 -7.5e-05 3.75 8.884425 3.75 8.884425 0"></polygon>
        <polygon id="path-27" points="17.87475 0.495 17.87475 15.75 8.9763 15.75 0.07785 15.75 0.07785 0.495"></polygon>
        <polygon id="path-29" points="0.0001125 0.550125 14.6251125 0.550125 14.6251125 15.1748438 0.0001125 15.1748438"></polygon>
        <polygon id="path-31" points="0.0002 0.145 26.0002 0.145 26.0002 26.1445 0.0002 26.1445 0.0002 0.145"></polygon>
        <polygon id="path-33" points="25.015 -3.55271368e-15 25.015 25 12.51525 25 0.0155 25 0.0155 -1.97215226e-30"></polygon>
        <polygon id="path-35" points="6.6610671e-16 26.1445 6.6610671e-16 0.145 25.9998 0.145 25.9998 26.1445"></polygon>
        <polygon id="path-37" points="0 0.057849944 59.9421501 0.057849944 59.9421501 59.9999664 0 59.9999664"></polygon>
        <polygon id="path-39" points="0 0.574330508 60.4160828 0.574330508 60.4160828 59.9661017 0 59.9661017"></polygon>
    </defs>
    <g id="icon-copy" stroke="none" stroke-width="1" fill="none" fill-rule="evenodd">
        <g id="Oval-2">
            <use fill="black" fill-opacity="1" filter="url(#filter-2)" xlink:href="#path-1"></use>
            <use fill="#FFFFFF" fill-rule="evenodd" xlink:href="#path-1"></use>
        </g>
        <g id="页面-1" transform="translate(348.000000, 385.000000)">
            <g id="Page-1">
                <path d="M26,26 L6,26 C4.896,26 4,24.9048889 4,23.5555556 L4,6.44444444 C4,5.09511111 4.896,4 6,4 L26,4 C27.104,4 28,5.09511111 28,6.44444444 L28,23.5555556 C28,24.9048889 27.104,26 26,26" id="Fill-1" fill="#FFD8BF" opacity="0.341995018"></path>
                <path d="M2.0003,0 C0.8953,0 0.0003,0.896 0.0003,2 L0.0003,22.0010986 C0.0003,23.1060986 0.8953,24.0010986 2.0003,24.0010986 L23.2173,24.0010986 C24.3213,24.0010986 25.0275879,23.1060986 25.0275879,22.0010986 L25.0275879,2 C25.0275879,0.896 24.3213,0 23.2173,0 L2.0003,0 Z M2.0003,21.9771729 L23.0355225,21.9771729 L23.0355225,2 L2.0003,2 L2.0003,21.9771729 Z" id="Fill-3" fill="#FA541C"></path>
                <path d="M0,5.9561 L24,5.9561" id="Stroke-5" stroke="#FA541C" stroke-width="2"></path>
                <path d="M2,12 L11,12" id="Stroke-7" stroke="#FA541C" stroke-width="2" stroke-linecap="round"></path>
                <path d="M2,17 L11,17" id="Stroke-7-Copy" stroke="#FA541C" stroke-width="2" stroke-linecap="round"></path>
            </g>
        </g>
        <g id="icon/概览" opacity="0.649999976" transform="translate(412.000000, 428.000000)" fill="#FFFFFF">
            <path d="M11.7535909,16.1590909 L16.3636364,16.1590909 L16.3636364,12.7374545 L11.7535909,12.7374545 L11.7535909,16.1590909 Z M11.2688182,17.7954545 C10.6339091,17.7954545 10.1172273,17.2816364 10.1172273,16.65 L10.1172273,12.2465455 C10.1172273,11.6151136 10.6339091,11.1010909 11.2688182,11.1010909 L16.8486136,11.1010909 C17.4835227,11.1010909 18,11.6151136 18,12.2465455 L18,16.6502045 C18,17.2816364 17.4835227,17.7954545 16.8488182,17.7954545 L11.2688182,17.7954545 Z M1.63636364,16.1590909 L6.24640909,16.1590909 L6.24640909,12.7374545 L1.63636364,12.7374545 L1.63636364,16.1590909 Z M6.73138636,17.7954545 L1.15138636,17.7954545 C0.516477273,17.7954545 0,17.2816364 0,16.65 L0,12.2465455 C0,11.6151136 0.516477273,11.1010909 1.15138636,11.1010909 L6.73118182,11.1010909 C7.36609091,11.1010909 7.88277273,11.6151136 7.88277273,12.2465455 L7.88277273,16.6502045 C7.88277273,17.2816364 7.36629545,17.7954545 6.73138636,17.7954545 L6.73138636,17.7954545 Z M11.7535909,7.30779545 L16.3636364,7.30779545 L16.3636364,3.88615909 L11.7535909,3.88615909 L11.7535909,7.30779545 Z M16.8488182,8.94415909 L11.2688182,8.94415909 C10.6339091,8.94415909 10.1172273,8.43034091 10.1172273,7.79870455 L10.1172273,3.39504545 C10.1172273,2.76361364 10.6337045,2.25 11.2682045,2.25 L16.8486136,2.25 C17.4835227,2.25 18,2.76381818 18,3.39545455 L18,7.79890909 C18,8.43054545 17.4835227,8.94415909 16.8488182,8.94415909 L16.8488182,8.94415909 Z M1.63636364,7.30779545 L6.24640909,7.30779545 L6.24640909,3.88615909 L1.63636364,3.88615909 L1.63636364,7.30779545 Z M6.73138636,8.94415909 L1.15138636,8.94415909 C0.516477273,8.94415909 0,8.43034091 0,7.79870455 L0,3.39504545 C0,2.76361364 0.516272727,2.25 1.15097727,2.25 L6.73118182,2.25 C7.36609091,2.25 7.88277273,2.76381818 7.88277273,3.39545455 L7.88277273,7.79890909 C7.88277273,8.43054545 7.36629545,8.94415909 6.73138636,8.94415909 L6.73138636,8.94415909 Z" id="view-thumb"></path>
        </g>
        <g id="icon/概览" transform="translate(412.000000, 640.000000)" fill="#FFFFFF">
            <path d="M11.7535909,16.1590909 L16.3636364,16.1590909 L16.3636364,12.7374545 L11.7535909,12.7374545 L11.7535909,16.1590909 Z M11.2688182,17.7954545 C10.6339091,17.7954545 10.1172273,17.2816364 10.1172273,16.65 L10.1172273,12.2465455 C10.1172273,11.6151136 10.6339091,11.1010909 11.2688182,11.1010909 L16.8486136,11.1010909 C17.4835227,11.1010909 18,11.6151136 18,12.2465455 L18,16.6502045 C18,17.2816364 17.4835227,17.7954545 16.8488182,17.7954545 L11.2688182,17.7954545 Z M1.63636364,16.1590909 L6.24640909,16.1590909 L6.24640909,12.7374545 L1.63636364,12.7374545 L1.63636364,16.1590909 Z M6.73138636,17.7954545 L1.15138636,17.7954545 C0.516477273,17.7954545 0,17.2816364 0,16.65 L0,12.2465455 C0,11.6151136 0.516477273,11.1010909 1.15138636,11.1010909 L6.73118182,11.1010909 C7.36609091,11.1010909 7.88277273,11.6151136 7.88277273,12.2465455 L7.88277273,16.6502045 C7.88277273,17.2816364 7.36629545,17.7954545 6.73138636,17.7954545 L6.73138636,17.7954545 Z M11.7535909,7.30779545 L16.3636364,7.30779545 L16.3636364,3.88615909 L11.7535909,3.88615909 L11.7535909,7.30779545 Z M16.8488182,8.94415909 L11.2688182,8.94415909 C10.6339091,8.94415909 10.1172273,8.43034091 10.1172273,7.79870455 L10.1172273,3.39504545 C10.1172273,2.76361364 10.6337045,2.25 11.2682045,2.25 L16.8486136,2.25 C17.4835227,2.25 18,2.76381818 18,3.39545455 L18,7.79890909 C18,8.43054545 17.4835227,8.94415909 16.8488182,8.94415909 L16.8488182,8.94415909 Z M1.63636364,7.30779545 L6.24640909,7.30779545 L6.24640909,3.88615909 L1.63636364,3.88615909 L1.63636364,7.30779545 Z M6.73138636,8.94415909 L1.15138636,8.94415909 C0.516477273,8.94415909 0,8.43034091 0,7.79870455 L0,3.39504545 C0,2.76361364 0.516272727,2.25 1.15097727,2.25 L6.73118182,2.25 C7.36609091,2.25 7.88277273,2.76381818 7.88277273,3.39545455 L7.88277273,7.79890909 C7.88277273,8.43054545 7.36629545,8.94415909 6.73138636,8.94415909 L6.73138636,8.94415909 Z" id="view-thumb"></path>
        </g>
        <g id="icon/广告管理" transform="translate(412.000000, 482.000000)" fill="#FFFFFF">
            <path d="M6.69052174,12.6521739 L11.309087,12.6521739 C11.7412826,12.6521739 12.0916957,12.3017609 12.0916957,11.8695652 C12.0916957,11.4373696 11.7412826,11.0869565 11.309087,11.0869565 L6.69052174,11.0869565 C6.25832609,11.0869565 5.90791304,11.4373696 5.90791304,11.8695652 C5.90791304,12.3017609 6.25832609,12.6521739 6.69052174,12.6521739 L6.69052174,12.6521739 Z M16.1894348,8.73913043 L1.80586957,8.73913043 L3.84906522,16.173913 L8.99980435,16.173913 L14.1116087,16.173913 L16.1894348,8.73913043 Z M18,5.72843478 L18,7.86065217 L18,7.86221739 L18,7.8626087 L18,7.86378261 C18,7.86397826 17.9998043,7.86397826 17.9998043,7.86397826 C17.999413,7.94126087 17.9880652,8.01580435 17.9669348,8.08623913 L15.462,17.1646957 C15.3682826,17.5039565 15.0595435,17.7391304 14.7075652,17.7391304 L3.25056522,17.7391304 C2.89721739,17.7391304 2.58769565,17.5023913 2.49515217,17.1613696 L0.0320869565,8.08291304 C0.0205434783,8.04436957 0.0119347826,8.00445652 0.00665217391,7.96376087 C0.00136956522,7.92326087 0,7.88276087 0,7.84284783 L0,5.72843478 C0,5.29623913 0.350413043,4.94582609 0.782608696,4.94582609 C1.21480435,4.94582609 1.56521739,5.29623913 1.56521739,5.72843478 L1.56521739,7.17391304 L16.4347826,7.17391304 L16.4347826,5.72843478 C16.4347826,5.29623913 16.7851957,4.94582609 17.2173913,4.94582609 C17.649587,4.94582609 18,5.29623913 18,5.72843478 L18,5.72843478 Z M5.14702174,2.86956522 L12.852587,2.86956522 C13.2307826,2.86956522 13.5373696,2.56297826 13.5373696,2.18478261 C13.5373696,1.80658696 13.2307826,1.5 12.852587,1.5 L5.14702174,1.5 C4.76882609,1.5 4.46223913,1.80658696 4.46223913,2.18478261 C4.46223913,2.56297826 4.76882609,2.86956522 5.14702174,2.86956522 L5.14702174,2.86956522 Z M3.08054348,4.82608696 C3.08054348,4.3938913 3.43115217,4.04347826 3.86315217,4.04347826 L14.1364565,4.04347826 C14.5686522,4.04347826 14.9190652,4.3938913 14.9190652,4.82608696 C14.9190652,5.25828261 14.5686522,5.60869565 14.1364565,5.60869565 L3.86315217,5.60869565 C3.43115217,5.60869565 3.08054348,5.25828261 3.08054348,4.82608696 L3.08054348,4.82608696 Z" id="archive"></path>
        </g>
        <g id="icon/报表" transform="translate(412.000000, 533.000000)" fill="#FFFFFF">
            <path d="M2.83108696,10.742087 C3.24176087,13.940413 6.12234783,16.4261739 9.60358696,16.4261739 C13.365587,16.4261739 16.4261739,13.3653913 16.4261739,9.6033913 C16.4261739,6.18534783 13.8952174,3.25741304 10.7422826,2.83363043 L10.7422826,9.95517391 C10.7422826,10.3897174 10.389913,10.742087 9.95536957,10.742087 L2.83108696,10.742087 Z M9.60358696,18 C4.97386957,18 1.20717391,14.391 1.20717391,9.95517391 C1.20717391,9.52063043 1.55954348,9.16826087 1.99408696,9.16826087 L9.16845652,9.16826087 L9.16845652,1.9938913 C9.16845652,1.55934783 9.52082609,1.20697826 9.95536957,1.20697826 C14.3160652,1.20697826 18,5.05213043 18,9.6033913 C18,14.2333043 14.2333043,18 9.60358696,18 L9.60358696,18 Z M1.4223913,5.89480435 L5.895,5.89480435 L5.895,1.4223913 C3.57378261,1.73034783 1.73034783,3.57358696 1.4223913,5.89480435 L1.4223913,5.89480435 Z M6.5835,7.27180435 L0.6885,7.27180435 C0.308152174,7.27180435 0,6.96365217 0,6.58330435 C0,2.95317391 2.95336957,0 6.5835,0 C6.96384783,0 7.272,0.308152174 7.272,0.6885 L7.272,6.58330435 C7.272,6.96365217 6.96384783,7.27180435 6.5835,7.27180435 L6.5835,7.27180435 Z" id="graph-pie"></path>
        </g>
        <g id="icon/工具箱" transform="translate(412.000000, 587.000000)" fill="#FFFFFF">
            <path d="M1.56521739,16.3369565 L1.56521739,12.2282609 L7.04347826,12.2282609 L7.04347826,12.4217609 C7.04347826,12.7459565 7.35730435,13.0108696 7.68130435,13.0108696 L10.3186957,13.0108696 C10.6426957,13.0108696 10.9565217,12.7459565 10.9565217,12.4217609 L10.9565217,12.2282609 L16.4320435,12.2282609 L16.430087,16.3369565 L1.56521739,16.3369565 Z M8.2173913,11.8369565 L9.7826087,11.8369565 L9.7826087,11.4456522 L8.2173913,11.4456522 L8.2173913,11.8369565 Z M16.4343913,6.94565217 L16.4324348,11.0543478 L10.9565217,11.0543478 L10.9565217,10.7704565 C10.9565217,10.4464565 10.6426957,10.2717391 10.3186957,10.2717391 L7.68130435,10.2717391 C7.35730435,10.2717391 7.04347826,10.4464565 7.04347826,10.7704565 L7.04347826,11.0543478 L1.56521739,11.0543478 L1.56521739,6.94565217 L16.4343913,6.94565217 Z M6.45652174,5.38043478 L11.5434783,5.38043478 L11.5434783,3.81521739 L6.45652174,3.81521739 L6.45652174,5.38043478 Z M17.7708913,5.56473913 C17.6241522,5.41780435 17.4249783,5.38043478 17.2173913,5.38043478 L13.1086957,5.38043478 L13.1086957,3.0326087 C13.1086957,2.60041304 12.7201304,2.25 12.2879348,2.25 L5.71206522,2.25 C5.27986957,2.25 4.89130435,2.60041304 4.89130435,3.0326087 L4.89130435,5.38043478 L0.782608696,5.38043478 C0.350413043,5.38043478 0,5.64065217 0,6.07284783 L0,17.1195652 C0,17.5517609 0.350413043,17.9021739 0.782608696,17.9021739 L17.2123043,17.9021739 C17.6443043,17.9021739 17.9947174,17.5519565 17.994913,17.1199565 L18,6.09573913 C18,5.88815217 17.9176304,5.71147826 17.7708913,5.56473913 L17.7708913,5.56473913 Z" id="briefcase"></path>
        </g>
        <path d="M429.162791,463.310052 L421.755814,463.310052 L421.755814,470.201044 C421.755814,470.642689 421.381395,471 420.918605,471 L420.918605,471 C420.455814,471 420.081395,470.642689 420.081395,470.201044 L420.081395,463.310052 L412.837209,463.310052 C412.374419,463.310052 412,462.952742 412,462.511097 L412,462.511097 C412,462.069452 412.374419,461.712141 412.837209,461.712141 L420.081395,461.712141 L420.081395,454.798956 C420.081395,454.357311 420.455814,454 420.918605,454 L420.918605,454 C421.381395,454 421.755814,454.357311 421.755814,454.798956 L421.755814,461.712141 L429.162791,461.712141 C429.625581,461.712141 430,462.069452 430,462.511097 L430,462.511097 C430,462.952742 429.625581,463.310052 429.162791,463.310052 L429.162791,463.310052 Z" id="Shape" fill="#FFFFFF" transform="translate(421.000000, 462.500000) scale(1, -1) translate(-421.000000, -462.500000) "></path>
        <g id="icon/新建广告导航" transform="translate(527.000000, 155.000000)" fill="#E8E8E8">
            <g id="导航条">
                <rect id="Rectangle" transform="translate(2.500000, 50.000000) scale(-1, 1) translate(-2.500000, -50.000000) " x="2" y="7" width="1" height="86"></rect>
                <rect id="Rectangle-Copy" transform="translate(2.500000, 193.500000) scale(-1, 1) translate(-2.500000, -193.500000) " x="2" y="102" width="1" height="183"></rect>
                <circle id="Oval" cx="2.5" cy="2.5" r="2.5"></circle>
                <circle id="Oval-Copy" cx="2.5" cy="97.5" r="2.5"></circle>
                <circle id="Oval-Copy-2" cx="2.5" cy="289.5" r="2.5"></circle>
            </g>
        </g>
        <g id="账号管理" transform="translate(412.000000, 366.000000)">
            <ellipse id="Oval-2" fill="#FAAD14" cx="30" cy="29.8136646" rx="30" ry="29.8136646"></ellipse>
            <g id="icon/现金账户" transform="translate(14.000000, 14.000000)" stroke-width="1">
                <g id="Page-1" transform="translate(2.000000, 1.000000)">
                    <path d="M28.0988,16.5222 C28.0988,23.4252 22.5018,29.0222 15.5988,29.0222 C8.6958,29.0222 3.0988,23.4252 3.0988,16.5222 C3.0988,9.6192 8.6958,4.0222 15.5988,4.0222 C22.5018,4.0222 28.0988,9.6192 28.0988,16.5222" id="Fill-1" fill="#FFF1B8"></path>
                    <g id="Group-5" transform="translate(0.000000, 0.022200)">
                        <mask id="mask-4" fill="white">
                            <use xlink:href="#path-3"></use>
                        </mask>
                        <g id="Clip-4"></g>
                        <path d="M13.0002,0.9775 C5.8202,0.9775 0.0002,6.7975 0.0002,13.9775 C0.0002,21.1575 5.8202,26.9775 13.0002,26.9775 C20.1802,26.9775 26.0002,21.1575 26.0002,13.9775 C26.0002,6.7975 20.1802,0.9775 13.0002,0.9775 M13.0002,2.9775 C19.0652,2.9775 24.0002,7.9125 24.0002,13.9775 C24.0002,20.0425 19.0652,24.9775 13.0002,24.9775 C6.9352,24.9775 2.0002,20.0425 2.0002,13.9775 C2.0002,7.9125 6.9352,2.9775 13.0002,2.9775" id="Fill-3" fill="#FAAD14" mask="url(#mask-4)"></path>
                    </g>
                    <path d="M8.0241,12.8943 L17.9761,12.8943" id="Stroke-6" stroke="#FAAD14" stroke-width="2" stroke-linecap="round"></path>
                    <path d="M8.0241,17.3171 L17.9761,17.3171" id="Stroke-8" stroke="#FAAD14" stroke-width="2" stroke-linecap="round"></path>
                    <path d="M13.0002,12.8943 L13.0002,21.7403" id="Stroke-10" stroke="#FAAD14" stroke-width="2" stroke-linecap="round"></path>
                    <polyline id="Stroke-12" stroke="#FAAD14" stroke-width="2" stroke-linecap="round" points="9.2736 7.3659 13.0006 12.8939 16.7266 7.3659"></polyline>
                </g>
            </g>
        </g>
        <g id="icon/转化跟踪" transform="translate(327.000000, 266.000000)">
            <circle id="Oval-2" fill="#BC35EF" cx="30" cy="30" r="30"></circle>
            <g id="Page-1" opacity="0.849999964" stroke-width="1" transform="translate(13.000000, 13.000000)" fill="#FFFFFF">
                <path d="M24.2445,12.8779 L34.2865,12.8779 C32.6615,6.9859 28.0245,2.3459 22.1355,0.7159 L22.1355,10.7669 C22.9605,11.3369 23.6765,12.0519 24.2445,12.8779" id="Fill-1"></path>
                <path d="M10.7523,22.1221 L0.7103,22.1221 C2.3383,28.0241 6.9883,32.6701 12.8923,34.2921 L12.8923,24.2591 C12.0533,23.6851 11.3283,22.9591 10.7523,22.1221" id="Fill-3"></path>
                <path d="M12.892,10.7412 L12.892,0.7082 C6.988,2.3302 2.338,6.9752 0.711,12.8782 L10.752,12.8782 C11.328,12.0412 12.053,11.3142 12.892,10.7412" id="Fill-5"></path>
                <path d="M22.1356,34.2844 C28.0246,32.6544 32.6616,28.0134 34.2856,22.1224 L24.2446,22.1224 C23.6766,22.9484 22.9606,23.6634 22.1356,24.2334 L22.1356,34.2844 Z" id="Fill-7"></path>
            </g>
        </g>
        <g id="icon/操作日志" transform="translate(408.000000, 266.000000)">
            <g id="Page-1">
                <g id="Group-3">
                    <mask id="mask-6" fill="white">
                        <use xlink:href="#path-5"></use>
                    </mask>
                    <g id="Clip-2"></g>
                    <path d="M59.9999,30.0002 C59.9999,46.5682 46.5689,60.0002 29.9999,60.0002 C13.4319,60.0002 -0.0001,46.5682 -0.0001,30.0002 C-0.0001,13.4312 13.4319,0.0002 29.9999,0.0002 C46.5689,0.0002 59.9999,13.4312 59.9999,30.0002" id="Fill-1" fill="#746CFF" mask="url(#mask-6)"></path>
                </g>
                <g id="Group-12" transform="translate(13.000000, 11.000000)" fill="#FFFFFF" opacity="0.839334239">
                    <path d="M25.0937,13.6984 L8.5857,13.6984 C7.9757,13.6984 7.5887,13.0434 7.5887,12.4344 C7.5887,11.8244 8.1037,11.2154 8.7117,11.2154 L25.1727,11.2154 C25.7817,11.2154 26.2947,11.7804 26.3427,12.4344 C26.3427,13.0434 25.7007,13.6984 25.0937,13.6984 M25.0937,20.5024 L8.5857,20.5024 C7.9757,20.5024 7.5887,19.8474 7.5887,19.2384 C7.5887,18.6284 8.1037,18.0194 8.7117,18.0194 L25.1727,18.0194 C25.7817,18.0194 26.2947,18.5834 26.3427,19.2384 C26.3427,19.8474 25.7007,20.5024 25.0937,20.5024 M25.0267,27.1264 L8.5187,27.1264 C7.9107,27.1264 7.3037,26.3804 7.3037,25.7714 C7.3037,25.1634 7.8177,24.6434 8.4267,24.6434 L24.8857,24.6434 C25.4947,24.6434 26.0087,25.1164 26.0547,25.7714 C26.0547,26.3804 25.6337,27.1264 25.0267,27.1264 M25.1317,2.4254 C25.1697,2.6294 25.1897,2.8334 25.1897,3.0444 C25.1927,4.6084 24.0557,6.1504 22.7067,6.1504 L11.0417,6.1504 C9.6207,6.1504 8.4827,4.6084 8.4827,3.0444 C8.4847,2.8334 8.5077,2.6294 8.5457,2.4254 L4.7037,2.4254 C1.6157,2.4254 0.8587,4.1764 0.8587,6.7014 L0.8587,31.7204 C0.8587,34.4324 1.9437,35.9524 4.9377,35.9524 L28.6927,35.9524 C31.6867,35.9524 33.1417,34.7604 33.1417,31.7204 L33.1417,6.7014 C33.1417,4.1764 31.7787,2.4254 28.9267,2.4254 L25.1317,2.4254 Z" id="Fill-4"></path>
                    <path d="M13.1274,0.0475 L20.3994,0.0475 C21.4254,0.0475 22.2574,0.8795 22.2574,1.9055 C22.2574,2.9315 21.4254,3.7635 20.3994,3.7635 L13.1274,3.7635 C12.1014,3.7635 11.2694,2.9315 11.2694,1.9055 C11.2694,0.8795 12.1014,0.0475 13.1274,0.0475" id="Fill-13"></path>
                </g>
            </g>
        </g>
        <g id="弹出菜单" transform="translate(287.000000, 717.000000)">
            <g id="Rectangle-3">
                <use fill="black" fill-opacity="1" filter="url(#filter-8)" xlink:href="#path-7"></use>
                <path stroke="#E8E8E8" stroke-width="1" d="M0.5,0.5 L0.5,41.5 L36,41.5 C36.8284271,41.5 37.5,40.8284271 37.5,40 L37.5,2 C37.5,1.17157288 36.8284271,0.5 36,0.5 L0.5,0.5 Z" stroke-linejoin="square" fill="#FFFFFF" fill-rule="evenodd"></path>
            </g>
            <path d="M12.5599378,25.80991 L25.4400622,25.80991 C25.7495834,25.80991 26,26.0603266 26,26.3698478 C26,26.679369 25.7495834,26.9297856 25.4400622,26.9297856 L12.5599378,26.9297856 C12.2504166,26.9297856 12,26.679369 12,26.3698478 C12,26.0603266 12.2504166,25.80991 12.5599378,25.80991 Z M25.4089546,21.9992223 L16.6194867,21.9992223 C16.3099656,21.9992223 16.0595489,21.7488057 16.0595489,21.4392845 C16.0595489,21.1297634 16.3099656,20.8793467 16.6194867,20.8793467 L25.4089546,20.8793467 C25.7184757,20.8793467 25.9688923,21.1297634 25.9688923,21.4392845 C25.9688923,21.7488057 25.7169203,21.9992223 25.4089546,21.9992223 Z M25.4400622,16.1198756 L12.6065993,16.1198756 C12.2970781,16.1198756 12.0466615,15.8694589 12.0466615,15.5599378 C12.0466615,15.2504166 12.2970781,15 12.6065993,15 L25.4400622,15 C25.7495834,15 26,15.2504166 26,15.5599378 C26,15.8694589 25.748028,16.1198756 25.4400622,16.1198756 Z M14.088879,19.3675147 C14.1977558,19.2601933 14.3392956,19.2073103 14.4808355,19.2073103 C14.6254861,19.2073103 14.7701367,19.2633041 14.8805688,19.3752916 C15.096767,19.596156 15.0952116,19.9507832 14.8743473,20.1669814 L13.3905122,21.6259305 L14.8479058,22.9993334 C15.0734363,23.2108655 15.084324,23.5654927 14.8712365,23.7910232 C14.6597045,24.0165537 14.3050772,24.025886 14.0795467,23.814354 L12.199089,22.0412176 C12.0886568,21.937007 12.0248861,21.7923564 12.0233307,21.6399289 C12.0217754,21.4875014 12.0824353,21.3412954 12.1913121,21.233974 L14.088879,19.3675147 Z" id="Shape" fill-opacity="0.65" fill="#000000" fill-rule="evenodd" transform="translate(19.000000, 20.964893) scale(-1, -1) translate(-19.000000, -20.964893) "></path>
        </g>
        <g id="Page-1" transform="translate(200.000000, 528.000000)">
            <g id="Group-3" transform="translate(0.000000, 10.000000)">
                <mask id="mask-10" fill="white">
                    <use xlink:href="#path-9"></use>
                </mask>
                <g id="Clip-2"></g>
                <path d="M86.1,11.21 C86.1,11.22 86.09,11.22 86.08,11.22 C82.16,14.32 78.68,17.95 75.78,22.02 C75.749,22.06 75.72,22.09 75.7,22.13 C68.19,31.52 62.059,42.61 56.25,53.13 C43.21,76.72 30.91,99 8,99 C3.58,99 0,102.58 0,107 C0,111.42 3.58,115 8,115 C38.36,115 54.22,89.66 67.65,65.57 C73.47,88.211 94.06,105 118.499,105 C142.94,105 163.53,88.211 169.35,65.57 C182.78,89.66 198.64,115 229,115 C233.42,115 237,111.42 237,107 C237,102.58 233.42,99 229,99 C206.09,99 193.79,76.72 180.75,53.13 C174.94,42.61 168.809,31.52 161.3,22.13 C161.28,22.09 161.249,22.06 161.22,22.02 C158.32,17.95 154.84,14.32 150.92,11.22 C150.91,11.22 150.9,11.22 150.9,11.21 C141.97,4.19 130.72,2.27373675e-13 118.499,2.27373675e-13 C106.28,2.27373675e-13 95.03,4.19 86.1,11.21 M82,52.499 C82,44.57 84.54,37.22 88.86,31.22 C90.96,28.3 93.479,25.71 96.33,23.52 C102.479,18.8 110.17,16 118.499,16 C126.83,16 134.519,18.8 140.67,23.52 C143.519,25.71 146.039,28.3 148.14,31.22 C152.46,37.22 155,44.57 155,52.499 C155,72.63 138.631,89 118.499,89 C98.37,89 82,72.63 82,52.499" id="Fill-1" mask="url(#mask-10)"></path>
            </g>
            <g id="Group-6" transform="translate(0.000000, 0.000000)">
                <mask id="mask-12" fill="white">
                    <use xlink:href="#path-11"></use>
                </mask>
                <g id="Clip-5"></g>
                <path d="M229,2.27373675e-13 C198.64,2.27373675e-13 182.78,25.34 169.35,49.43 C163.53,26.79 142.94,10 118.499,10 C94.06,10 73.47,26.79 67.65,49.43 C54.22,25.34 38.36,2.27373675e-13 8,2.27373675e-13 C3.58,2.27373675e-13 0,3.58 0,8 C0,12.42 3.58,16 8,16 C30.91,16 43.21,38.28 56.25,61.869 C62.059,72.39 68.19,83.48 75.7,92.87 C75.72,92.91 75.749,92.94 75.78,92.98 C78.68,97.05 82.16,100.68 86.08,103.78 C86.09,103.78 86.1,103.78 86.1,103.79 C95.03,110.81 106.28,115 118.499,115 C130.72,115 141.97,110.81 150.9,103.79 C150.9,103.78 150.91,103.78 150.92,103.78 C154.84,100.68 158.32,97.05 161.22,92.98 C161.249,92.94 161.28,92.91 161.3,92.87 C168.809,83.48 174.94,72.39 180.75,61.869 C193.79,38.28 206.09,16 229,16 C233.42,16 237,12.42 237,8 C237,3.58 233.42,2.27373675e-13 229,2.27373675e-13 Z M96.33,91.48 C93.479,89.29 90.96,86.7 88.86,83.78 C84.54,77.78 82,70.43 82,62.499 C82,42.37 98.37,26 118.499,26 C138.631,26 155,42.37 155,62.499 C155,70.43 152.46,77.78 148.14,83.78 C146.039,86.7 143.519,89.29 140.67,91.48 C134.519,96.2 126.83,99 118.499,99 C110.17,99 102.479,96.2 96.33,91.48 Z" id="Fill-4" mask="url(#mask-12)"></path>
            </g>
        </g>
        <g id="现金账户_大" transform="translate(74.000000, 154.000000)">
            <g id="Oval-2">
                <use fill="black" fill-opacity="1" filter="url(#filter-14)" xlink:href="#path-13"></use>
                <use fill="#FFFFFF" fill-rule="evenodd" xlink:href="#path-13"></use>
            </g>
            <g id="icon/现金账户" transform="translate(14.000000, 14.000000)" fill-rule="evenodd" stroke-width="1">
                <g id="Page-1" transform="translate(2.000000, 1.000000)">
                    <path d="M28.0988,16.5222 C28.0988,23.4252 22.5018,29.0222 15.5988,29.0222 C8.6958,29.0222 3.0988,23.4252 3.0988,16.5222 C3.0988,9.6192 8.6958,4.0222 15.5988,4.0222 C22.5018,4.0222 28.0988,9.6192 28.0988,16.5222" id="Fill-1" fill="#FFF1B8"></path>
                    <g id="Group-5" transform="translate(0.000000, 0.022200)">
                        <mask id="mask-16" fill="white">
                            <use xlink:href="#path-15"></use>
                        </mask>
                        <g id="Clip-4"></g>
                        <path d="M13.0002,0.9775 C5.8202,0.9775 0.0002,6.7975 0.0002,13.9775 C0.0002,21.1575 5.8202,26.9775 13.0002,26.9775 C20.1802,26.9775 26.0002,21.1575 26.0002,13.9775 C26.0002,6.7975 20.1802,0.9775 13.0002,0.9775 M13.0002,2.9775 C19.0652,2.9775 24.0002,7.9125 24.0002,13.9775 C24.0002,20.0425 19.0652,24.9775 13.0002,24.9775 C6.9352,24.9775 2.0002,20.0425 2.0002,13.9775 C2.0002,7.9125 6.9352,2.9775 13.0002,2.9775" id="Fill-3" fill="#FAAD14" mask="url(#mask-16)"></path>
                    </g>
                    <path d="M8.0241,12.8943 L17.9761,12.8943" id="Stroke-6" stroke="#FAAD14" stroke-width="2" stroke-linecap="round"></path>
                    <path d="M8.0241,17.3171 L17.9761,17.3171" id="Stroke-8" stroke="#FAAD14" stroke-width="2" stroke-linecap="round"></path>
                    <path d="M13.0002,12.8943 L13.0002,21.7403" id="Stroke-10" stroke="#FAAD14" stroke-width="2" stroke-linecap="round"></path>
                    <polyline id="Stroke-12" stroke="#FAAD14" stroke-width="2" stroke-linecap="round" points="9.2736 7.3659 13.0006 12.8939 16.7266 7.3659"></polyline>
                </g>
            </g>
        </g>
        <g id="今日消耗_大" transform="translate(158.000000, 154.000000)">
            <g id="Oval-2">
                <use fill="black" fill-opacity="1" filter="url(#filter-18)" xlink:href="#path-17"></use>
                <use fill="#FFFFFF" fill-rule="evenodd" xlink:href="#path-17"></use>
            </g>
            <g id="Page-1" stroke-width="1" fill-rule="evenodd" transform="translate(16.000000, 17.000000)">
                <path d="M26,26 L6,26 C4.896,26 4,24.9048889 4,23.5555556 L4,6.44444444 C4,5.09511111 4.896,4 6,4 L26,4 C27.104,4 28,5.09511111 28,6.44444444 L28,23.5555556 C28,24.9048889 27.104,26 26,26" id="Fill-1" fill="#50E394" opacity="0.341995018"></path>
                <path d="M2.0003,0 C0.8953,0 0.0003,0.896 0.0003,2 L0.0003,22.0010986 C0.0003,23.1060986 0.8953,24.0010986 2.0003,24.0010986 L23.2173,24.0010986 C24.3213,24.0010986 25.0275879,23.1060986 25.0275879,22.0010986 L25.0275879,2 C25.0275879,0.896 24.3213,0 23.2173,0 L2.0003,0 Z M2.0003,21.9771729 L23.0355225,21.9771729 L23.0355225,2 L2.0003,2 L2.0003,21.9771729 Z" id="Fill-3" fill="#50E394"></path>
                <path d="M0,5.9561 L24,5.9561" id="Stroke-5" stroke="#50E394" stroke-width="2"></path>
                <path d="M2,12 L11,12" id="Stroke-7" stroke="#50E394" stroke-width="2" stroke-linecap="round"></path>
                <path d="M2,17 L11,17" id="Stroke-7-Copy" stroke="#50E394" stroke-width="2" stroke-linecap="round"></path>
            </g>
        </g>
        <path d="M87,773 C83.1335938,773 80,769.866406 80,766 C80,762.133594 83.1335938,759 87,759 C90.8664062,759 94,762.133594 94,766 C94,769.866406 90.8664062,773 87,773 L87,773 Z M87.4375,762.0625 C87.4375,761.820508 87.2419922,761.625 87,761.625 L87,761.625 C86.7580078,761.625 86.5625,761.820508 86.5625,762.0625 L86.5625,762.0625 C86.5625,762.304492 86.7580078,762.5 87,762.5 L87,762.5 C87.2419922,762.5 87.4375,762.304492 87.4375,762.0625 L87.4375,762.0625 L87.4375,762.0625 Z M87.4375,763.8125 C87.4375,763.570508 87.2419922,763.375 87,763.375 L87,763.375 C86.7580078,763.375 86.5625,763.570508 86.5625,763.8125 L86.5625,769.9375 C86.5625,770.179492 86.7580078,770.375 87,770.375 L87,770.375 C87.2419922,770.375 87.4375,770.179492 87.4375,769.9375 L87.4375,763.8125 L87.4375,763.8125 Z" id="Shape-Copy-2" fill="#FFFFFF" transform="translate(87.000000, 766.000000) scale(1, -1) translate(-87.000000, -766.000000) "></path>
        <g id="收菜单" transform="translate(232.000000, 717.000000)">
            <g id="Rectangle-3">
                <use fill="black" fill-opacity="1" filter="url(#filter-20)" xlink:href="#path-19"></use>
                <path stroke="#E8E8E8" stroke-width="1" d="M0.5,0.5 L0.5,41.5 L36,41.5 C36.8284271,41.5 37.5,40.8284271 37.5,40 L37.5,2 C37.5,1.17157288 36.8284271,0.5 36,0.5 L0.5,0.5 Z" stroke-linejoin="square" fill="#FFFFFF" fill-rule="evenodd"></path>
            </g>
            <path d="M12.5599378,25.80991 L25.4400622,25.80991 C25.7495834,25.80991 26,26.0603266 26,26.3698478 C26,26.679369 25.7495834,26.9297856 25.4400622,26.9297856 L12.5599378,26.9297856 C12.2504166,26.9297856 12,26.679369 12,26.3698478 C12,26.0603266 12.2504166,25.80991 12.5599378,25.80991 Z M25.4089546,21.9992223 L16.6194867,21.9992223 C16.3099656,21.9992223 16.0595489,21.7488057 16.0595489,21.4392845 C16.0595489,21.1297634 16.3099656,20.8793467 16.6194867,20.8793467 L25.4089546,20.8793467 C25.7184757,20.8793467 25.9688923,21.1297634 25.9688923,21.4392845 C25.9688923,21.7488057 25.7169203,21.9992223 25.4089546,21.9992223 Z M25.4400622,16.1198756 L12.6065993,16.1198756 C12.2970781,16.1198756 12.0466615,15.8694589 12.0466615,15.5599378 C12.0466615,15.2504166 12.2970781,15 12.6065993,15 L25.4400622,15 C25.7495834,15 26,15.2504166 26,15.5599378 C26,15.8694589 25.748028,16.1198756 25.4400622,16.1198756 Z M14.088879,19.3675147 C14.1977558,19.2601933 14.3392956,19.2073103 14.4808355,19.2073103 C14.6254861,19.2073103 14.7701367,19.2633041 14.8805688,19.3752916 C15.096767,19.596156 15.0952116,19.9507832 14.8743473,20.1669814 L13.3905122,21.6259305 L14.8479058,22.9993334 C15.0734363,23.2108655 15.084324,23.5654927 14.8712365,23.7910232 C14.6597045,24.0165537 14.3050772,24.025886 14.0795467,23.814354 L12.199089,22.0412176 C12.0886568,21.937007 12.0248861,21.7923564 12.0233307,21.6399289 C12.0217754,21.4875014 12.0824353,21.3412954 12.1913121,21.233974 L14.088879,19.3675147 Z" id="Shape" fill-opacity="0.65" fill="#000000" fill-rule="evenodd" transform="translate(19.000000, 20.964893) scale(1, -1) translate(-19.000000, -20.964893) "></path>
        </g>
        <g id="icon/修改" transform="translate(80.000000, 731.000000)" fill="#2873FF">
            <path d="M13.3758773,1 L0.624122693,1 C0.280218352,1 0,0.775510204 0,0.5 C0,0.224489796 0.280218352,0 0.624122693,0 L13.3758773,0 C13.7197816,0 14,0.224489796 14,0.5 C14,0.775510204 13.7197816,1 13.3758773,1 L13.3758773,1 Z M3.77021055,3.12061347 C3.85391214,3.12061347 3.94125292,3.13880946 4.02859371,3.17338186 L4.03405251,3.17338186 L7.5859111,4.84195477 L7.62230309,4.86015077 L13.6633741,10.9048609 C13.8708084,11.1104757 13.9836236,11.3852352 13.9836236,11.6763712 C13.9836236,11.9675071 13.8689888,12.2422667 13.6633741,12.4478815 L12.4442423,13.6670133 C12.2368079,13.872628 11.9620483,13.9854432 11.6709124,13.9854432 C11.3797764,13.9854432 11.1050169,13.8708084 10.8994021,13.6651937 L4.88198596,7.65141669 L4.85469197,7.62412269 L4.83831557,7.5895503 L3.17702106,4.0577073 C3.07876267,3.84845334 3.09331947,3.61918378 3.21705225,3.42448661 C3.33896543,3.23706785 3.55003899,3.12061347 3.77021055,3.12061347 L3.77021055,3.12061347 Z M10.9448921,11.9493112 L11.6690928,12.6735118 L12.668053,11.6745516 L11.9438524,10.9503509 L10.9448921,11.9493112 L10.9448921,11.9493112 Z M5.00389914,5.01117754 L5.89004419,6.89628282 L10.0623863,11.0668053 L11.0613465,10.0678451 L6.88900442,5.89732259 L5.00389914,5.01117754 L5.00389914,5.01117754 Z" id="Shape" transform="translate(7.000000, 6.992722) scale(1, -1) translate(-7.000000, -6.992722) "></path>
        </g>
        <g id="icon/修改密码" transform="translate(118.000000, 731.000000)" fill="#2873FF">
            <path d="M12.1609915,10.5888581 C11.8914691,11.2559259 11.5090843,11.852244 11.0256287,12.3592829 C10.5438575,12.8713753 9.97786067,13.2756588 9.34616773,13.5603417 C8.6925761,13.8517627 8.00024064,14 7.28937553,14 C6.57682589,14 5.88449043,13.8517627 5.23089881,13.5586572 C4.59920587,13.2756588 4.03489351,12.8713753 3.55143785,12.3592829 C3.06461316,11.845506 2.68222837,11.2491878 2.41607508,10.5888581 C2.1398147,9.90494525 2,9.17723499 2,8.42594152 L2,1.08651185 C2,0.48682469 2.46324149,1.13686838e-13 3.0342919,1.13686838e-13 L11.5410901,1.13686838e-13 C12.1121405,1.13686838e-13 12.575382,0.48682469 12.5736975,1.08651185 L12.5736975,7.5634701 L12.5770665,7.86162917 L12.5770665,8.42594152 C12.5770665,9.17386596 12.4372518,9.90157622 12.1609915,10.5888581 L12.1609915,10.5888581 Z M5.64528938,12.5765852 L5.6486584,12.5765852 L5.66887258,12.5850078 C6.17928047,12.8174708 6.72337865,12.9353868 7.28769101,12.9353868 C7.84863434,12.9353868 8.39441704,12.8174708 8.90819396,12.5883768 C9.40681025,12.3643364 9.85826014,12.0409096 10.250752,11.6298881 C10.6449284,11.213813 10.9531946,10.7303574 11.1704969,10.1929972 C11.3962219,9.63373842 11.5107689,9.04078932 11.5107689,8.42594152 L11.5107689,7.96438455 L3.06461316,7.96438455 L3.06461316,7.96438455 L3.06461316,8.42762604 C3.06461316,9.03573577 3.17916015,9.63036939 3.40488509,10.1929972 C3.62387198,10.7354109 3.93382264,11.217182 4.32463001,11.6282036 C4.71206834,12.0358561 5.15509566,12.3559138 5.64528938,12.5765852 L5.64528938,12.5765852 Z M11.5141379,6.89977139 L11.5141379,1.08651185 C11.5141379,1.07640476 11.5124534,1.06966671 11.5107689,1.06461316 L3.06798219,1.06461316 C3.06629768,1.06966671 3.06461316,1.07640476 3.06461316,1.08651185 L3.06461316,6.89977139 L11.5141379,6.89977139 L11.5141379,6.89977139 Z M6.79581278,4.50270726 L6.79581278,3.10624474 C6.79581278,2.83335339 7.01816869,2.61099747 7.29106004,2.61099747 C7.56395139,2.61099747 7.7863073,2.83335339 7.7863073,3.10624474 L7.7863073,4.50607628 C8.04909157,4.67452773 8.20575141,4.95921068 8.20575141,5.2742149 C8.20575141,5.77956925 7.79472988,6.19059078 7.28937553,6.19059078 C6.78402118,6.19059078 6.37299964,5.77956925 6.37299964,5.2742149 C6.37299964,4.96257971 6.53471303,4.66947419 6.79581278,4.50270726 L6.79581278,4.50270726 Z" id="Shape" transform="translate(7.288533, 7.000000) scale(1, -1) translate(-7.288533, -7.000000) "></path>
        </g>
        <g id="icon/明细" transform="translate(156.000000, 731.000000)" fill="#2873FF">
            <path d="M14,7.17071009 C13.9953473,7.25756065 13.8619696,7.68716074 13.6758613,8.13382076 C13.4851003,8.59443891 13.1625125,9.26132713 12.7158524,9.81810125 C12.1311621,10.5501274 11.4099922,11.1348178 10.5725047,11.5535615 C9.54425612,12.0700122 8.34075551,12.3305639 6.99767365,12.3305639 C5.65614268,12.3305639 4.45264207,12.0684613 3.42439349,11.5520106 C2.59310956,11.1363687 1.87193974,10.5532292 1.28104575,9.81810125 C0.834385732,9.25977623 0.513348842,8.592888 0.322587792,8.13226986 C0.136479451,7.68560984 0.00465270854,7.25600975 0,7.16915919 L0,7.16915919 L0,7.16605738 L0,7.16295558 L0,7.16295558 C0.00465270854,7.07610502 0.138030353,6.64650493 0.324138695,6.19829401 C0.516450648,5.73767586 0.837487537,5.07078764 1.28259665,4.51556442 C1.86728703,3.78353827 2.58845685,3.1988479 3.42594439,2.78010413 C4.46039659,2.26210258 5.66234629,2 6.99922455,2 C8.33765371,2 9.53960341,2.26210258 10.5725047,2.78010413 C11.4068904,3.197297 12.1280603,3.78198737 12.7158524,4.51401352 C13.1625125,5.07078764 13.4851003,5.73767586 13.6758613,6.19829401 C13.8619696,6.64495403 13.9953473,7.07455412 14,7.16140467 L14,7.16140467 L14,7.16450648 C14,7.16760829 14,7.16915919 14,7.17071009 L14,7.17071009 Z M12.8492301,7.16760829 C12.7608286,6.89775119 12.4180791,5.9237842 11.8504487,5.2165725 L11.8426941,5.20881799 C11.3603634,4.60396588 10.7632658,4.12163509 10.0700122,3.77268195 C9.19375208,3.33377645 8.15774898,3.11044644 6.99302094,3.11044644 C5.826742,3.11044644 4.7922898,3.33377645 3.91602969,3.77268195 C3.22432702,4.11853329 2.62878033,4.60241498 2.14334773,5.21036889 C1.57261549,5.9206824 1.22831505,6.89775119 1.13991359,7.16915919 C1.22831505,7.43901628 1.57261549,8.41453418 2.14334773,9.12794948 C2.63033123,9.7359034 3.22742882,10.2182342 3.91758059,10.5640855 C4.7953916,11.002991 5.8313947,11.2247701 6.99767365,11.2247701 C8.1686053,11.2247701 9.20305749,11.002991 10.073114,10.5640855 C10.7648167,10.2182342 11.3603634,9.7343525 11.8457959,9.12639858 C12.4165282,8.41298327 12.7608286,7.43746538 12.8492301,7.16760829 Z M6.99767365,9.86773014 C5.51501052,9.86773014 4.30995901,8.66112773 4.30995901,7.18001551 C4.30995901,5.69890329 5.51656143,4.49230088 6.99767365,4.49230088 C8.47878586,4.49230088 9.68538828,5.69890329 9.68538828,7.18001551 C9.68538828,8.66112773 8.48033677,9.86773014 6.99767365,9.86773014 Z M8.57959455,7.18001551 C8.57959455,6.75816993 8.41519885,6.36113881 8.1158746,6.06181456 C7.81655035,5.76249031 7.41951922,5.59809461 6.99767365,5.59809461 C6.57582807,5.59809461 6.17879694,5.76249031 5.87947269,6.06181456 C5.58014844,6.36113881 5.41575274,6.75816993 5.41575274,7.18001551 C5.41575274,7.60186108 5.58014844,7.99889221 5.87947269,8.29821646 C6.17879694,8.59754071 6.57582807,8.76193641 6.99767365,8.76193641 C7.41951922,8.76193641 7.81655035,8.59754071 8.1158746,8.29821646 C8.41519885,7.99889221 8.57959455,7.60186108 8.57959455,7.18001551 Z" id="Shape" transform="translate(7.000000, 7.165282) scale(1, -1) translate(-7.000000, -7.165282) "></path>
        </g>
        <g id="icon/删除" transform="translate(194.000000, 732.000000)" fill="#F56C6C">
            <path d="M6.45124981,5.49957275 L10.802748,9.85069525 C11.0657507,10.1138818 11.0657507,10.5394236 10.802748,10.8009011 C10.5397454,11.0640876 10.1145009,11.0640876 9.85320602,10.8009011 L5.5,6.45148761 L1.14679398,10.8026101 C0.883791337,11.0657966 0.45854681,11.0657966 0.19725198,10.8026101 C-0.0657506598,10.5394236 -0.0657506598,10.1138818 0.19725198,9.85240426 L4.54875019,5.50128175 L0.19725198,1.14845024 C-0.0657506598,0.88526373 -0.0657506598,0.459721899 0.19725198,0.198244387 C0.328753299,0.0666511303 0.501242043,0.00170900334 0.672022978,0.00170900334 C0.844511722,0.00170900334 1.01529266,0.0666511303 1.14679398,0.198244387 L5.5,4.54936689 L9.85320602,0.196535384 C9.98470734,0.0649421269 10.1554883,-1.13686838e-13 10.327977,-1.13686838e-13 C10.5004658,-1.13686838e-13 10.6712467,0.0649421269 10.802748,0.196535384 C11.0657507,0.459721899 11.0657507,0.88526373 10.802748,1.14674124 L6.45124981,5.49957275 Z" id="Shape" transform="translate(5.500000, 5.500000) scale(1, -1) translate(-5.500000, -5.500000) "></path>
        </g>
        <g id="icon/菜单栏/新建广告" transform="translate(292.000000, 380.000000)" fill="#FFFFFF">
            <path d="M17.1627907,9.07517577 L9.75581395,9.07517577 L9.75581395,15.7923202 C9.75581395,16.2228231 9.38139535,16.5711195 8.91860465,16.5711195 L8.91860465,16.5711195 C8.45581395,16.5711195 8.08139535,16.2228231 8.08139535,15.7923202 L8.08139535,9.07517577 L0.837209302,9.07517577 C0.374418605,9.07517577 0,8.72687939 0,8.29637642 L0,8.29637642 C0,7.86587345 0.374418605,7.51757707 0.837209302,7.51757707 L8.08139535,7.51757707 L8.08139535,0.778799351 C8.08139535,0.348296376 8.45581395,0 8.91860465,0 L8.91860465,0 C9.38139535,0 9.75581395,0.348296376 9.75581395,0.778799351 L9.75581395,7.51757707 L17.1627907,7.51757707 C17.6255814,7.51757707 18,7.86587345 18,8.29637642 L18,8.29637642 C18,8.72687939 17.6255814,9.07517577 17.1627907,9.07517577 L17.1627907,9.07517577 Z" id="Shape" transform="translate(9.000000, 8.285560) scale(1, -1) translate(-9.000000, -8.285560) "></path>
        </g>
        <g id="icon/概览" transform="translate(92.000000, 378.000000)" fill="#FFFFFF">
            <path d="M11.7535909,16.1590909 L16.3636364,16.1590909 L16.3636364,12.7374545 L11.7535909,12.7374545 L11.7535909,16.1590909 Z M11.2688182,17.7954545 C10.6339091,17.7954545 10.1172273,17.2816364 10.1172273,16.65 L10.1172273,12.2465455 C10.1172273,11.6151136 10.6339091,11.1010909 11.2688182,11.1010909 L16.8486136,11.1010909 C17.4835227,11.1010909 18,11.6151136 18,12.2465455 L18,16.6502045 C18,17.2816364 17.4835227,17.7954545 16.8488182,17.7954545 L11.2688182,17.7954545 Z M1.63636364,16.1590909 L6.24640909,16.1590909 L6.24640909,12.7374545 L1.63636364,12.7374545 L1.63636364,16.1590909 Z M6.73138636,17.7954545 L1.15138636,17.7954545 C0.516477273,17.7954545 0,17.2816364 0,16.65 L0,12.2465455 C0,11.6151136 0.516477273,11.1010909 1.15138636,11.1010909 L6.73118182,11.1010909 C7.36609091,11.1010909 7.88277273,11.6151136 7.88277273,12.2465455 L7.88277273,16.6502045 C7.88277273,17.2816364 7.36629545,17.7954545 6.73138636,17.7954545 L6.73138636,17.7954545 Z M11.7535909,7.30779545 L16.3636364,7.30779545 L16.3636364,3.88615909 L11.7535909,3.88615909 L11.7535909,7.30779545 Z M16.8488182,8.94415909 L11.2688182,8.94415909 C10.6339091,8.94415909 10.1172273,8.43034091 10.1172273,7.79870455 L10.1172273,3.39504545 C10.1172273,2.76361364 10.6337045,2.25 11.2682045,2.25 L16.8486136,2.25 C17.4835227,2.25 18,2.76381818 18,3.39545455 L18,7.79890909 C18,8.43054545 17.4835227,8.94415909 16.8488182,8.94415909 L16.8488182,8.94415909 Z M1.63636364,7.30779545 L6.24640909,7.30779545 L6.24640909,3.88615909 L1.63636364,3.88615909 L1.63636364,7.30779545 Z M6.73138636,8.94415909 L1.15138636,8.94415909 C0.516477273,8.94415909 0,8.43034091 0,7.79870455 L0,3.39504545 C0,2.76361364 0.516272727,2.25 1.15097727,2.25 L6.73118182,2.25 C7.36609091,2.25 7.88277273,2.76381818 7.88277273,3.39545455 L7.88277273,7.79890909 C7.88277273,8.43054545 7.36629545,8.94415909 6.73138636,8.94415909 L6.73138636,8.94415909 Z" id="view-thumb"></path>
        </g>
        <g id="icon/广告管理" transform="translate(142.000000, 378.000000)" fill="#FFFFFF">
            <path d="M6.69052174,12.6521739 L11.309087,12.6521739 C11.7412826,12.6521739 12.0916957,12.3017609 12.0916957,11.8695652 C12.0916957,11.4373696 11.7412826,11.0869565 11.309087,11.0869565 L6.69052174,11.0869565 C6.25832609,11.0869565 5.90791304,11.4373696 5.90791304,11.8695652 C5.90791304,12.3017609 6.25832609,12.6521739 6.69052174,12.6521739 L6.69052174,12.6521739 Z M16.1894348,8.73913043 L1.80586957,8.73913043 L3.84906522,16.173913 L8.99980435,16.173913 L14.1116087,16.173913 L16.1894348,8.73913043 Z M18,5.72843478 L18,7.86065217 L18,7.86221739 L18,7.8626087 L18,7.86378261 C18,7.86397826 17.9998043,7.86397826 17.9998043,7.86397826 C17.999413,7.94126087 17.9880652,8.01580435 17.9669348,8.08623913 L15.462,17.1646957 C15.3682826,17.5039565 15.0595435,17.7391304 14.7075652,17.7391304 L3.25056522,17.7391304 C2.89721739,17.7391304 2.58769565,17.5023913 2.49515217,17.1613696 L0.0320869565,8.08291304 C0.0205434783,8.04436957 0.0119347826,8.00445652 0.00665217391,7.96376087 C0.00136956522,7.92326087 0,7.88276087 0,7.84284783 L0,5.72843478 C0,5.29623913 0.350413043,4.94582609 0.782608696,4.94582609 C1.21480435,4.94582609 1.56521739,5.29623913 1.56521739,5.72843478 L1.56521739,7.17391304 L16.4347826,7.17391304 L16.4347826,5.72843478 C16.4347826,5.29623913 16.7851957,4.94582609 17.2173913,4.94582609 C17.649587,4.94582609 18,5.29623913 18,5.72843478 L18,5.72843478 Z M5.14702174,2.86956522 L12.852587,2.86956522 C13.2307826,2.86956522 13.5373696,2.56297826 13.5373696,2.18478261 C13.5373696,1.80658696 13.2307826,1.5 12.852587,1.5 L5.14702174,1.5 C4.76882609,1.5 4.46223913,1.80658696 4.46223913,2.18478261 C4.46223913,2.56297826 4.76882609,2.86956522 5.14702174,2.86956522 L5.14702174,2.86956522 Z M3.08054348,4.82608696 C3.08054348,4.3938913 3.43115217,4.04347826 3.86315217,4.04347826 L14.1364565,4.04347826 C14.5686522,4.04347826 14.9190652,4.3938913 14.9190652,4.82608696 C14.9190652,5.25828261 14.5686522,5.60869565 14.1364565,5.60869565 L3.86315217,5.60869565 C3.43115217,5.60869565 3.08054348,5.25828261 3.08054348,4.82608696 L3.08054348,4.82608696 Z" id="archive"></path>
        </g>
        <g id="icon/报表" transform="translate(192.000000, 378.000000)" fill="#FFFFFF">
            <path d="M2.83108696,10.742087 C3.24176087,13.940413 6.12234783,16.4261739 9.60358696,16.4261739 C13.365587,16.4261739 16.4261739,13.3653913 16.4261739,9.6033913 C16.4261739,6.18534783 13.8952174,3.25741304 10.7422826,2.83363043 L10.7422826,9.95517391 C10.7422826,10.3897174 10.389913,10.742087 9.95536957,10.742087 L2.83108696,10.742087 Z M9.60358696,18 C4.97386957,18 1.20717391,14.391 1.20717391,9.95517391 C1.20717391,9.52063043 1.55954348,9.16826087 1.99408696,9.16826087 L9.16845652,9.16826087 L9.16845652,1.9938913 C9.16845652,1.55934783 9.52082609,1.20697826 9.95536957,1.20697826 C14.3160652,1.20697826 18,5.05213043 18,9.6033913 C18,14.2333043 14.2333043,18 9.60358696,18 L9.60358696,18 Z M1.4223913,5.89480435 L5.895,5.89480435 L5.895,1.4223913 C3.57378261,1.73034783 1.73034783,3.57358696 1.4223913,5.89480435 L1.4223913,5.89480435 Z M6.5835,7.27180435 L0.6885,7.27180435 C0.308152174,7.27180435 0,6.96365217 0,6.58330435 C0,2.95317391 2.95336957,0 6.5835,0 C6.96384783,0 7.272,0.308152174 7.272,0.6885 L7.272,6.58330435 C7.272,6.96365217 6.96384783,7.27180435 6.5835,7.27180435 L6.5835,7.27180435 Z" id="graph-pie"></path>
        </g>
        <g id="icon/工具箱" transform="translate(242.000000, 378.000000)" fill="#FFFFFF">
            <path d="M1.56521739,16.3369565 L1.56521739,12.2282609 L7.04347826,12.2282609 L7.04347826,12.4217609 C7.04347826,12.7459565 7.35730435,13.0108696 7.68130435,13.0108696 L10.3186957,13.0108696 C10.6426957,13.0108696 10.9565217,12.7459565 10.9565217,12.4217609 L10.9565217,12.2282609 L16.4320435,12.2282609 L16.430087,16.3369565 L1.56521739,16.3369565 Z M8.2173913,11.8369565 L9.7826087,11.8369565 L9.7826087,11.4456522 L8.2173913,11.4456522 L8.2173913,11.8369565 Z M16.4343913,6.94565217 L16.4324348,11.0543478 L10.9565217,11.0543478 L10.9565217,10.7704565 C10.9565217,10.4464565 10.6426957,10.2717391 10.3186957,10.2717391 L7.68130435,10.2717391 C7.35730435,10.2717391 7.04347826,10.4464565 7.04347826,10.7704565 L7.04347826,11.0543478 L1.56521739,11.0543478 L1.56521739,6.94565217 L16.4343913,6.94565217 Z M6.45652174,5.38043478 L11.5434783,5.38043478 L11.5434783,3.81521739 L6.45652174,3.81521739 L6.45652174,5.38043478 Z M17.7708913,5.56473913 C17.6241522,5.41780435 17.4249783,5.38043478 17.2173913,5.38043478 L13.1086957,5.38043478 L13.1086957,3.0326087 C13.1086957,2.60041304 12.7201304,2.25 12.2879348,2.25 L5.71206522,2.25 C5.27986957,2.25 4.89130435,2.60041304 4.89130435,3.0326087 L4.89130435,5.38043478 L0.782608696,5.38043478 C0.350413043,5.38043478 0,5.64065217 0,6.07284783 L0,17.1195652 C0,17.5517609 0.350413043,17.9021739 0.782608696,17.9021739 L17.2123043,17.9021739 C17.6443043,17.9021739 17.9947174,17.5519565 17.994913,17.1199565 L18,6.09573913 C18,5.88815217 17.9176304,5.71147826 17.7708913,5.56473913 L17.7708913,5.56473913 Z" id="briefcase"></path>
        </g>
        <g id="客户管理" transform="translate(158.000000, 268.000000)">
            <circle id="Oval-2" fill="#10CFDD" fill-rule="evenodd" cx="30" cy="30" r="30"></circle>
            <text id="c" font-family=".SFNSDisplay, .SF NS Display" font-size="56" font-weight="normal" fill="#FFFFFF" fill-opacity="0.85">
                <tspan x="16" y="40">c</tspan>
            </text>
        </g>
        <g id="icon/广告统计" transform="translate(243.000000, 266.000000)">
            <g id="Group">
                <g id="Oval-2">
                    <use fill="black" fill-opacity="1" filter="url(#filter-22)" xlink:href="#path-21"></use>
                    <use fill="#FFFFFF" fill-rule="evenodd" xlink:href="#path-21"></use>
                </g>
                <g id="icon/广告统计" transform="translate(14.000000, 14.000000)">
                    <g id="Page-1" transform="translate(3.000000, 3.000000)">
                        <path d="M6.3999,26.5998 L4.7999,26.5998 C3.6949,26.5998 2.7999,25.7038 2.7999,24.5998 L2.7999,4.7998 C2.7999,3.6958 3.6949,2.7998 4.7999,2.7998 L6.3999,2.7998 C7.5039,2.7998 8.3999,3.6958 8.3999,4.7998 L8.3999,24.5998 C8.3999,25.7038 7.5039,26.5998 6.3999,26.5998" id="Fill-1" fill-opacity="0.45" fill="#2873FF"></path>
                        <path d="M16.2002,26.5998 L14.6002,26.5998 C13.4952,26.5998 12.6002,25.7038 12.6002,24.5998 L12.6002,14.5998 C12.6002,13.4958 13.4952,12.5998 14.6002,12.5998 L16.2002,12.5998 C17.3042,12.5998 18.2002,13.4958 18.2002,14.5998 L18.2002,24.5998 C18.2002,25.7038 17.3042,26.5998 16.2002,26.5998" id="Fill-3" fill-opacity="0.45" fill="#2873FF"></path>
                        <path d="M26,26.5998 L24.4,26.5998 C23.295,26.5998 22.4,25.7038 22.4,24.5998 L22.4,7.5998 C22.4,6.4958 23.295,5.5998 24.4,5.5998 L26,5.5998 C27.104,5.5998 28,6.4958 28,7.5998 L28,24.5998 C28,25.7038 27.104,26.5998 26,26.5998" id="Fill-5" fill-opacity="0.45" fill="#2873FF"></path>
                        <path d="M3.6001,23.8 L2.0001,23.8 C0.8951,23.8 0.0001,22.904 0.0001,21.8 L0.0001,2 C0.0001,0.896 0.8951,0 2.0001,0 L3.6001,0 C4.7041,0 5.6001,0.896 5.6001,2 L5.6001,21.8 C5.6001,22.904 4.7041,23.8 3.6001,23.8 Z" id="Stroke-7" stroke="#2873FF" stroke-width="2" stroke-linecap="round"></path>
                        <path d="M13.3999,23.8 L11.7999,23.8 C10.6949,23.8 9.7999,22.904 9.7999,21.8 L9.7999,11.8 C9.7999,10.696 10.6949,9.8 11.7999,9.8 L13.3999,9.8 C14.5039,9.8 15.3999,10.696 15.3999,11.8 L15.3999,21.8 C15.3999,22.904 14.5039,23.8 13.3999,23.8 Z" id="Stroke-9" stroke="#2873FF" stroke-width="2" stroke-linecap="round"></path>
                        <path d="M23.2002,23.8 L21.6002,23.8 C20.4952,23.8 19.6002,22.904 19.6002,21.8 L19.6002,4.8 C19.6002,3.696 20.4952,2.8 21.6002,2.8 L23.2002,2.8 C24.3042,2.8 25.2002,3.696 25.2002,4.8 L25.2002,21.8 C25.2002,22.904 24.3042,23.8 23.2002,23.8 Z" id="Stroke-11" stroke="#2873FF" stroke-width="2" stroke-linecap="round"></path>
                    </g>
                </g>
            </g>
        </g>
        <g id="icon/财务信息" transform="translate(74.000000, 439.000000)" fill="#000000" fill-opacity="0.65">
            <g id="Page-1">
                <path d="M13,0 C5.82,0 0,5.82 0,13 C0,20.18 5.82,26 13,26 C20.18,26 26,20.18 26,13 C26,5.82 20.18,0 13,0 M13,2 C19.065,2 24,6.935 24,13 C24,19.065 19.065,24 13,24 C6.935,24 2,19.065 2,13 C2,6.935 6.935,2 13,2" id="Fill-1"></path>
                <path d="M17.9761,15.3174 L14.0001,15.3174 L14.0001,12.8944 L17.9761,12.8944 C18.5281,12.8944 18.9761,12.4474 18.9761,11.8944 C18.9761,11.3414 18.5281,10.8944 17.9761,10.8944 L14.8801,10.8944 L17.5561,6.9234 C17.8641,6.4654 17.7441,5.8444 17.2861,5.5364 C16.8281,5.2284 16.2061,5.3474 15.8971,5.8064 L13.0001,10.1054 L10.1021,5.8064 C9.7931,5.3474 9.1721,5.2284 8.7141,5.5364 C8.2561,5.8444 8.1361,6.4654 8.4441,6.9234 L11.1201,10.8944 L8.0241,10.8944 C7.4721,10.8944 7.0241,11.3414 7.0241,11.8944 C7.0241,12.4474 7.4721,12.8944 8.0241,12.8944 L12.0001,12.8944 L12.0001,15.3174 L8.0241,15.3174 C7.4721,15.3174 7.0241,15.7644 7.0241,16.3174 C7.0241,16.8704 7.4721,17.3174 8.0241,17.3174 L12.0001,17.3174 L12.0001,20.7404 C12.0001,21.2934 12.4481,21.7404 13.0001,21.7404 C13.5521,21.7404 14.0001,21.2934 14.0001,20.7404 L14.0001,17.3174 L17.9761,17.3174 C18.5281,17.3174 18.9761,16.8704 18.9761,16.3174 C18.9761,15.7644 18.5281,15.3174 17.9761,15.3174" id="Fill-3"></path>
            </g>
        </g>
        <g id="icon/帮助信息" transform="translate(124.000000, 439.000000)" fill="#000000" fill-opacity="0.65">
            <path d="M13,24 C14.485,24 15.925,23.71 17.28,23.1375 C18.59,22.5825 19.765,21.79 20.7775,20.78 C21.7875,19.77 22.5825,18.5925 23.135,17.2825 C23.71,15.925 24,14.485 24,13 C24,11.515 23.71,10.075 23.1375,8.72 C22.5825,7.41 21.79,6.235 20.78,5.2225 C19.77,4.2125 18.5925,3.4175 17.2825,2.865 C15.925,2.29 14.485,2 13,2 C11.515,2 10.075,2.29 8.72,2.8625 C7.41,3.4175 6.235,4.21 5.2225,5.22 C4.2125,6.23 3.4175,7.4075 2.865,8.7175 C2.29,10.075 2,11.515 2,13 C2,14.485 2.29,15.925 2.8625,17.28 C3.4175,18.59 4.21,19.765 5.22,20.7775 C6.23,21.7875 7.4075,22.5825 8.7175,23.135 C10.075,23.71 11.515,24 13,24 L13,24 Z M13,26 C5.81953125,26 0,20.1804687 0,13 C0,5.81953125 5.81953125,0 13,0 C20.1804687,0 26,5.81953125 26,13 C26,20.1804687 20.1804687,26 13,26 L13,26 L13,26 Z M13,10 C12.4475,10 12,10.4385301 12,10.9799555 L12,20.0200445 C12,20.5614699 12.4475,21 13,21 C13.5525,21 14,20.5614699 14,20.0200445 L14,10.9799555 C14,10.4385301 13.5525,10 13,10 L13,10 Z M12,7 C12,7.55228475 12.4477153,8 13,8 C13.5522847,8 14,7.55228475 14,7 C14,6.44771525 13.5522847,6 13,6 C12.4477153,6 12,6.44771525 12,7 L12,7 Z" id="Shape" transform="translate(13.000000, 13.000000) scale(1, -1) translate(-13.000000, -13.000000) "></path>
        </g>
        <g id="icon/计划" transform="translate(74.000000, 508.000000)">
            <g id="Page-1" transform="translate(3.000000, 1.500000)">
                <path d="M18,6.97995 L18,18.8817 C18,19.6377 17.3025,20.2497 16.44225,20.2497 L4.83,20.2497 C3.96975,20.2497 3.273,19.6377 3.273,18.8817 L3.273,4.36845 C3.273,3.61245 3.96975,2.9997 4.83,2.9997 L13.521,2.9997 C13.93875,2.9997 14.33925,3.14745 14.63175,3.4092 L17.55375,6.02145 C17.8395,6.2772 18,6.6207 18,6.97995" id="Fill-1" fill="#CCE5FF"></path>
                <g id="Group-5">
                    <mask id="mask-24" fill="white">
                        <use xlink:href="#path-23"></use>
                    </mask>
                    <g id="Clip-4"></g>
                    <path d="M11.4822,0 L1.74495,0 C0.7812,0 -0.0003,0.666 -0.0003,1.4865 L-0.0003,17.2635 C-0.0003,18.084 0.7812,18.75 1.74495,18.75 L14.7552,18.75 C15.71895,18.75 16.4997,18.084 16.4997,17.2635 L16.4997,4.326 C16.4997,3.936 16.32045,3.56175 15.99945,3.2835 L12.72645,0.44475 C12.3987,0.1605 11.9502,0 11.4822,0 M11.4822,1.5 C11.6007,1.5 11.69895,1.539 11.74395,1.578 L14.9997,4.40325 L14.9997,17.18475 C14.9607,17.21175 14.8797,17.25 14.7552,17.25 L1.74495,17.25 C1.62045,17.25 1.53945,17.21175 1.4997,17.18475 L1.4997,1.56525 C1.53945,1.53825 1.62045,1.5 1.74495,1.5 L11.4822,1.5" id="Fill-3" fill="#2873FF" mask="url(#mask-24)"></path>
                </g>
                <path d="M3.8181,7.596675 L10.3641,7.596675" id="Stroke-6" stroke="#2873FF" stroke-width="2" stroke-linecap="round"></path>
                <path d="M3.8181,10.972425 L12.8181,10.972425" id="Stroke-8" stroke="#2873FF" stroke-width="2" stroke-linecap="round"></path>
                <path d="M3.8181,14.34885 L10.3641,14.34885" id="Stroke-10" stroke="#2873FF" stroke-width="2" stroke-linecap="round"></path>
                <path d="M10.3638,0.84375 L10.3638,3.3765 C10.3638,4.30875 11.09655,5.06475 12.0003,5.06475 L15.27255,5.06475" id="Stroke-12" stroke="#2873FF" stroke-width="2"></path>
            </g>
        </g>
        <g id="icon/组" transform="translate(122.000000, 508.000000)">
            <g id="Page-1" transform="translate(1.500000, 2.250000)">
                <path d="M19.519425,4.0386 L10.782675,4.0386 L10.266675,2.61435 C10.041675,1.99335 9.497175,1.5861 8.891925,1.5861 L4.711425,1.5861 C3.893925,1.5861 3.230925,2.3181 3.230925,3.2211 L3.230925,4.0386 L3.230925,5.6736 L3.230925,17.1156 C3.230925,18.0186 3.893925,18.74985 4.711425,18.74985 L19.519425,18.74985 C20.336925,18.74985 20.999925,18.0186 20.999925,17.1156 L20.999925,5.6736 C20.999925,4.7706 20.336925,4.0386 19.519425,4.0386" id="Fill-1" fill="#CCE5FF"></path>
                <path d="M17.88465,2.596425 L0.00015,2.596425 L0.00015,15.749925 C0.00015,16.578675 0.6714,17.249925 1.50015,17.249925 L17.88465,17.249925 C18.71265,17.249925 19.38465,16.578675 19.38465,15.749925 L19.38465,4.096425 C19.38465,3.268425 18.71265,2.596425 17.88465,2.596425 Z M1.50015,15.749925 L17.88465,15.749925 L17.88465,4.096425 L1.50015,4.096425 L1.50015,15.749925 Z" id="Fill-3" fill="#2873FF"></path>
                <g id="Group-7">
                    <mask id="mask-26" fill="white">
                        <use xlink:href="#path-25"></use>
                    </mask>
                    <g id="Clip-6"></g>
                    <path d="M6.175425,0 L1.615425,0 C0.722925,0 -7.5e-05,0.672 -7.5e-05,1.5 L-7.5e-05,3.75 L8.884425,3.75 L7.675425,0.94275 C7.430175,0.3735 6.836175,0 6.175425,0 M6.175425,1.5 C6.252675,1.5 6.294675,1.5345 6.297675,1.53675 L6.605175,2.25 L1.499925,2.25 L1.499925,1.53375 C1.516425,1.52025 1.552425,1.5 1.615425,1.5 L6.175425,1.5" id="Fill-5" fill="#2873FF"></path>
                </g>
            </g>
        </g>
        <g id="icon/素材" transform="translate(170.000000, 508.000000)">
            <g id="Page-1" transform="translate(1.500000, 2.250000)">
                <g id="Group-3" transform="translate(3.000000, 3.000000)">
                    <mask id="mask-28" fill="white">
                        <use xlink:href="#path-27"></use>
                    </mask>
                    <g id="Clip-2"></g>
                    <path d="M16.39185,15.75 L1.5606,15.75 C0.7416,15.75 0.07785,15.018 0.07785,14.115 L0.07785,9.4845 L0.07785,2.13 C0.07785,1.227 0.7416,0.495 1.5606,0.495 L16.39185,0.495 C17.21085,0.495 17.87535,1.227 17.87535,2.13 L17.87535,14.115 C17.87535,15.018 17.21085,15.75 16.39185,15.75" id="Fill-1" fill="#CCE5FF" mask="url(#mask-28)"></path>
                </g>
                <path d="M17.663325,0 L1.605825,0 C0.718575,0 7.5e-05,0.828 7.5e-05,1.848 L7.5e-05,10.1655 L7.5e-05,15.402 C7.5e-05,16.422 0.718575,17.25 1.605825,17.25 L17.663325,17.25 C18.550575,17.25 19.269075,16.422 19.269075,15.402 L19.269075,1.848 C19.269075,0.828 18.550575,0 17.663325,0 M17.641575,1.5 C17.682075,1.5315 17.769075,1.65075 17.769075,1.848 L17.769075,15.402 C17.769075,15.61575 17.667075,15.738 17.663325,15.75 L1.637325,15.756 C1.602075,15.738 1.500075,15.61575 1.500075,15.402 L1.500075,10.1655 L1.500075,1.848 C1.500075,1.63425 1.602075,1.512 1.605825,1.5 L17.641575,1.5" id="Fill-4" fill="#2873FF"></path>
                <polyline id="Stroke-6" stroke="#2873FF" stroke-width="2" points="0.80295 12.66135 4.8177 7.0416 10.43745 12.66135 14.4522 9.44985 18.4662 12.66135"></polyline>
                <path d="M16.057875,5.435325 C16.057875,6.322575 15.338625,7.041825 14.452125,7.041825 C13.564875,7.041825 12.846375,6.322575 12.846375,5.435325 C12.846375,4.548075 13.564875,3.829575 14.452125,3.829575 C15.338625,3.829575 16.057875,4.548075 16.057875,5.435325" id="Fill-8" fill="#2873FF"></path>
            </g>
        </g>
        <g id="icon/现金账户" transform="translate(251.000000, 181.000000)">
            <g id="Page-1" transform="translate(1.125000, 0.562500)">
                <path d="M15.805575,9.2937375 C15.805575,13.176675 12.6572625,16.3249875 8.774325,16.3249875 C4.8913875,16.3249875 1.743075,13.176675 1.743075,9.2937375 C1.743075,5.4108 4.8913875,2.2624875 8.774325,2.2624875 C12.6572625,2.2624875 15.805575,5.4108 15.805575,9.2937375" id="Fill-1" fill="#FFF1B8"></path>
                <g id="Group-5" transform="translate(0.000000, 0.012488)">
                    <mask id="mask-30" fill="white">
                        <use xlink:href="#path-29"></use>
                    </mask>
                    <g id="Clip-4"></g>
                    <path d="M7.3126125,0.54984375 C3.2738625,0.54984375 0.0001125,3.82359375 0.0001125,7.86234375 C0.0001125,11.9010937 3.2738625,15.1748437 7.3126125,15.1748437 C11.3513625,15.1748437 14.6251125,11.9010937 14.6251125,7.86234375 C14.6251125,3.82359375 11.3513625,0.54984375 7.3126125,0.54984375 M7.3126125,1.67484375 C10.724175,1.67484375 13.5001125,4.45078125 13.5001125,7.86234375 C13.5001125,11.2739062 10.724175,14.0498437 7.3126125,14.0498437 C3.90105,14.0498437 1.1251125,11.2739062 1.1251125,7.86234375 C1.1251125,4.45078125 3.90105,1.67484375 7.3126125,1.67484375" id="Fill-3" fill="#FAAD14" mask="url(#mask-30)"></path>
                </g>
                <path d="M4.51355625,7.25304375 L10.1115563,7.25304375" id="Stroke-6" stroke="#FAAD14" stroke-width="2" stroke-linecap="round"></path>
                <path d="M4.51355625,9.74086875 L10.1115563,9.74086875" id="Stroke-8" stroke="#FAAD14" stroke-width="2" stroke-linecap="round"></path>
                <path d="M7.3126125,7.25304375 L7.3126125,12.2289187" id="Stroke-10" stroke="#FAAD14" stroke-width="2" stroke-linecap="round"></path>
                <polyline id="Stroke-12" stroke="#FAAD14" stroke-width="2" stroke-linecap="round" points="5.2164 4.14331875 7.3128375 7.25281875 9.4087125 4.14331875"></polyline>
            </g>
        </g>
        <path d="M315.375,197.375 L304.125,197.375 C303.504,197.375 303,196.759 303,196 L303,186.375 C303,185.616 303.504,185 304.125,185 L315.375,185 C315.996,185 316.5,185.616 316.5,186.375 L316.5,196 C316.5,196.759 315.996,197.375 315.375,197.375" id="Fill-1" fill="#50E394" opacity="0.341995018"></path>
        <path d="M302.125,183 C301.503437,183 301,183.504 301,184.125 L301,195.375618 C301,195.99718 301.503437,196.500618 302.125,196.500618 L314.059563,196.500618 C314.680563,196.500618 315.077849,195.99718 315.077849,195.375618 L315.077849,184.125 C315.077849,183.504 314.680562,183 314.059562,183 L302.125,183 Z M302.125,195.36216 L313.957313,195.36216 L313.957313,184.125 L302.125,184.125 L302.125,195.36216 Z" id="Fill-3" fill="#50E394"></path>
        <path d="M301,185.5625 L314.5,185.5625" id="Stroke-5" stroke="#50E394" stroke-width="2"></path>
        <path d="M302,189.5625 L307.0625,189.5625" id="Stroke-7" stroke="#50E394" stroke-width="2" stroke-linecap="round"></path>
        <path d="M302,192.5625 L307.0625,192.5625" id="Stroke-7-Copy" stroke="#50E394" stroke-width="2" stroke-linecap="round"></path>
        <g id="icon/已有计划" transform="translate(370.000000, 174.000000)">
            <g id="Page-1" transform="translate(2.000000, 1.000000)">
                <path d="M28.0988,16.3555 C28.0988,23.2585 22.5018,28.8555 15.5988,28.8555 C8.6958,28.8555 3.0988,23.2585 3.0988,16.3555 C3.0988,9.4525 8.6958,3.8555 15.5988,3.8555 C22.5018,3.8555 28.0988,9.4525 28.0988,16.3555" id="Fill-1" fill="#CCE5FF"></path>
                <g id="Group-5" transform="translate(0.000000, 0.855500)">
                    <mask id="mask-32" fill="white">
                        <use xlink:href="#path-31"></use>
                    </mask>
                    <g id="Clip-4"></g>
                    <path d="M13.0002,0.1445 C5.8202,0.1445 0.0002,5.9645 0.0002,13.1445 C0.0002,20.3245 5.8202,26.1445 13.0002,26.1445 C20.1802,26.1445 26.0002,20.3245 26.0002,13.1445 C26.0002,5.9645 20.1802,0.1445 13.0002,0.1445 M13.0002,2.1445 C19.0652,2.1445 24.0002,7.0795 24.0002,13.1445 C24.0002,19.2095 19.0652,24.1445 13.0002,24.1445 C6.9352,24.1445 2.0002,19.2095 2.0002,13.1445 C2.0002,7.0795 6.9352,2.1445 13.0002,2.1445" id="Fill-3" fill="#2873FF" mask="url(#mask-32)"></path>
                </g>
                <path d="M13.0988,5.8555 L13.0988,14.8555" id="Stroke-6" stroke="#2873FF" stroke-width="2" stroke-linecap="round"></path>
                <path d="M13.0988,14.8555 L20.0988,14.8555" id="Stroke-8" stroke="#2873FF" stroke-width="2" stroke-linecap="round"></path>
            </g>
        </g>
        <g id="icon/新建计划" transform="translate(426.000000, 174.000000)">
            <g id="Page-1" transform="translate(2.000000, 1.000000)">
                <g id="Group-3" transform="translate(3.000000, 3.855500)">
                    <mask id="mask-34" fill="white">
                        <use xlink:href="#path-33"></use>
                    </mask>
                    <g id="Clip-2"></g>
                    <path d="M25.0155,12.5 C25.0155,19.403 19.4185,25 12.5155,25 C5.6125,25 0.0155,19.403 0.0155,12.5 C0.0155,5.597 5.6125,0 12.5155,0 C19.4185,0 25.0155,5.597 25.0155,12.5" id="Fill-1" fill="#CCE5FF" mask="url(#mask-34)"></path>
                </g>
                <g id="Group-6" transform="translate(0.000000, 0.855500)">
                    <mask id="mask-36" fill="white">
                        <use xlink:href="#path-35"></use>
                    </mask>
                    <g id="Clip-5"></g>
                    <path d="M12.9998,0.1445 C5.8198,0.1445 -0.0002,5.9645 -0.0002,13.1445 C-0.0002,20.3245 5.8198,26.1445 12.9998,26.1445 C20.1798,26.1445 25.9998,20.3245 25.9998,13.1445 C25.9998,5.9645 20.1798,0.1445 12.9998,0.1445 M12.9998,2.1445 C19.0648,2.1445 23.9998,7.0795 23.9998,13.1445 C23.9998,19.2095 19.0648,24.1445 12.9998,24.1445 C6.9348,24.1445 1.9998,19.2095 1.9998,13.1445 C1.9998,7.0795 6.9348,2.1445 12.9998,2.1445" id="Fill-4" fill="#2873FF" mask="url(#mask-36)"></path>
                </g>
                <path d="M8.0155,13.8555 L18.0155,13.8555" id="Stroke-7" stroke="#2873FF" stroke-width="2" stroke-linecap="round"></path>
                <path d="M13.0155,8.8555 L13.0155,18.8555" id="Stroke-9" stroke="#2873FF" stroke-width="2" stroke-linecap="round"></path>
            </g>
        </g>
        <g id="Group-6" transform="translate(74.000000, 268.000000)">
            <g id="Group-3">
                <mask id="mask-38" fill="white">
                    <use xlink:href="#path-37"></use>
                </mask>
                <g id="Clip-2"></g>
                <path d="M59.9422038,30.028925 C59.9422038,46.581467 46.5236372,59.9999664 29.9710952,59.9999664 C13.418486,59.9999664 -1.34378499e-05,46.581467 -1.34378499e-05,30.028925 C-1.34378499e-05,13.476383 13.418486,0.0578163494 29.9710952,0.0578163494 C46.5236372,0.0578163494 59.9422038,13.476383 59.9422038,30.028925" id="Fill-1" fill="#2780C3" mask="url(#mask-38)"></path>
            </g>
            <path d="M27.0543606,33.2168707 C32.2482146,33.2168707 36.4978844,37.2955134 36.4978844,42.2806835 C36.4978844,43.7763341 33.3344133,45 31.7761561,45 L15.7219974,45 C14.1637403,45 11,43.7763341 11,42.2806835 C11,37.2955134 15.2496698,33.2168707 20.4436584,33.2168707 L27.0543606,33.2168707 Z M23.7490095,30.9457049 C19.5768388,30.9457049 16.1939886,27.6991523 16.1939886,23.6946812 C16.1939886,19.6898116 19.5768388,16.443591 23.7490095,16.443591 C27.9215166,16.443591 31.3038958,19.6898116 31.3038958,23.6946812 C31.3038958,27.6991523 27.9215166,30.9457049 23.7490095,30.9457049 Z M36.2509232,26.5022466 C35.1534226,26.5022466 34.1106827,26.2774076 33.1693912,25.8730826 C33.3097239,25.2127758 33.3804284,24.539587 33.3799574,23.864738 C33.3799574,20.705372 31.8515025,17.8895062 29.466319,16.059054 C30.6961466,13.6549503 33.2719161,12 36.2509232,12 C40.4236321,12 43.8059441,15.2463534 43.8059441,19.2510237 C43.8059441,23.2559596 40.4236321,26.5022466 36.2509232,26.5022466 Z M44.2780026,40.5566082 L39.0072549,40.5566082 C37.8486699,36.0924323 33.9897249,32.6246929 29.2098722,31.8611966 C30.3461224,31.0433166 31.3028195,30.0075035 32.0119499,28.8183669 C32.3222828,28.7884858 32.6338938,28.7732796 32.945774,28.7732796 L39.5562743,28.7732796 C44.750532,28.7732796 49,32.8520552 49,37.8370261 C49,39.3327431 45.8362597,40.5566082 44.2780026,40.5566082 Z" id="Fill-4" fill="#FEFEFE" opacity="0.842075893"></path>
        </g>
        <text id="系统图标" font-family="PingFangSC-Light, PingFang SC" font-size="16" font-weight="300" line-spacing="16" fill="#333333">
            <tspan x="74" y="704">系统图标</tspan>
        </text>
        <text id="logo" font-family="PingFangSC-Light, PingFang SC" font-size="16" font-weight="300" line-spacing="16" fill="#333333">
            <tspan x="74" y="826">LOGO</tspan>
        </text>
        <text id="图标" font-family="PingFangSC-Regular, PingFang SC" font-size="20" font-weight="normal" line-spacing="20" fill="#333333">
            <tspan x="74" y="55">图标</tspan>
        </text>
        <rect id="Rectangle-5" fill="#333333" x="74" y="69" width="250" height="1"></rect>
        <text id="业务图标" font-family="PingFangSC-Light, PingFang SC" font-size="16" font-weight="300" line-spacing="16" fill="#333333">
            <tspan x="74" y="141">业务图标</tspan>
        </text>
        <g id="Group-10" transform="translate(333.000000, 449.000000)">
            <g id="Group-3">
                <mask id="mask-40" fill="white">
                    <use xlink:href="#path-39"></use>
                </mask>
                <g id="Clip-2"></g>
                <path d="M60.4160828,30.2699576 C60.4160828,46.6706864 46.8919621,59.9666186 30.2074103,59.9666186 C13.5249621,59.9666186 -0.000210344828,46.6706864 -0.000210344828,30.2699576 C-0.000210344828,13.8692288 13.5249621,0.574330508 30.2074103,0.574330508 C46.8919621,0.574330508 60.4160828,13.8692288 60.4160828,30.2699576" id="Fill-1" fill="#80B3F2" mask="url(#mask-40)"></path>
            </g>
            <path d="M35.6116897,27.8537966 C37.7172414,26.2274746 39.0781724,23.7078644 39.0781724,20.8760169 C39.0781724,15.9815424 35.0279828,12 30.0491207,12 C25.0702586,12 21.020069,15.9815424 21.020069,20.8760169 C21.020069,23.7078644 22.381,26.2274746 24.4865517,27.8537966 C18.9366034,30.0332542 15,35.363 15,41.5870678 L15,44.5460847 C15,45.3638983 15.6731034,46.0255932 16.5050172,46.0255932 L43.5932241,46.0255932 C44.4251379,46.0255932 45.0982414,45.3638983 45.0982414,44.5460847 L45.0982414,41.5870678 C45.0982414,35.3619661 41.1616379,30.0332542 35.6116897,27.8537966" id="Fill-4" fill="#F4F4F4" opacity="0.843247768"></path>
            <path d="M44.5280517,27.3602542 C45.7596207,26.0254915 46.4853103,24.2709661 46.4853103,22.3975424 C46.4853103,18.3177797 43.1092759,15 38.9612759,15 C38.8361207,15 38.720431,15.0299831 38.5973793,15.0361864 C39.2494483,15.9625593 39.7448103,16.9974915 40.0634828,18.1068644 L40.0645345,18.1068644 C40.055069,18.1078983 40.0487586,18.1089322 40.0487586,18.1089322 C40.0487586,18.1089322 42.1153966,23.5224237 38,27.769678 C38.6857241,28.0726102 46.4716379,31.2497797 46.4705862,41.6280508 C46.4758448,41.6280508 46.4800517,41.6280508 46.4853103,41.6280508 L49.4953448,41.6280508 C50.3272586,41.6280508 51.0003621,40.9663559 51.0003621,40.1485424 L51.0003621,37.8605254 C51.0003621,33.3454915 48.4467759,29.355678 44.5280517,27.3602542" id="Fill-6" fill="#F4F4F4" opacity="0.843247768"></path>
            <path d="M21.9856379,27.769678 C17.8702414,23.5224237 19.9368793,18.1089322 19.9368793,18.1089322 C20.2545,16.9974915 20.7509138,15.9615254 21.4029828,15.0361864 C21.2809828,15.0299831 21.1642414,15 21.0390862,15 C16.8900345,15 13.5150517,18.3177797 13.5150517,22.3975424 C13.5150517,24.2699322 14.2407414,26.0254915 15.4723103,27.3602542 C11.5546379,29.355678 9,33.3454915 9,37.8605254 L9,40.1485424 C9,40.9663559 9.67310345,41.6280508 10.5050172,41.6280508 L13.5150517,41.6280508 C13.514,31.2497797 21.2999138,28.0726102 21.9856379,27.769678" id="Fill-8" fill="#F4F4F4" opacity="0.843247768"></path>
        </g>
    </g>
</svg>