<?xml version="1.0" encoding="UTF-8"?>
<svg width="246px" height="125px" viewBox="0 0 246 125" version="1.1" xmlns="http://www.w3.org/2000/svg" xmlns:xlink="http://www.w3.org/1999/xlink">
    <!-- Generator: Sketch 53.2 (72643) - https://sketchapp.com -->
    <title>画板</title>
    <desc>Created with Sketch.</desc>
    <defs>
        <rect id="path-1" x="0" y="0" width="26" height="22"></rect>
        <rect id="path-3" x="0" y="0" width="26" height="22"></rect>
    </defs>
    <g id="画板" stroke="none" stroke-width="1" fill="none" fill-rule="evenodd">
        <g id="审核" transform="translate(25.000000, 24.000000)" fill-rule="nonzero">
            <path d="M9.14364066,23.8566 C5.35599054,22.5561 3.98763121,21.4941 3.9852104,21.4941 C0.0489834515,18.8061 0.0141843972,15.2769 0.0141843972,15.2769 L0.0141843972,4.1385 C0.0141843972,3.5925 0.45779669,3.1233 1.00308274,3.1035 C3.79911111,3.0045 7.91417494,0.9468 9.4214279,0.1452 C9.78255375,-0.04832178 10.2177488,-0.04832178 10.5788747,0.1452 C12.0858251,0.9492 16.2033097,3.0042 18.9969173,3.1035 C19.5422033,3.1233 19.9858156,3.5925 19.9858156,4.1385 L19.9858156,15.2769 C19.9858156,15.2769 19.9510165,18.8061 16.0147896,21.4941 C16.0147896,21.4941 14.6464303,22.5561 10.8587801,23.8566 C10.3033082,24.0476644 9.69911262,24.0476644 9.14364066,23.8566 Z M10,18.3 C13.5095603,18.3 16.3546099,15.4794 16.3546099,12 C16.3546099,8.5206 13.5095603,5.7 10,5.7 C6.49043972,5.7 3.64539007,8.5206 3.64539007,12 C3.64539007,15.4794 6.49043972,18.3 10,18.3 Z" id="形状" fill-opacity="0.228010271" fill="#4E7CFE"></path>
            <path d="M10,18.6 C6.32340426,18.6 3.3427896,15.645 3.3427896,12 C3.3427896,8.355 6.32340426,5.4 10,5.4 C13.6765957,5.4 16.6572104,8.355 16.6572104,12 C16.6572104,15.645 13.6765957,18.6 10,18.6 Z" id="路径" fill="#4E7CFE"></path>
            <path d="M10,17.4 C13.0081513,17.4 15.4468085,14.9823 15.4468085,12 C15.4468085,9.0177 13.0081513,6.6 10,6.6 C6.9918487,6.6 4.55319149,9.0177 4.55319149,12 C4.55319149,14.9823 6.9918487,17.4 10,17.4 Z" id="路径" fill="#FFFFFF"></path>
            <path d="M13.8636028,16.4304 C14.3261233,15.9718928 15.075976,15.9718928 15.5384965,16.4304 L17.0729835,17.9514 C17.5355761,18.4100173 17.5355761,19.1535827 17.0729834,19.6122 C16.6103908,20.0708172 15.8603799,20.0708172 15.3977872,19.6122 L13.8636028,18.0912 C13.6414177,17.8709854 13.5165902,17.5722737 13.5165902,17.2608 C13.5165902,16.9493263 13.6414177,16.6506146 13.8636028,16.4304 L13.8636028,16.4304 Z M9.47408038,12.5091 L11.6258723,10.3758 C11.8633404,10.1484167 12.2408078,10.1516686 12.4742543,10.3831089 C12.7077007,10.6145491 12.7109808,10.9887727 12.4816265,11.2242 L9.91406147,13.77 C9.84791536,13.8358092 9.76720366,13.8854225 9.6783357,13.9149 C9.45656386,13.9962776 9.20729744,13.9421422 9.0401513,13.7763 L7.75652009,12.5037 C7.60360029,12.3521479 7.54384947,12.1312274 7.59977519,11.924157 C7.65570091,11.7170866 7.81880673,11.5553253 8.02765226,11.499807 C8.23649779,11.4442887 8.45935442,11.5034479 8.61227423,11.655 L9.47408038,12.5094 L9.47408038,12.5091 Z" id="形状" fill="#4E7CFE"></path>
        </g>
        <g id="消息通知-未读" transform="translate(68.000000, 26.000000)">
            <g id="分组-2-Clipped">
                <mask id="mask-2" fill="white">
                    <use xlink:href="#path-1"></use>
                </mask>
                <g id="path-27"></g>
                <g id="分组-2" mask="url(#mask-2)">
                    <g transform="translate(1.000000, 2.000000)" id="分组">
                        <g>
                            <g id="信息-copy" transform="translate(0.000000, 1.000000)" fill="#333333" fill-rule="nonzero">
                                <g id="分组">
                                    <path d="M19.652,0.648 L2.348,0.648 C1.1,0.648 0.08,1.668 0.08,2.916 L0.08,14.964 C0.08,16.212 1.1,17.232 2.348,17.232 L19.652,17.232 C20.9,17.232 21.92,16.212 21.92,14.964 L21.92,2.916 C21.92,1.668 20.9,0.648 19.652,0.648 Z M2.348,1.884 L19.652,1.884 C20.216,1.884 20.684,2.352 20.684,2.916 L20.684,3.864 L11,11.58 L1.316,3.864 L1.316,2.916 C1.316,2.352 1.784,1.884 2.348,1.884 Z M19.652,15.996 L2.348,15.996 C1.784,15.996 1.316,15.528 1.316,14.964 L1.316,5.448 L10.616,12.852 C10.724,12.936 10.868,12.984 11,12.984 C11.132,12.984 11.276,12.936 11.384,12.852 L20.684,5.448 L20.684,14.964 C20.684,15.528 20.216,15.996 19.652,15.996 L19.652,15.996 Z" id="形状"></path>
                                </g>
                            </g>
                            <circle id="椭圆形" stroke="#FFFFFF" fill="#FF4D4F" fill-rule="nonzero" cx="21" cy="3" r="3"></circle>
                        </g>
                    </g>
                </g>
            </g>
        </g>
        <g id="消息通知-已读" transform="translate(111.000000, 26.000000)">
            <g id="信息-copy">
                <g id="分组">
                    <g id="形状-Clipped">
                        <mask id="mask-4" fill="white">
                            <use xlink:href="#path-3"></use>
                        </mask>
                        <g id="path-29"></g>
                        <path d="M21.572,3 L4.268,3 C3.02,3 2,4.02 2,5.268 L2,17.316 C2,18.564 3.02,19.584 4.268,19.584 L21.572,19.584 C22.82,19.584 23.84,18.564 23.84,17.316 L23.84,5.268 C23.84,4.02 22.82,3 21.572,3 Z M4.268,4.236 L21.572,4.236 C22.136,4.236 22.604,4.704 22.604,5.268 L22.604,6.216 L12.92,13.932 L3.236,6.216 L3.236,5.268 C3.236,4.704 3.704,4.236 4.268,4.236 Z M21.572,18.348 L4.268,18.348 C3.704,18.348 3.236,17.88 3.236,17.316 L3.236,7.8 L12.536,15.204 C12.644,15.288 12.788,15.336 12.92,15.336 C13.052,15.336 13.196,15.288 13.304,15.204 L22.604,7.8 L22.604,17.316 C22.604,17.88 22.136,18.348 21.572,18.348 L21.572,18.348 Z" id="形状" fill="#333333" fill-rule="nonzero" mask="url(#mask-4)"></path>
                    </g>
                </g>
            </g>
        </g>
    </g>
</svg>