<?xml version="1.0" encoding="UTF-8"?>
<svg width="339px" height="152px" viewBox="0 0 339 152" version="1.1" xmlns="http://www.w3.org/2000/svg" xmlns:xlink="http://www.w3.org/1999/xlink">
    <!-- Generator: Sketch 60 (88103) - https://sketch.com -->
    <title>画板</title>
    <desc>Created with Sketch.</desc>
    <g id="画板" stroke="none" stroke-width="1" fill="none" fill-rule="evenodd">
        <g id="icon/广告管理" transform="translate(83.000000, 43.000000)" fill="#545454" fill-rule="nonzero">
            <path d="M6.69052174,11.6521739 L11.309087,11.6521739 C11.7412826,11.6521739 12.0916957,11.3017609 12.0916957,10.8695652 C12.0916957,10.4373696 11.7412826,10.0869565 11.309087,10.0869565 L6.69052174,10.0869565 C6.25832609,10.0869565 5.90791304,10.4373696 5.90791304,10.8695652 C5.90791304,11.3017609 6.25832609,11.6521739 6.69052174,11.6521739 L6.69052174,11.6521739 Z M16.1894348,7.73913043 L1.80586957,7.73913043 L3.84906522,15.173913 L8.99980435,15.173913 L14.1116087,15.173913 L16.1894348,7.73913043 Z M18,4.72843478 L18,6.86065217 L18,6.86221739 L18,6.8626087 L18,6.86378261 C18,6.86397826 17.9998043,6.86397826 17.9998043,6.86397826 C17.999413,6.94126087 17.9880652,7.01580435 17.9669348,7.08623913 L15.462,16.1646957 C15.3682826,16.5039565 15.0595435,16.7391304 14.7075652,16.7391304 L3.25056522,16.7391304 C2.89721739,16.7391304 2.58769565,16.5023913 2.49515217,16.1613696 L0.0320869565,7.08291304 C0.0205434783,7.04436957 0.0119347826,7.00445652 0.00665217391,6.96376087 C0.00136956522,6.92326087 0,6.88276087 0,6.84284783 L0,4.72843478 C0,4.29623913 0.350413043,3.94582609 0.782608696,3.94582609 C1.21480435,3.94582609 1.56521739,4.29623913 1.56521739,4.72843478 L1.56521739,6.17391304 L16.4347826,6.17391304 L16.4347826,4.72843478 C16.4347826,4.29623913 16.7851957,3.94582609 17.2173913,3.94582609 C17.649587,3.94582609 18,4.29623913 18,4.72843478 L18,4.72843478 Z M5.14702174,1.86956522 L12.852587,1.86956522 C13.2307826,1.86956522 13.5373696,1.56297826 13.5373696,1.18478261 C13.5373696,0.806586957 13.2307826,0.5 12.852587,0.5 L5.14702174,0.5 C4.76882609,0.5 4.46223913,0.806586957 4.46223913,1.18478261 C4.46223913,1.56297826 4.76882609,1.86956522 5.14702174,1.86956522 L5.14702174,1.86956522 Z M3.08054348,3.82608696 C3.08054348,3.3938913 3.43115217,3.04347826 3.86315217,3.04347826 L14.1364565,3.04347826 C14.5686522,3.04347826 14.9190652,3.3938913 14.9190652,3.82608696 C14.9190652,4.25828261 14.5686522,4.60869565 14.1364565,4.60869565 L3.86315217,4.60869565 C3.43115217,4.60869565 3.08054348,4.25828261 3.08054348,3.82608696 L3.08054348,3.82608696 Z" id="archive"></path>
        </g>
        <g id="icon/广告管理-copy" transform="translate(83.000000, 102.000000)" fill="#4E7CFE" fill-rule="nonzero">
            <path d="M6.69052174,11.6521739 L11.309087,11.6521739 C11.7412826,11.6521739 12.0916957,11.3017609 12.0916957,10.8695652 C12.0916957,10.4373696 11.7412826,10.0869565 11.309087,10.0869565 L6.69052174,10.0869565 C6.25832609,10.0869565 5.90791304,10.4373696 5.90791304,10.8695652 C5.90791304,11.3017609 6.25832609,11.6521739 6.69052174,11.6521739 L6.69052174,11.6521739 Z M16.1894348,7.73913043 L1.80586957,7.73913043 L3.84906522,15.173913 L8.99980435,15.173913 L14.1116087,15.173913 L16.1894348,7.73913043 Z M18,4.72843478 L18,6.86065217 L18,6.86221739 L18,6.8626087 L18,6.86378261 C18,6.86397826 17.9998043,6.86397826 17.9998043,6.86397826 C17.999413,6.94126087 17.9880652,7.01580435 17.9669348,7.08623913 L15.462,16.1646957 C15.3682826,16.5039565 15.0595435,16.7391304 14.7075652,16.7391304 L3.25056522,16.7391304 C2.89721739,16.7391304 2.58769565,16.5023913 2.49515217,16.1613696 L0.0320869565,7.08291304 C0.0205434783,7.04436957 0.0119347826,7.00445652 0.00665217391,6.96376087 C0.00136956522,6.92326087 0,6.88276087 0,6.84284783 L0,4.72843478 C0,4.29623913 0.350413043,3.94582609 0.782608696,3.94582609 C1.21480435,3.94582609 1.56521739,4.29623913 1.56521739,4.72843478 L1.56521739,6.17391304 L16.4347826,6.17391304 L16.4347826,4.72843478 C16.4347826,4.29623913 16.7851957,3.94582609 17.2173913,3.94582609 C17.649587,3.94582609 18,4.29623913 18,4.72843478 L18,4.72843478 Z M5.14702174,1.86956522 L12.852587,1.86956522 C13.2307826,1.86956522 13.5373696,1.56297826 13.5373696,1.18478261 C13.5373696,0.806586957 13.2307826,0.5 12.852587,0.5 L5.14702174,0.5 C4.76882609,0.5 4.46223913,0.806586957 4.46223913,1.18478261 C4.46223913,1.56297826 4.76882609,1.86956522 5.14702174,1.86956522 L5.14702174,1.86956522 Z M3.08054348,3.82608696 C3.08054348,3.3938913 3.43115217,3.04347826 3.86315217,3.04347826 L14.1364565,3.04347826 C14.5686522,3.04347826 14.9190652,3.3938913 14.9190652,3.82608696 C14.9190652,4.25828261 14.5686522,4.60869565 14.1364565,4.60869565 L3.86315217,4.60869565 C3.43115217,4.60869565 3.08054348,4.25828261 3.08054348,3.82608696 L3.08054348,3.82608696 Z" id="archive"></path>
        </g>
        <g id="icon/报表" transform="translate(138.000000, 43.000000)" fill="#545454" fill-rule="nonzero">
            <path d="M2.83108696,10.742087 C3.24176087,13.940413 6.12234783,16.4261739 9.60358696,16.4261739 C13.365587,16.4261739 16.4261739,13.3653913 16.4261739,9.6033913 C16.4261739,6.18534783 13.8952174,3.25741304 10.7422826,2.83363043 L10.7422826,9.95517391 C10.7422826,10.3897174 10.389913,10.742087 9.95536957,10.742087 L2.83108696,10.742087 Z M9.60358696,18 C4.97386957,18 1.20717391,14.391 1.20717391,9.95517391 C1.20717391,9.52063043 1.55954348,9.16826087 1.99408696,9.16826087 L9.16845652,9.16826087 L9.16845652,1.9938913 C9.16845652,1.55934783 9.52082609,1.20697826 9.95536957,1.20697826 C14.3160652,1.20697826 18,5.05213043 18,9.6033913 C18,14.2333043 14.2333043,18 9.60358696,18 L9.60358696,18 Z M1.4223913,5.89480435 L5.895,5.89480435 L5.895,1.4223913 C3.57378261,1.73034783 1.73034783,3.57358696 1.4223913,5.89480435 L1.4223913,5.89480435 Z M6.5835,7.27180435 L0.6885,7.27180435 C0.308152174,7.27180435 0,6.96365217 0,6.58330435 C0,2.95317391 2.95336957,0 6.5835,0 C6.96384783,0 7.272,0.308152174 7.272,0.6885 L7.272,6.58330435 C7.272,6.96365217 6.96384783,7.27180435 6.5835,7.27180435 L6.5835,7.27180435 Z" id="graph-pie"></path>
        </g>
        <g id="icon/报表-copy" transform="translate(138.000000, 101.000000)" fill="#4E7CFE" fill-rule="nonzero">
            <path d="M2.83108696,10.742087 C3.24176087,13.940413 6.12234783,16.4261739 9.60358696,16.4261739 C13.365587,16.4261739 16.4261739,13.3653913 16.4261739,9.6033913 C16.4261739,6.18534783 13.8952174,3.25741304 10.7422826,2.83363043 L10.7422826,9.95517391 C10.7422826,10.3897174 10.389913,10.742087 9.95536957,10.742087 L2.83108696,10.742087 Z M9.60358696,18 C4.97386957,18 1.20717391,14.391 1.20717391,9.95517391 C1.20717391,9.52063043 1.55954348,9.16826087 1.99408696,9.16826087 L9.16845652,9.16826087 L9.16845652,1.9938913 C9.16845652,1.55934783 9.52082609,1.20697826 9.95536957,1.20697826 C14.3160652,1.20697826 18,5.05213043 18,9.6033913 C18,14.2333043 14.2333043,18 9.60358696,18 L9.60358696,18 Z M1.4223913,5.89480435 L5.895,5.89480435 L5.895,1.4223913 C3.57378261,1.73034783 1.73034783,3.57358696 1.4223913,5.89480435 L1.4223913,5.89480435 Z M6.5835,7.27180435 L0.6885,7.27180435 C0.308152174,7.27180435 0,6.96365217 0,6.58330435 C0,2.95317391 2.95336957,0 6.5835,0 C6.96384783,0 7.272,0.308152174 7.272,0.6885 L7.272,6.58330435 C7.272,6.96365217 6.96384783,7.27180435 6.5835,7.27180435 L6.5835,7.27180435 Z" id="graph-pie"></path>
        </g>
        <g id="icon/概览" transform="translate(28.000000, 44.000000)" fill="#545454" fill-rule="nonzero">
            <path d="M11.7535909,14.1590909 L16.3636364,14.1590909 L16.3636364,10.7374545 L11.7535909,10.7374545 L11.7535909,14.1590909 Z M11.2688182,15.7954545 C10.6339091,15.7954545 10.1172273,15.2816364 10.1172273,14.65 L10.1172273,10.2465455 C10.1172273,9.61511364 10.6339091,9.10109091 11.2688182,9.10109091 L16.8486136,9.10109091 C17.4835227,9.10109091 18,9.61511364 18,10.2465455 L18,14.6502045 C18,15.2816364 17.4835227,15.7954545 16.8488182,15.7954545 L11.2688182,15.7954545 Z M1.63636364,14.1590909 L6.24640909,14.1590909 L6.24640909,10.7374545 L1.63636364,10.7374545 L1.63636364,14.1590909 Z M6.73138636,15.7954545 L1.15138636,15.7954545 C0.516477273,15.7954545 0,15.2816364 0,14.65 L0,10.2465455 C0,9.61511364 0.516477273,9.10109091 1.15138636,9.10109091 L6.73118182,9.10109091 C7.36609091,9.10109091 7.88277273,9.61511364 7.88277273,10.2465455 L7.88277273,14.6502045 C7.88277273,15.2816364 7.36629545,15.7954545 6.73138636,15.7954545 L6.73138636,15.7954545 Z M11.7535909,5.30779545 L16.3636364,5.30779545 L16.3636364,1.88615909 L11.7535909,1.88615909 L11.7535909,5.30779545 Z M16.8488182,6.94415909 L11.2688182,6.94415909 C10.6339091,6.94415909 10.1172273,6.43034091 10.1172273,5.79870455 L10.1172273,1.39504545 C10.1172273,0.763613636 10.6337045,0.25 11.2682045,0.25 L16.8486136,0.25 C17.4835227,0.25 18,0.763818182 18,1.39545455 L18,5.79890909 C18,6.43054545 17.4835227,6.94415909 16.8488182,6.94415909 L16.8488182,6.94415909 Z M1.63636364,5.30779545 L6.24640909,5.30779545 L6.24640909,1.88615909 L1.63636364,1.88615909 L1.63636364,5.30779545 Z M6.73138636,6.94415909 L1.15138636,6.94415909 C0.516477273,6.94415909 0,6.43034091 0,5.79870455 L0,1.39504545 C0,0.763613636 0.516272727,0.25 1.15097727,0.25 L6.73118182,0.25 C7.36609091,0.25 7.88277273,0.763818182 7.88277273,1.39545455 L7.88277273,5.79890909 C7.88277273,6.43054545 7.36629545,6.94415909 6.73138636,6.94415909 L6.73138636,6.94415909 Z" id="view-thumb"></path>
        </g>
        <g id="icon/概览-copy" transform="translate(28.000000, 102.000000)" fill="#4E7CFE" fill-rule="nonzero">
            <path d="M11.7535909,14.1590909 L16.3636364,14.1590909 L16.3636364,10.7374545 L11.7535909,10.7374545 L11.7535909,14.1590909 Z M11.2688182,15.7954545 C10.6339091,15.7954545 10.1172273,15.2816364 10.1172273,14.65 L10.1172273,10.2465455 C10.1172273,9.61511364 10.6339091,9.10109091 11.2688182,9.10109091 L16.8486136,9.10109091 C17.4835227,9.10109091 18,9.61511364 18,10.2465455 L18,14.6502045 C18,15.2816364 17.4835227,15.7954545 16.8488182,15.7954545 L11.2688182,15.7954545 Z M1.63636364,14.1590909 L6.24640909,14.1590909 L6.24640909,10.7374545 L1.63636364,10.7374545 L1.63636364,14.1590909 Z M6.73138636,15.7954545 L1.15138636,15.7954545 C0.516477273,15.7954545 0,15.2816364 0,14.65 L0,10.2465455 C0,9.61511364 0.516477273,9.10109091 1.15138636,9.10109091 L6.73118182,9.10109091 C7.36609091,9.10109091 7.88277273,9.61511364 7.88277273,10.2465455 L7.88277273,14.6502045 C7.88277273,15.2816364 7.36629545,15.7954545 6.73138636,15.7954545 L6.73138636,15.7954545 Z M11.7535909,5.30779545 L16.3636364,5.30779545 L16.3636364,1.88615909 L11.7535909,1.88615909 L11.7535909,5.30779545 Z M16.8488182,6.94415909 L11.2688182,6.94415909 C10.6339091,6.94415909 10.1172273,6.43034091 10.1172273,5.79870455 L10.1172273,1.39504545 C10.1172273,0.763613636 10.6337045,0.25 11.2682045,0.25 L16.8486136,0.25 C17.4835227,0.25 18,0.763818182 18,1.39545455 L18,5.79890909 C18,6.43054545 17.4835227,6.94415909 16.8488182,6.94415909 L16.8488182,6.94415909 Z M1.63636364,5.30779545 L6.24640909,5.30779545 L6.24640909,1.88615909 L1.63636364,1.88615909 L1.63636364,5.30779545 Z M6.73138636,6.94415909 L1.15138636,6.94415909 C0.516477273,6.94415909 0,6.43034091 0,5.79870455 L0,1.39504545 C0,0.763613636 0.516272727,0.25 1.15097727,0.25 L6.73118182,0.25 C7.36609091,0.25 7.88277273,0.763818182 7.88277273,1.39545455 L7.88277273,5.79890909 C7.88277273,6.43054545 7.36629545,6.94415909 6.73138636,6.94415909 L6.73138636,6.94415909 Z" id="view-thumb"></path>
        </g>
        <path d="M249.755814,112.310052 L249.755814,119.201044 C249.755814,119.642689 249.381395,120 248.918605,120 C248.455814,120 248.081395,119.642689 248.081395,119.201044 L248.081395,112.310052 L240.837209,112.310052 C240.374419,112.310052 240,111.952742 240,111.511097 C240,111.069452 240.374419,110.712141 240.837209,110.712141 L248.081395,110.712141 L248.081395,103.798956 C248.081395,103.357311 248.455814,103 248.918605,103 C249.381395,103 249.755814,103.357311 249.755814,103.798956 L249.755814,110.712141 L257.162791,110.712141 C257.625581,110.712141 258,111.069452 258,111.511097 C258,111.952742 257.625581,112.310052 257.162791,112.310052 L249.755814,112.310052 Z" id="Shape" fill="#FFFFFF" fill-rule="nonzero" transform="translate(249.000000, 111.500000) scale(-1, 1) rotate(-180.000000) translate(-249.000000, -111.500000) "></path>
        <g id="icon/工具箱" transform="translate(189.000000, 43.000000)" fill="#545454" fill-rule="nonzero">
            <path d="M17.7708913,3.56473913 C17.6241522,3.41780435 17.4249783,3.38043478 17.2173913,3.38043478 L13.1086957,3.38043478 L13.1086957,1.0326087 C13.1086957,0.600413043 12.7201304,0.25 12.2879348,0.25 L5.71206522,0.25 C5.27986957,0.25 4.89130435,0.600413043 4.89130435,1.0326087 L4.89130435,3.38043478 L0.782608696,3.38043478 C0.350413043,3.38043478 0,3.64065217 0,4.07284783 L0,15.1195652 C0,15.5517609 0.350413043,15.9021739 0.782608696,15.9021739 L17.2123043,15.9021739 C17.6443043,15.9021739 17.9947174,15.5519565 17.994913,15.1199565 L18,4.09573913 C18,3.88815217 17.9176304,3.71147826 17.7708913,3.56473913 L17.7708913,3.56473913 Z M7.04347826,10.2282609 L7.04347826,10.4217609 C7.04347826,10.7459565 7.35730435,11.0108696 7.68130435,11.0108696 L10.3186957,11.0108696 C10.6426957,11.0108696 10.9565217,10.7459565 10.9565217,10.4217609 L10.9565217,10.2282609 L16.4320435,10.2282609 L16.430087,14.3369565 L1.56521739,14.3369565 L1.56521739,10.2282609 L7.04347826,10.2282609 Z M9.7826087,9.44565217 L9.7826087,9.83695652 L8.2173913,9.83695652 L8.2173913,9.44565217 L9.7826087,9.44565217 Z M16.4343913,4.94565217 L16.4324348,9.05434783 L10.9565217,9.05434783 L10.9565217,8.77045652 C10.9565217,8.44645652 10.6426957,8.27173913 10.3186957,8.27173913 L7.68130435,8.27173913 C7.35730435,8.27173913 7.04347826,8.44645652 7.04347826,8.77045652 L7.04347826,9.05434783 L1.56521739,9.05434783 L1.56521739,4.94565217 L16.4343913,4.94565217 Z M11.5434783,1.81521739 L11.5434783,3.38043478 L6.45652174,3.38043478 L6.45652174,1.81521739 L11.5434783,1.81521739 Z" id="briefcase"></path>
        </g>
        <g id="icon/工具箱-copy" transform="translate(189.000000, 103.000000)" fill="#4E7CFE" fill-rule="nonzero">
            <path d="M7.04347826,10.2282609 L7.04347826,10.4217609 C7.04347826,10.7459565 7.35730435,11.0108696 7.68130435,11.0108696 L10.3186957,11.0108696 C10.6426957,11.0108696 10.9565217,10.7459565 10.9565217,10.4217609 L10.9565217,10.2282609 L16.4320435,10.2282609 L16.430087,14.3369565 L1.56521739,14.3369565 L1.56521739,10.2282609 L7.04347826,10.2282609 Z M9.7826087,9.44565217 L9.7826087,9.83695652 L8.2173913,9.83695652 L8.2173913,9.44565217 L9.7826087,9.44565217 Z M16.4343913,4.94565217 L16.4324348,9.05434783 L10.9565217,9.05434783 L10.9565217,8.77045652 C10.9565217,8.44645652 10.6426957,8.27173913 10.3186957,8.27173913 L7.68130435,8.27173913 C7.35730435,8.27173913 7.04347826,8.44645652 7.04347826,8.77045652 L7.04347826,9.05434783 L1.56521739,9.05434783 L1.56521739,4.94565217 L16.4343913,4.94565217 Z M11.5434783,1.81521739 L11.5434783,3.38043478 L6.45652174,3.38043478 L6.45652174,1.81521739 L11.5434783,1.81521739 Z M17.7708913,3.56473913 C17.6241522,3.41780435 17.4249783,3.38043478 17.2173913,3.38043478 L13.1086957,3.38043478 L13.1086957,1.0326087 C13.1086957,0.600413043 12.7201304,0.25 12.2879348,0.25 L5.71206522,0.25 C5.27986957,0.25 4.89130435,0.600413043 4.89130435,1.0326087 L4.89130435,3.38043478 L0.782608696,3.38043478 C0.350413043,3.38043478 0,3.64065217 0,4.07284783 L0,15.1195652 C0,15.5517609 0.350413043,15.9021739 0.782608696,15.9021739 L17.2123043,15.9021739 C17.6443043,15.9021739 17.9947174,15.5519565 17.994913,15.1199565 L18,4.09573913 C18,3.88815217 17.9176304,3.71147826 17.7708913,3.56473913 L17.7708913,3.56473913 Z" id="briefcase"></path>
        </g>
        <g id="创意中心" transform="translate(283.000000, 104.000000)" fill="#4E7CFE" fill-rule="nonzero">
            <path d="M16.2980447,1.0658141e-14 C17.2380087,1.0658141e-14 18,0.761991326 18,1.70195526 L18,9.64441316 C18,10.5843771 17.2380087,11.3463684 16.2980447,11.3463684 L15.163,11.346 L15.1634079,12.2321308 C15.1634079,13.1720947 14.4014166,13.9340861 13.4614526,13.9340861 L1.73687193,13.9340861 C0.796907992,13.9340861 0.0349166655,13.1720947 0.0349166655,12.2321308 L0.034,11.756 L0.0288683783,11.7439308 C-0.012058828,11.6293056 -0.00852019421,11.5062553 0.0334669124,11.3971382 L0.0349166655,4.28967291 C0.0349166655,3.34970897 0.796907992,2.58771764 1.73687193,2.58771764 L2.871,2.587 L2.87150877,1.70195526 C2.87150877,0.761991326 3.6335001,1.0658141e-14 4.57346403,1.0658141e-14 L16.2980447,1.0658141e-14 Z M9.83886187,7.96052804 L6.29447898,11.6010328 C6.15842126,11.7407434 5.95612941,11.7864129 5.77671793,11.7255112 L5.68933146,11.6861214 L3.49020103,10.4287309 L1.532,11.557 L1.53200694,12.2321308 C1.53200694,12.3264173 1.59570221,12.405827 1.6824107,12.4296778 L1.73687193,12.4369958 L13.4614526,12.4369958 C13.5557391,12.4369958 13.6351488,12.3733005 13.6589996,12.286592 L13.6663176,12.2321308 L13.6666877,11.3795023 C13.6412577,11.3691256 13.6164802,11.3565477 13.5926386,11.3417541 L13.5206985,11.287573 L9.83886187,7.96052804 Z M13.4614526,4.08480792 L1.73687193,4.08480792 C1.64258542,4.08480792 1.56317574,4.14850318 1.53932492,4.23521168 L1.53200694,4.28967291 L1.532,10.405 L3.24097624,9.42179532 C3.36902457,9.34805503 3.52166686,9.33555258 3.65807839,9.38435402 L3.73765101,9.42099188 L5.84861724,10.6273449 L9.4600481,6.91993172 C9.62388264,6.75169858 9.87846806,6.72320572 10.0729402,6.83926297 L10.1521652,6.89786582 L13.666,10.074 L13.6663176,4.28967291 C13.6663176,4.1953864 13.6026224,4.11597672 13.5159139,4.0921259 L13.4614526,4.08480792 Z M16.2980447,1.49709028 L4.57346403,1.49709028 C4.47917753,1.49709028 4.39976785,1.56078554 4.37591702,1.64749403 L4.36859905,1.70195526 L4.368,2.587 L13.4614526,2.58771764 C14.4014166,2.58771764 15.1634079,3.34970897 15.1634079,4.28967291 L15.163,9.849 L16.2980447,9.84927814 C16.3923312,9.84927814 16.4717409,9.78558288 16.4955917,9.69887439 L16.5029097,9.64441316 L16.5029097,1.70195526 C16.5029097,1.60766876 16.4392145,1.52825908 16.352506,1.50440825 L16.2980447,1.49709028 Z M3.90412783,4.64162045 C4.83248727,4.64162045 5.5850713,5.39420447 5.5850713,6.32256392 C5.5850713,7.25092336 4.83248727,8.00350739 3.90412783,8.00350739 C2.97576838,8.00350739 2.22318436,7.25092336 2.22318436,6.32256392 C2.22318436,5.39420447 2.97576838,4.64162045 3.90412783,4.64162045 Z M3.90412783,5.63968063 C3.5269818,5.63968063 3.22124454,5.94541789 3.22124454,6.32256392 C3.22124454,6.69970994 3.5269818,7.0054472 3.90412783,7.0054472 C4.28127385,7.0054472 4.58701111,6.69970994 4.58701111,6.32256392 C4.58701111,5.94541789 4.28127385,5.63968063 3.90412783,5.63968063 Z" id="形状结合"></path>
        </g>
        <g id="创意中心备份" transform="translate(283.000000, 44.000000)" fill="#545454" fill-rule="nonzero">
            <path d="M16.2980447,1.0658141e-14 C17.2380087,1.0658141e-14 18,0.761991326 18,1.70195526 L18,9.64441316 C18,10.5843771 17.2380087,11.3463684 16.2980447,11.3463684 L15.163,11.346 L15.1634079,12.2321308 C15.1634079,13.1720947 14.4014166,13.9340861 13.4614526,13.9340861 L1.73687193,13.9340861 C0.796907992,13.9340861 0.0349166655,13.1720947 0.0349166655,12.2321308 L0.034,11.756 L0.0288683783,11.7439308 C-0.012058828,11.6293056 -0.00852019421,11.5062553 0.0334669124,11.3971382 L0.0349166655,4.28967291 C0.0349166655,3.34970897 0.796907992,2.58771764 1.73687193,2.58771764 L2.871,2.587 L2.87150877,1.70195526 C2.87150877,0.761991326 3.6335001,1.0658141e-14 4.57346403,1.0658141e-14 L16.2980447,1.0658141e-14 Z M9.83886187,7.96052804 L6.29447898,11.6010328 C6.15842126,11.7407434 5.95612941,11.7864129 5.77671793,11.7255112 L5.68933146,11.6861214 L3.49020103,10.4287309 L1.532,11.557 L1.53200694,12.2321308 C1.53200694,12.3264173 1.59570221,12.405827 1.6824107,12.4296778 L1.73687193,12.4369958 L13.4614526,12.4369958 C13.5557391,12.4369958 13.6351488,12.3733005 13.6589996,12.286592 L13.6663176,12.2321308 L13.6666877,11.3795023 C13.6412577,11.3691256 13.6164802,11.3565477 13.5926386,11.3417541 L13.5206985,11.287573 L9.83886187,7.96052804 Z M13.4614526,4.08480792 L1.73687193,4.08480792 C1.64258542,4.08480792 1.56317574,4.14850318 1.53932492,4.23521168 L1.53200694,4.28967291 L1.532,10.405 L3.24097624,9.42179532 C3.36902457,9.34805503 3.52166686,9.33555258 3.65807839,9.38435402 L3.73765101,9.42099188 L5.84861724,10.6273449 L9.4600481,6.91993172 C9.62388264,6.75169858 9.87846806,6.72320572 10.0729402,6.83926297 L10.1521652,6.89786582 L13.666,10.074 L13.6663176,4.28967291 C13.6663176,4.1953864 13.6026224,4.11597672 13.5159139,4.0921259 L13.4614526,4.08480792 Z M16.2980447,1.49709028 L4.57346403,1.49709028 C4.47917753,1.49709028 4.39976785,1.56078554 4.37591702,1.64749403 L4.36859905,1.70195526 L4.368,2.587 L13.4614526,2.58771764 C14.4014166,2.58771764 15.1634079,3.34970897 15.1634079,4.28967291 L15.163,9.849 L16.2980447,9.84927814 C16.3923312,9.84927814 16.4717409,9.78558288 16.4955917,9.69887439 L16.5029097,9.64441316 L16.5029097,1.70195526 C16.5029097,1.60766876 16.4392145,1.52825908 16.352506,1.50440825 L16.2980447,1.49709028 Z M3.90412783,4.64162045 C4.83248727,4.64162045 5.5850713,5.39420447 5.5850713,6.32256392 C5.5850713,7.25092336 4.83248727,8.00350739 3.90412783,8.00350739 C2.97576838,8.00350739 2.22318436,7.25092336 2.22318436,6.32256392 C2.22318436,5.39420447 2.97576838,4.64162045 3.90412783,4.64162045 Z M3.90412783,5.63968063 C3.5269818,5.63968063 3.22124454,5.94541789 3.22124454,6.32256392 C3.22124454,6.69970994 3.5269818,7.0054472 3.90412783,7.0054472 C4.28127385,7.0054472 4.58701111,6.69970994 4.58701111,6.32256392 C4.58701111,5.94541789 4.28127385,5.63968063 3.90412783,5.63968063 Z" id="形状结合"></path>
        </g>
    </g>
</svg>